SplineFontDB: 3.2
FontName: Lato-Black
FullName: Lato Black
FamilyName: Lato Black
Weight: Black
Copyright: Copyright (c) 2010-2011 by tyPoland Lukasz Dziedzic with Reserved Font Name "Lato". Licensed under the SIL Open Font License, Version 1.1.
Version: 1.104; Western+Polish opensource
ItalicAngle: 0
UnderlinePosition: -200
UnderlineWidth: 194
Ascent: 1610
Descent: 390
InvalidEm: 0
sfntRevision: 0x00011aa0
LayerCount: 2
Layer: 0 1 "Back" 1
Layer: 1 1 "Fore" 0
XUID: [1021 665 200184042 15171479]
StyleMap: 0x0040
FSType: 0
OS2Version: 3
OS2_WeightWidthSlopeOnly: 0
OS2_UseTypoMetrics: 0
CreationTime: 1315810800
ModificationTime: 1626811805
PfmFamily: 17
TTFWeight: 900
TTFWidth: 5
LineGap: 0
VLineGap: 0
Panose: 2 15 10 2 2 2 4 3 2 3
OS2TypoAscent: 1610
OS2TypoAOffset: 0
OS2TypoDescent: -390
OS2TypoDOffset: 0
OS2TypoLinegap: 400
OS2WinAscent: 1974
OS2WinAOffset: 0
OS2WinDescent: 426
OS2WinDOffset: 0
HheadAscent: 1974
HheadAOffset: 0
HheadDescent: -426
HheadDOffset: 0
OS2SubXSize: 1400
OS2SubYSize: 1300
OS2SubXOff: 0
OS2SubYOff: 280
OS2SupXSize: 1400
OS2SupYSize: 1300
OS2SupXOff: 0
OS2SupYOff: 954
OS2StrikeYSize: 194
OS2StrikeYPos: 500
OS2CapHeight: 1457
OS2XHeight: 1037
OS2FamilyClass: 2051
OS2Vendor: 'tyPL'
OS2CodePages: 20000093.00000000
OS2UnicodeRanges: 8000002f.0000004a.00000000.00000000
Lookup: 4 0 1 "'liga' Standard Ligatures in Latin lookup 0" { "'liga' Standard Ligatures in Latin lookup 0 subtable"  } ['liga' ('DFLT' <'dflt' > 'latn' <'dflt' > ) ]
Lookup: 258 0 0 "'kern' Horizontal Kerning in Latin lookup 0" { "'kern' Horizontal Kerning in Latin lookup 0 subtable"  } ['kern' ('DFLT' <'dflt' > 'latn' <'dflt' > ) ]
DEI: 91125
TtTable: prep
PUSHW_2
 2048
 2048
MUL
DUP
PUSHB_1
 1
SWAP
WCVTP
DUP
PUSHB_1
 3
SWAP
WCVTF
PUSHB_1
 20
RCVT
DUP
DUP
PUSHB_1
 40
ADD
FLOOR
DUP
ROLL
NEQ
IF
PUSHB_1
 2
CINDEX
SUB
PUSHB_1
 1
RCVT
MUL
SWAP
DIV
PUSHB_1
 2
SWAP
WCVTP
PUSHB_4
 9
 10
 3
 2
CALL
PUSHB_4
 11
 16
 3
 2
CALL
PUSHB_4
 17
 22
 3
 2
CALL
EIF
PUSHB_3
 4
 40
 6
RCVT
GT
WCVTP

StartChar: .notdef
Encoding: 65536 -1 0
Width: 1123
Flags: W
LayerCount: 2
Fore
SplineSet
230 1152 m 1,0,1
 292 1200 292 1200 370 1231.5 c 128,-1,2
 448 1263 448 1263 553 1263 c 0,3,4
 631 1263 631 1263 690.5 1243 c 128,-1,5
 750 1223 750 1223 791 1187 c 128,-1,6
 832 1151 832 1151 853 1100 c 128,-1,7
 874 1049 874 1049 874 987 c 0,8,9
 874 932 874 932 861 892 c 128,-1,10
 848 852 848 852 828.5 823 c 128,-1,11
 809 794 809 794 785.5 773 c 128,-1,12
 762 752 762 752 740 734 c 128,-1,13
 718 716 718 716 701 699 c 128,-1,14
 684 682 684 682 678 661 c 2,15,-1
 651 571 l 1,16,-1
 439 571 l 1,17,-1
 417 683 l 2,18,19
 409 722 409 722 418.5 749.5 c 128,-1,20
 428 777 428 777 447 798.5 c 128,-1,21
 466 820 466 820 490.5 837.5 c 128,-1,22
 515 855 515 855 536.5 874 c 128,-1,23
 558 893 558 893 572.5 915 c 128,-1,24
 587 937 587 937 587 968 c 0,25,26
 587 991 587 991 574 1006.5 c 128,-1,27
 561 1022 561 1022 525 1022 c 0,28,29
 493 1022 493 1022 472 1017 c 128,-1,30
 451 1012 451 1012 435.5 1005.5 c 128,-1,31
 420 999 420 999 406.5 994 c 128,-1,32
 393 989 393 989 375 989 c 0,33,34
 332 989 332 989 312 1025 c 2,35,-1
 230 1152 l 1,0,1
374 331 m 256,36,37
 374 364 374 364 386 392.5 c 128,-1,38
 398 421 398 421 420 442 c 128,-1,39
 442 463 442 463 471 475 c 128,-1,40
 500 487 500 487 535 487 c 0,41,42
 568 487 568 487 597 475 c 128,-1,43
 626 463 626 463 647.5 442 c 128,-1,44
 669 421 669 421 681.5 392.5 c 128,-1,45
 694 364 694 364 694 331 c 256,46,47
 694 298 694 298 681.5 269.5 c 128,-1,48
 669 241 669 241 647.5 220 c 128,-1,49
 626 199 626 199 597 187 c 128,-1,50
 568 175 568 175 535 175 c 0,51,52
 500 175 500 175 471 187 c 128,-1,53
 442 199 442 199 420 220 c 128,-1,54
 398 241 398 241 386 269.5 c 128,-1,55
 374 298 374 298 374 331 c 256,36,37
40 1457 m 1,56,-1
 1083 1457 l 1,57,-1
 1083 0 l 1,58,-1
 40 0 l 1,59,-1
 40 1457 l 1,56,-1
117 80 m 1,60,-1
 996 80 l 1,61,-1
 996 1377 l 1,62,-1
 117 1377 l 1,63,-1
 117 80 l 1,60,-1
EndSplineSet
EndChar

StartChar: exclam
Encoding: 33 33 4
Width: 752
Flags: W
LayerCount: 2
Fore
SplineSet
524 1457 m 1,0,-1
 524 885 l 2,1,2
 524 793 524 793 513 702.5 c 128,-1,3
 502 612 502 612 484 518 c 1,4,-1
 274 518 l 1,5,6
 256 612 256 612 245 702.5 c 128,-1,7
 234 793 234 793 234 885 c 2,8,-1
 234 1457 l 1,9,-1
 524 1457 l 1,0,-1
200 157 m 256,10,11
 200 193 200 193 213.5 224 c 128,-1,12
 227 255 227 255 250.5 278 c 128,-1,13
 274 301 274 301 306 314.5 c 128,-1,14
 338 328 338 328 376 328 c 0,15,16
 413 328 413 328 445 314.5 c 128,-1,17
 477 301 477 301 501 278 c 128,-1,18
 525 255 525 255 538.5 224 c 128,-1,19
 552 193 552 193 552 157 c 256,20,21
 552 121 552 121 538.5 89.5 c 128,-1,22
 525 58 525 58 501 35 c 128,-1,23
 477 12 477 12 445 -1 c 128,-1,24
 413 -14 413 -14 376 -14 c 0,25,26
 338 -14 338 -14 306 -1 c 128,-1,27
 274 12 274 12 250.5 35 c 128,-1,28
 227 58 227 58 213.5 89.5 c 128,-1,29
 200 121 200 121 200 157 c 256,10,11
EndSplineSet
EndChar

StartChar: quotedbl
Encoding: 34 34 5
Width: 890
Flags: W
LayerCount: 2
Fore
SplineSet
380 1457 m 1,0,-1
 380 1171 l 1,1,-1
 352 1013 l 2,2,3
 343 959 343 959 320 930.5 c 128,-1,4
 297 902 297 902 244 902 c 0,5,6
 199 902 199 902 173.5 930.5 c 128,-1,7
 148 959 148 959 138 1013 c 2,8,-1
 110 1171 l 1,9,-1
 110 1457 l 1,10,-1
 380 1457 l 1,0,-1
780 1457 m 1,11,-1
 780 1171 l 1,12,-1
 752 1013 l 2,13,14
 743 959 743 959 720 930.5 c 128,-1,15
 697 902 697 902 644 902 c 0,16,17
 599 902 599 902 573.5 930.5 c 128,-1,18
 548 959 548 959 538 1013 c 2,19,-1
 510 1171 l 1,20,-1
 510 1457 l 1,21,-1
 780 1457 l 1,11,-1
EndSplineSet
EndChar

StartChar: numbersign
Encoding: 35 35 6
Width: 1160
Flags: W
LayerCount: 2
Fore
SplineSet
862 395 m 1,0,-1
 792 0 l 1,1,-1
 648 0 l 2,2,3
 629 0 629 0 612.5 8 c 128,-1,4
 596 16 596 16 584 29.5 c 128,-1,5
 572 43 572 43 565 61.5 c 128,-1,6
 558 80 558 80 558 101 c 0,7,8
 558 106 558 106 558.5 112 c 128,-1,9
 559 118 559 118 560 123 c 2,10,-1
 608 395 l 1,11,-1
 443 395 l 1,12,-1
 394 108 l 2,13,14
 389 79 389 79 376 58.5 c 128,-1,15
 363 38 363 38 344 25 c 128,-1,16
 325 12 325 12 302.5 6 c 128,-1,17
 280 0 280 0 256 0 c 2,18,-1
 118 0 l 1,19,-1
 188 395 l 1,20,-1
 100 395 l 2,21,22
 62 395 62 395 41 413.5 c 128,-1,23
 20 432 20 432 20 476 c 0,24,25
 20 485 20 485 21 495 c 128,-1,26
 22 505 22 505 24 516 c 2,27,-1
 40 612 l 1,28,-1
 217 612 l 1,29,-1
 259 848 l 1,30,-1
 60 848 l 1,31,-1
 84 974 l 2,32,33
 93 1020 93 1020 123.5 1042 c 128,-1,34
 154 1064 154 1064 220 1064 c 2,35,-1
 288 1064 l 1,36,-1
 340 1357 l 2,37,38
 348 1404 348 1404 385 1430.5 c 128,-1,39
 422 1457 422 1457 470 1457 c 2,40,-1
 612 1457 l 1,41,-1
 542 1064 l 1,42,-1
 708 1064 l 1,43,-1
 778 1457 l 1,44,-1
 916 1457 l 2,45,46
 960 1457 960 1457 987.5 1433 c 128,-1,47
 1015 1409 1015 1409 1015 1371 c 0,48,49
 1015 1367 1015 1367 1015 1363.5 c 128,-1,50
 1015 1360 1015 1360 1014 1355 c 2,51,-1
 962 1064 l 1,52,-1
 1156 1064 l 1,53,-1
 1132 938 l 2,54,55
 1123 891 1123 891 1092.5 869.5 c 128,-1,56
 1062 848 1062 848 996 848 c 2,57,-1
 933 848 l 1,58,-1
 891 612 l 1,59,-1
 1000 612 l 2,60,61
 1038 612 1038 612 1059 593.5 c 128,-1,62
 1080 575 1080 575 1080 531 c 0,63,64
 1080 522 1080 522 1079 512 c 128,-1,65
 1078 502 1078 502 1076 491 c 2,66,-1
 1060 395 l 1,67,-1
 862 395 l 1,0,-1
471 612 m 1,68,-1
 637 612 l 1,69,-1
 679 848 l 1,70,-1
 513 848 l 1,71,-1
 471 612 l 1,68,-1
EndSplineSet
EndChar

StartChar: dollar
Encoding: 36 36 7
Width: 1160
Flags: W
LayerCount: 2
Fore
SplineSet
430 -5 m 1,0,1
 315 14 315 14 210.5 61.5 c 128,-1,2
 106 109 106 109 34 176 c 1,3,-1
 130 315 l 2,4,5
 142 332 142 332 162.5 343.5 c 128,-1,6
 183 355 183 355 206 355 c 0,7,8
 230 355 230 355 255 342.5 c 128,-1,9
 280 330 280 330 309.5 312 c 128,-1,10
 339 294 339 294 374 275.5 c 128,-1,11
 409 257 409 257 454 245 c 1,12,-1
 491 623 l 1,13,14
 419 643 419 643 348 670 c 128,-1,15
 277 697 277 697 220 743 c 128,-1,16
 163 789 163 789 127.5 860 c 128,-1,17
 92 931 92 931 92 1038 c 0,18,19
 92 1117 92 1117 124 1192 c 128,-1,20
 156 1267 156 1267 217.5 1327 c 128,-1,21
 279 1387 279 1387 369 1425.5 c 128,-1,22
 459 1464 459 1464 575 1470 c 1,23,-1
 586 1581 l 2,24,25
 589 1609 589 1609 611 1631.5 c 128,-1,26
 633 1654 633 1654 668 1654 c 2,27,-1
 782 1654 l 1,28,-1
 762 1457 l 1,29,30
 870 1437 870 1437 948 1392.5 c 128,-1,31
 1026 1348 1026 1348 1080 1297 c 1,32,-1
 1004 1186 l 2,33,34
 987 1161 987 1161 969.5 1149.5 c 128,-1,35
 952 1138 952 1138 928 1138 c 0,36,37
 912 1138 912 1138 892 1145 c 128,-1,38
 872 1152 872 1152 848 1162.5 c 128,-1,39
 824 1173 824 1173 796.5 1185 c 128,-1,40
 769 1197 769 1197 738 1206 c 1,41,-1
 703 851 l 1,42,43
 751 837 751 837 799 820.5 c 128,-1,44
 847 804 847 804 891.5 782.5 c 128,-1,45
 936 761 936 761 974.5 733 c 128,-1,46
 1013 705 1013 705 1041.5 667 c 128,-1,47
 1070 629 1070 629 1086 579.5 c 128,-1,48
 1102 530 1102 530 1102 467 c 0,49,50
 1102 372 1102 372 1070 288.5 c 128,-1,51
 1038 205 1038 205 976 141 c 128,-1,52
 914 77 914 77 824 36.5 c 128,-1,53
 734 -4 734 -4 618 -13 c 1,54,-1
 606 -138 l 2,55,56
 603 -166 603 -166 581 -188.5 c 128,-1,57
 559 -211 559 -211 524 -211 c 2,58,-1
 410 -211 l 1,59,-1
 430 -5 l 1,0,1
808 421 m 0,60,61
 808 478 808 478 771.5 512 c 128,-1,62
 735 546 735 546 675 569 c 1,63,-1
 643 239 l 1,64,65
 808 268 808 268 808 421 c 0,60,61
384 1068 m 0,66,67
 384 1009 384 1009 421.5 972.5 c 128,-1,68
 459 936 459 936 520 911 c 1,69,-1
 550 1213 l 1,70,71
 504 1206 504 1206 472.5 1192.5 c 128,-1,72
 441 1179 441 1179 421.5 1160 c 128,-1,73
 402 1141 402 1141 393 1117.5 c 128,-1,74
 384 1094 384 1094 384 1068 c 0,66,67
EndSplineSet
EndChar

StartChar: percent
Encoding: 37 37 8
Width: 1636
Flags: W
LayerCount: 2
Fore
SplineSet
748 1104 m 0,0,1
 748 1024 748 1024 719 958 c 128,-1,2
 690 892 690 892 642 844.5 c 128,-1,3
 594 797 594 797 530.5 771 c 128,-1,4
 467 745 467 745 398 745 c 0,5,6
 322 745 322 745 258.5 771 c 128,-1,7
 195 797 195 797 148.5 844.5 c 128,-1,8
 102 892 102 892 76 958 c 128,-1,9
 50 1024 50 1024 50 1104 c 0,10,11
 50 1187 50 1187 76 1254.5 c 128,-1,12
 102 1322 102 1322 148.5 1370 c 128,-1,13
 195 1418 195 1418 258.5 1444.5 c 128,-1,14
 322 1471 322 1471 398 1471 c 256,15,16
 474 1471 474 1471 538.5 1444.5 c 128,-1,17
 603 1418 603 1418 649.5 1370 c 128,-1,18
 696 1322 696 1322 722 1254.5 c 128,-1,19
 748 1187 748 1187 748 1104 c 0,0,1
510 1104 m 0,20,21
 510 1155 510 1155 501.5 1188.5 c 128,-1,22
 493 1222 493 1222 478 1242 c 128,-1,23
 463 1262 463 1262 442.5 1270 c 128,-1,24
 422 1278 422 1278 398 1278 c 256,25,26
 374 1278 374 1278 354 1270 c 128,-1,27
 334 1262 334 1262 320 1242 c 128,-1,28
 306 1222 306 1222 298 1188.5 c 128,-1,29
 290 1155 290 1155 290 1104 c 0,30,31
 290 1056 290 1056 298 1024 c 128,-1,32
 306 992 306 992 320 973 c 128,-1,33
 334 954 334 954 354 946 c 128,-1,34
 374 938 374 938 398 938 c 256,35,36
 422 938 422 938 442.5 946 c 128,-1,37
 463 954 463 954 478 973 c 128,-1,38
 493 992 493 992 501.5 1024 c 128,-1,39
 510 1056 510 1056 510 1104 c 0,20,21
1206 1411 m 2,40,41
 1221 1428 1221 1428 1243 1442.5 c 128,-1,42
 1265 1457 1265 1457 1304 1457 c 2,43,-1
 1530 1457 l 1,44,-1
 432 44 l 2,45,46
 417 25 417 25 394.5 12.5 c 128,-1,47
 372 0 372 0 340 0 c 2,48,-1
 108 0 l 1,49,-1
 1206 1411 l 2,40,41
1586 342 m 0,50,51
 1586 262 1586 262 1557 195.5 c 128,-1,52
 1528 129 1528 129 1480 81.5 c 128,-1,53
 1432 34 1432 34 1368.5 8 c 128,-1,54
 1305 -18 1305 -18 1236 -18 c 0,55,56
 1160 -18 1160 -18 1096.5 8 c 128,-1,57
 1033 34 1033 34 986.5 81.5 c 128,-1,58
 940 129 940 129 914 195.5 c 128,-1,59
 888 262 888 262 888 342 c 0,60,61
 888 425 888 425 914 492.5 c 128,-1,62
 940 560 940 560 986.5 608 c 128,-1,63
 1033 656 1033 656 1096.5 682.5 c 128,-1,64
 1160 709 1160 709 1236 709 c 256,65,66
 1312 709 1312 709 1376.5 682.5 c 128,-1,67
 1441 656 1441 656 1487.5 608 c 128,-1,68
 1534 560 1534 560 1560 492.5 c 128,-1,69
 1586 425 1586 425 1586 342 c 0,50,51
1348 342 m 0,70,71
 1348 392 1348 392 1339.5 425.5 c 128,-1,72
 1331 459 1331 459 1316 479 c 128,-1,73
 1301 499 1301 499 1280.5 507 c 128,-1,74
 1260 515 1260 515 1236 515 c 256,75,76
 1212 515 1212 515 1192 507 c 128,-1,77
 1172 499 1172 499 1158 479 c 128,-1,78
 1144 459 1144 459 1136 425.5 c 128,-1,79
 1128 392 1128 392 1128 342 c 0,80,81
 1128 294 1128 294 1136 262 c 128,-1,82
 1144 230 1144 230 1158 211 c 128,-1,83
 1172 192 1172 192 1192 184 c 128,-1,84
 1212 176 1212 176 1236 176 c 256,85,86
 1260 176 1260 176 1280.5 184 c 128,-1,87
 1301 192 1301 192 1316 211 c 128,-1,88
 1331 230 1331 230 1339.5 262 c 128,-1,89
 1348 294 1348 294 1348 342 c 0,70,71
EndSplineSet
EndChar

StartChar: ampersand
Encoding: 38 38 9
Width: 1446
Flags: W
LayerCount: 2
Fore
SplineSet
664 1473 m 0,0,1
 761 1473 761 1473 835 1444.5 c 128,-1,2
 909 1416 909 1416 960 1369.5 c 128,-1,3
 1011 1323 1011 1323 1040 1262 c 128,-1,4
 1069 1201 1069 1201 1076 1137 c 1,5,-1
 876 1097 l 2,6,7
 871 1096 871 1096 867.5 1095.5 c 128,-1,8
 864 1095 864 1095 860 1095 c 0,9,10
 818 1095 818 1095 798 1139 c 0,11,12
 775 1191 775 1191 744.5 1218 c 128,-1,13
 714 1245 714 1245 664 1245 c 0,14,15
 629 1245 629 1245 603 1232 c 128,-1,16
 577 1219 577 1219 559.5 1198 c 128,-1,17
 542 1177 542 1177 533 1149 c 128,-1,18
 524 1121 524 1121 524 1091 c 0,19,20
 524 1065 524 1065 528.5 1041 c 128,-1,21
 533 1017 533 1017 543.5 992.5 c 128,-1,22
 554 968 554 968 572.5 942 c 128,-1,23
 591 916 591 916 620 886 c 2,24,-1
 980 506 l 1,25,26
 1007 566 1007 566 1023 631 c 128,-1,27
 1039 696 1039 696 1046 766 c 0,28,29
 1048 794 1048 794 1064.5 810 c 128,-1,30
 1081 826 1081 826 1108 826 c 2,31,-1
 1304 826 l 1,32,33
 1304 680 1304 680 1265 553.5 c 128,-1,34
 1226 427 1226 427 1154 322 c 1,35,-1
 1460 0 l 1,36,-1
 1154 0 l 2,37,38
 1131 0 1131 0 1113 2.5 c 128,-1,39
 1095 5 1095 5 1079.5 11 c 128,-1,40
 1064 17 1064 17 1050 28 c 128,-1,41
 1036 39 1036 39 1020 56 c 2,42,-1
 957 122 l 1,43,44
 862 56 862 56 749.5 20 c 128,-1,45
 637 -16 637 -16 510 -16 c 0,46,47
 423 -16 423 -16 339.5 14 c 128,-1,48
 256 44 256 44 191 99.5 c 128,-1,49
 126 155 126 155 86 234 c 128,-1,50
 46 313 46 313 46 411 c 0,51,52
 46 477 46 477 66.5 536 c 128,-1,53
 87 595 87 595 124 645.5 c 128,-1,54
 161 696 161 696 212.5 737.5 c 128,-1,55
 264 779 264 779 325 810 c 1,56,57
 278 883 278 883 257 953 c 128,-1,58
 236 1023 236 1023 236 1089 c 0,59,60
 236 1167 236 1167 264.5 1236.5 c 128,-1,61
 293 1306 293 1306 347.5 1358.5 c 128,-1,62
 402 1411 402 1411 481.5 1442 c 128,-1,63
 561 1473 561 1473 664 1473 c 0,0,1
362 436 m 0,64,65
 362 388 362 388 376.5 349 c 128,-1,66
 391 310 391 310 418 282 c 128,-1,67
 445 254 445 254 482.5 238.5 c 128,-1,68
 520 223 520 223 566 223 c 0,69,70
 633 223 633 223 690.5 240.5 c 128,-1,71
 748 258 748 258 798 290 c 1,72,-1
 463 645 l 1,73,74
 408 600 408 600 385 547 c 128,-1,75
 362 494 362 494 362 436 c 0,64,65
EndSplineSet
EndChar

StartChar: quotesingle
Encoding: 39 39 10
Width: 490
Flags: W
LayerCount: 2
Fore
SplineSet
380 1457 m 1,0,-1
 380 1171 l 1,1,-1
 352 1013 l 2,2,3
 343 959 343 959 320 930.5 c 128,-1,4
 297 902 297 902 244 902 c 0,5,6
 199 902 199 902 173.5 930.5 c 128,-1,7
 148 959 148 959 138 1013 c 2,8,-1
 110 1171 l 1,9,-1
 110 1457 l 1,10,-1
 380 1457 l 1,0,-1
EndSplineSet
EndChar

StartChar: parenleft
Encoding: 40 40 11
Width: 600
Flags: W
LayerCount: 2
Fore
SplineSet
348 626 m 256,0,1
 348 527 348 527 359.5 427 c 128,-1,2
 371 327 371 327 393.5 230 c 128,-1,3
 416 133 416 133 448.5 41 c 128,-1,4
 481 -51 481 -51 522 -135 c 0,5,6
 536 -164 536 -164 536 -188 c 256,7,8
 536 -212 536 -212 523 -227 c 128,-1,9
 510 -242 510 -242 492 -253 c 2,10,-1
 354 -333 l 1,11,12
 281 -221 281 -221 229 -105 c 128,-1,13
 177 11 177 11 144 130.5 c 128,-1,14
 111 250 111 250 95.5 374 c 128,-1,15
 80 498 80 498 80 626 c 256,16,17
 80 754 80 754 95.5 878 c 128,-1,18
 111 1002 111 1002 144 1121.5 c 128,-1,19
 177 1241 177 1241 229 1357 c 128,-1,20
 281 1473 281 1473 354 1586 c 1,21,-1
 492 1506 l 2,22,23
 509 1495 509 1495 522 1480 c 128,-1,24
 535 1465 535 1465 535 1442 c 0,25,26
 535 1431 535 1431 531.5 1418 c 128,-1,27
 528 1405 528 1405 520 1389 c 0,28,29
 478 1306 478 1306 446 1213.5 c 128,-1,30
 414 1121 414 1121 392 1023.5 c 128,-1,31
 370 926 370 926 359 825.5 c 128,-1,32
 348 725 348 725 348 626 c 256,0,1
EndSplineSet
EndChar

StartChar: parenright
Encoding: 41 41 12
Width: 600
Flags: W
LayerCount: 2
Fore
SplineSet
252 626 m 256,0,1
 252 725 252 725 241 825.5 c 128,-1,2
 230 926 230 926 208 1023.5 c 128,-1,3
 186 1121 186 1121 154 1213.5 c 128,-1,4
 122 1306 122 1306 80 1389 c 0,5,6
 72 1405 72 1405 68.5 1418 c 128,-1,7
 65 1431 65 1431 65 1442 c 0,8,9
 65 1465 65 1465 78 1480 c 128,-1,10
 91 1495 91 1495 108 1506 c 2,11,-1
 246 1586 l 1,12,13
 391 1360 391 1360 455.5 1121 c 128,-1,14
 520 882 520 882 520 626 c 0,15,16
 520 369 520 369 455.5 130.5 c 128,-1,17
 391 -108 391 -108 246 -333 c 1,18,-1
 108 -253 l 2,19,20
 90 -242 90 -242 77 -227 c 128,-1,21
 64 -212 64 -212 64 -188 c 256,22,23
 64 -164 64 -164 78 -135 c 0,24,25
 119 -51 119 -51 151.5 41 c 128,-1,26
 184 133 184 133 206.5 230 c 128,-1,27
 229 327 229 327 240.5 427 c 128,-1,28
 252 527 252 527 252 626 c 256,0,1
EndSplineSet
EndChar

StartChar: asterisk
Encoding: 42 42 13
Width: 800
Flags: W
LayerCount: 2
Fore
SplineSet
326 815 m 1,0,-1
 326 988 l 2,1,2
 326 1008 326 1008 328.5 1028.5 c 128,-1,3
 331 1049 331 1049 337 1066 c 1,4,5
 324 1052 324 1052 308 1041 c 128,-1,6
 292 1030 292 1030 274 1019 c 2,7,-1
 128 934 l 1,8,-1
 56 1053 l 1,9,-1
 202 1138 l 2,10,11
 221 1149 221 1149 240 1157 c 128,-1,12
 259 1165 259 1165 279 1169 c 1,13,14
 259 1173 259 1173 240 1181.5 c 128,-1,15
 221 1190 221 1190 202 1201 c 2,16,-1
 56 1288 l 1,17,-1
 128 1408 l 1,18,-1
 274 1320 l 2,19,20
 292 1309 292 1309 308.5 1297.5 c 128,-1,21
 325 1286 325 1286 338 1272 c 1,22,23
 326 1306 326 1306 326 1349 c 2,24,-1
 326 1524 l 1,25,-1
 472 1524 l 1,26,-1
 472 1351 l 2,27,28
 472 1330 472 1330 469.5 1310 c 128,-1,29
 467 1290 467 1290 461 1272 c 1,30,31
 474 1286 474 1286 490 1297.5 c 128,-1,32
 506 1309 506 1309 524 1320 c 2,33,-1
 670 1406 l 1,34,-1
 742 1286 l 1,35,-1
 596 1201 l 2,36,37
 576 1190 576 1190 557 1182 c 128,-1,38
 538 1174 538 1174 518 1170 c 1,39,40
 538 1166 538 1166 557.5 1157.5 c 128,-1,41
 577 1149 577 1149 596 1138 c 2,42,-1
 742 1051 l 1,43,-1
 670 932 l 1,44,-1
 524 1019 l 2,45,46
 505 1030 505 1030 489 1041.5 c 128,-1,47
 473 1053 473 1053 459 1067 c 1,48,49
 472 1032 472 1032 472 990 c 2,50,-1
 472 815 l 1,51,-1
 326 815 l 1,0,-1
EndSplineSet
EndChar

StartChar: plus
Encoding: 43 43 14
Width: 1160
Flags: W
LayerCount: 2
Fore
SplineSet
704 1179 m 1,0,-1
 704 783 l 1,1,-1
 1074 783 l 1,2,-1
 1074 561 l 1,3,-1
 704 561 l 1,4,-1
 704 163 l 1,5,-1
 452 163 l 1,6,-1
 452 561 l 1,7,-1
 84 561 l 1,8,-1
 84 783 l 1,9,-1
 452 783 l 1,10,-1
 452 1179 l 1,11,-1
 704 1179 l 1,0,-1
EndSplineSet
EndChar

StartChar: comma
Encoding: 44 44 15
Width: 472
Flags: W
LayerCount: 2
Fore
SplineSet
68 176 m 0,0,1
 68 208 68 208 80 235.5 c 128,-1,2
 92 263 92 263 114.5 283.5 c 128,-1,3
 137 304 137 304 167.5 316 c 128,-1,4
 198 328 198 328 236 328 c 0,5,6
 281 328 281 328 314 312.5 c 128,-1,7
 347 297 347 297 369 270.5 c 128,-1,8
 391 244 391 244 401.5 209.5 c 128,-1,9
 412 175 412 175 412 137 c 0,10,11
 412 87 412 87 396 30.5 c 128,-1,12
 380 -26 380 -26 348.5 -83 c 128,-1,13
 317 -140 317 -140 270 -195 c 128,-1,14
 223 -250 223 -250 162 -295 c 1,15,-1
 108 -247 l 2,16,17
 97 -236 97 -236 91.5 -226.5 c 128,-1,18
 86 -217 86 -217 86 -203 c 0,19,20
 86 -193 86 -193 93 -181.5 c 128,-1,21
 100 -170 100 -170 110 -161 c 0,22,23
 122 -149 122 -149 138 -132 c 128,-1,24
 154 -115 154 -115 170 -94 c 128,-1,25
 186 -73 186 -73 199.5 -48 c 128,-1,26
 213 -23 213 -23 220 5 c 1,27,28
 185 8 185 8 157 22 c 128,-1,29
 129 36 129 36 109.5 59 c 128,-1,30
 90 82 90 82 79 111.5 c 128,-1,31
 68 141 68 141 68 176 c 0,0,1
EndSplineSet
EndChar

StartChar: hyphen
Encoding: 45 45 16
Width: 740
Flags: W
LayerCount: 2
Fore
SplineSet
100 733 m 1,0,-1
 640 733 l 1,1,-1
 640 483 l 1,2,-1
 100 483 l 1,3,-1
 100 733 l 1,0,-1
EndSplineSet
EndChar

StartChar: period
Encoding: 46 46 17
Width: 472
Flags: W
LayerCount: 2
Fore
SplineSet
60 157 m 256,0,1
 60 193 60 193 73.5 224 c 128,-1,2
 87 255 87 255 110.5 278 c 128,-1,3
 134 301 134 301 166 314.5 c 128,-1,4
 198 328 198 328 236 328 c 0,5,6
 273 328 273 328 305 314.5 c 128,-1,7
 337 301 337 301 361 278 c 128,-1,8
 385 255 385 255 398.5 224 c 128,-1,9
 412 193 412 193 412 157 c 256,10,11
 412 121 412 121 398.5 89.5 c 128,-1,12
 385 58 385 58 361 35 c 128,-1,13
 337 12 337 12 305 -1 c 128,-1,14
 273 -14 273 -14 236 -14 c 0,15,16
 198 -14 198 -14 166 -1 c 128,-1,17
 134 12 134 12 110.5 35 c 128,-1,18
 87 58 87 58 73.5 89.5 c 128,-1,19
 60 121 60 121 60 157 c 256,0,1
EndSplineSet
EndChar

StartChar: slash
Encoding: 47 47 18
Width: 800
Flags: W
LayerCount: 2
Fore
SplineSet
270 12 m 2,0,1
 259 -15 259 -15 241.5 -36 c 128,-1,2
 224 -57 224 -57 202.5 -71 c 128,-1,3
 181 -85 181 -85 156.5 -92 c 128,-1,4
 132 -99 132 -99 108 -99 c 2,5,-1
 -24 -99 l 1,6,-1
 544 1392 l 2,7,8
 564 1443 564 1443 605 1470 c 128,-1,9
 646 1497 646 1497 700 1497 c 2,10,-1
 832 1497 l 1,11,-1
 270 12 l 2,0,1
EndSplineSet
EndChar

StartChar: zero
Encoding: 48 48 19
Width: 1160
Flags: W
LayerCount: 2
Fore
SplineSet
1120 729 m 256,0,1
 1120 538 1120 538 1079 398 c 128,-1,2
 1038 258 1038 258 965.5 166 c 128,-1,3
 893 74 893 74 793.5 29 c 128,-1,4
 694 -16 694 -16 578 -16 c 256,5,6
 462 -16 462 -16 363.5 29 c 128,-1,7
 265 74 265 74 193 166 c 128,-1,8
 121 258 121 258 80.5 398 c 128,-1,9
 40 538 40 538 40 729 c 256,10,11
 40 920 40 920 80.5 1060 c 128,-1,12
 121 1200 121 1200 193 1292 c 128,-1,13
 265 1384 265 1384 363.5 1428.5 c 128,-1,14
 462 1473 462 1473 578 1473 c 256,15,16
 694 1473 694 1473 793.5 1428.5 c 128,-1,17
 893 1384 893 1384 965.5 1292 c 128,-1,18
 1038 1200 1038 1200 1079 1060 c 128,-1,19
 1120 920 1120 920 1120 729 c 256,0,1
800 729 m 0,20,21
 800 880 800 880 781 976.5 c 128,-1,22
 762 1073 762 1073 730.5 1128 c 128,-1,23
 699 1183 699 1183 659 1203.5 c 128,-1,24
 619 1224 619 1224 578 1224 c 256,25,26
 537 1224 537 1224 497.5 1203.5 c 128,-1,27
 458 1183 458 1183 427.5 1128 c 128,-1,28
 397 1073 397 1073 378.5 976.5 c 128,-1,29
 360 880 360 880 360 729 c 0,30,31
 360 577 360 577 378.5 481 c 128,-1,32
 397 385 397 385 427.5 329.5 c 128,-1,33
 458 274 458 274 497.5 253.5 c 128,-1,34
 537 233 537 233 578 233 c 256,35,36
 619 233 619 233 659 253.5 c 128,-1,37
 699 274 699 274 730.5 329.5 c 128,-1,38
 762 385 762 385 781 481 c 128,-1,39
 800 577 800 577 800 729 c 0,20,21
EndSplineSet
EndChar

StartChar: one
Encoding: 49 49 20
Width: 1160
Flags: W
LayerCount: 2
Fore
SplineSet
252 224 m 1,0,-1
 532 224 l 1,1,-1
 532 959 l 2,2,3
 532 1013 532 1013 535 1072 c 1,4,-1
 370 935 l 2,5,6
 354 922 354 922 338 916.5 c 128,-1,7
 322 911 322 911 307 911 c 0,8,9
 281 911 281 911 260.5 922.5 c 128,-1,10
 240 934 240 934 230 947 c 2,11,-1
 132 1077 l 1,12,-1
 586 1458 l 1,13,-1
 842 1458 l 1,14,-1
 842 224 l 1,15,-1
 1082 224 l 1,16,-1
 1082 0 l 1,17,-1
 252 0 l 1,18,-1
 252 224 l 1,0,-1
EndSplineSet
EndChar

StartChar: two
Encoding: 50 50 21
Width: 1160
Flags: W
LayerCount: 2
Fore
SplineSet
602 1473 m 0,0,1
 710 1473 710 1473 796.5 1441.5 c 128,-1,2
 883 1410 883 1410 944 1354 c 128,-1,3
 1005 1298 1005 1298 1037.5 1220.5 c 128,-1,4
 1070 1143 1070 1143 1070 1050 c 0,5,6
 1070 970 1070 970 1047.5 902 c 128,-1,7
 1025 834 1025 834 986 772.5 c 128,-1,8
 947 711 947 711 895.5 653.5 c 128,-1,9
 844 596 844 596 786 537 c 2,10,-1
 501 245 l 1,11,12
 556 261 556 261 609.5 270.5 c 128,-1,13
 663 280 663 280 710 280 c 2,14,-1
 982 280 l 2,15,16
 1032 280 1032 280 1061 252.5 c 128,-1,17
 1090 225 1090 225 1090 180 c 2,18,-1
 1090 0 l 1,19,-1
 66 0 l 1,20,-1
 66 100 l 2,21,22
 66 129 66 129 78 162 c 128,-1,23
 90 195 90 195 120 222 c 2,24,-1
 540 645 l 2,25,26
 594 699 594 699 634 748 c 128,-1,27
 674 797 674 797 700 844.5 c 128,-1,28
 726 892 726 892 739 939.5 c 128,-1,29
 752 987 752 987 752 1040 c 0,30,31
 752 1127 752 1127 710.5 1173.5 c 128,-1,32
 669 1220 669 1220 584 1220 c 0,33,34
 549 1220 549 1220 520 1210 c 128,-1,35
 491 1200 491 1200 468 1183 c 128,-1,36
 445 1166 445 1166 428.5 1143 c 128,-1,37
 412 1120 412 1120 402 1093 c 0,38,39
 386 1048 386 1048 361.5 1028 c 128,-1,40
 337 1008 337 1008 295 1008 c 0,41,42
 285 1008 285 1008 273.5 1009 c 128,-1,43
 262 1010 262 1010 250 1012 c 2,44,-1
 86 1041 l 1,45,46
 102 1150 102 1150 147.5 1231 c 128,-1,47
 193 1312 193 1312 260.5 1366 c 128,-1,48
 328 1420 328 1420 415 1446.5 c 128,-1,49
 502 1473 502 1473 602 1473 c 0,0,1
EndSplineSet
EndChar

StartChar: three
Encoding: 51 51 22
Width: 1160
Flags: W
LayerCount: 2
Fore
SplineSet
630 1473 m 0,0,1
 738 1473 738 1473 822 1442.5 c 128,-1,2
 906 1412 906 1412 964 1360 c 128,-1,3
 1022 1308 1022 1308 1052 1239.5 c 128,-1,4
 1082 1171 1082 1171 1082 1095 c 0,5,6
 1082 1026 1082 1026 1068 973.5 c 128,-1,7
 1054 921 1054 921 1026.5 882.5 c 128,-1,8
 999 844 999 844 958.5 817 c 128,-1,9
 918 790 918 790 866 772 c 1,10,11
 1108 688 1108 688 1108 443 c 0,12,13
 1108 327 1108 327 1066 241 c 128,-1,14
 1024 155 1024 155 953.5 98 c 128,-1,15
 883 41 883 41 790 12.5 c 128,-1,16
 697 -16 697 -16 596 -16 c 0,17,18
 492 -16 492 -16 411 6.5 c 128,-1,19
 330 29 330 29 267 76.5 c 128,-1,20
 204 124 204 124 156.5 198 c 128,-1,21
 109 272 109 272 74 374 c 1,22,-1
 212 430 l 2,23,24
 230 438 230 438 247.5 441 c 128,-1,25
 265 444 265 444 282 444 c 0,26,27
 314 444 314 444 339.5 431.5 c 128,-1,28
 365 419 365 419 378 395 c 0,29,30
 423 312 423 312 473.5 274.5 c 128,-1,31
 524 237 524 237 592 237 c 0,32,33
 644 237 644 237 682.5 254.5 c 128,-1,34
 721 272 721 272 746.5 299.5 c 128,-1,35
 772 327 772 327 785 362 c 128,-1,36
 798 397 798 397 798 433 c 0,37,38
 798 480 798 480 791.5 517.5 c 128,-1,39
 785 555 785 555 755 582 c 128,-1,40
 725 609 725 609 664.5 623.5 c 128,-1,41
 604 638 604 638 496 638 c 1,42,-1
 496 852 l 1,43,44
 587 852 587 852 643 866 c 128,-1,45
 699 880 699 880 729.5 904.5 c 128,-1,46
 760 929 760 929 770 964 c 128,-1,47
 780 999 780 999 780 1041 c 0,48,49
 780 1127 780 1127 738.5 1173.5 c 128,-1,50
 697 1220 697 1220 612 1220 c 0,51,52
 577 1220 577 1220 548 1210 c 128,-1,53
 519 1200 519 1200 496 1183 c 128,-1,54
 473 1166 473 1166 456.5 1143 c 128,-1,55
 440 1120 440 1120 430 1093 c 0,56,57
 414 1048 414 1048 389.5 1028 c 128,-1,58
 365 1008 365 1008 323 1008 c 0,59,60
 313 1008 313 1008 301.5 1009 c 128,-1,61
 290 1010 290 1010 278 1012 c 2,62,-1
 114 1041 l 1,63,64
 130 1150 130 1150 175.5 1231 c 128,-1,65
 221 1312 221 1312 288.5 1366 c 128,-1,66
 356 1420 356 1420 443 1446.5 c 128,-1,67
 530 1473 530 1473 630 1473 c 0,0,1
EndSplineSet
EndChar

StartChar: four
Encoding: 52 52 23
Width: 1160
Flags: W
LayerCount: 2
Fore
SplineSet
976 566 m 1,0,-1
 1126 566 l 1,1,-1
 1126 392 l 2,2,3
 1126 369 1126 369 1110.5 352 c 128,-1,4
 1095 335 1095 335 1066 335 c 2,5,-1
 976 335 l 1,6,-1
 976 0 l 1,7,-1
 706 0 l 1,8,-1
 706 335 l 1,9,-1
 120 335 l 2,10,11
 91 335 91 335 67.5 353 c 128,-1,12
 44 371 44 371 38 398 c 2,13,-1
 6 551 l 1,14,-1
 680 1457 l 1,15,-1
 976 1457 l 1,16,-1
 976 566 l 1,0,-1
706 946 m 2,17,18
 706 981 706 981 708.5 1021.5 c 128,-1,19
 711 1062 711 1062 716 1105 c 1,20,-1
 331 566 l 1,21,-1
 706 566 l 1,22,-1
 706 946 l 2,17,18
EndSplineSet
EndChar

StartChar: five
Encoding: 53 53 24
Width: 1160
Flags: W
LayerCount: 2
Fore
SplineSet
998 1329 m 2,0,1
 998 1297 998 1297 988 1271 c 128,-1,2
 978 1245 978 1245 956.5 1225.5 c 128,-1,3
 935 1206 935 1206 900 1195.5 c 128,-1,4
 865 1185 865 1185 816 1185 c 2,5,-1
 468 1185 l 1,6,-1
 427 944 l 1,7,8
 468 951 468 951 506 954.5 c 128,-1,9
 544 958 544 958 580 958 c 0,10,11
 695 958 695 958 783 923 c 128,-1,12
 871 888 871 888 931 827.5 c 128,-1,13
 991 767 991 767 1021.5 685.5 c 128,-1,14
 1052 604 1052 604 1052 511 c 0,15,16
 1052 394 1052 394 1010.5 297.5 c 128,-1,17
 969 201 969 201 895 131 c 128,-1,18
 821 61 821 61 718.5 22.5 c 128,-1,19
 616 -16 616 -16 494 -16 c 0,20,21
 423 -16 423 -16 358.5 -1 c 128,-1,22
 294 14 294 14 237.5 39.5 c 128,-1,23
 181 65 181 65 133 98.5 c 128,-1,24
 85 132 85 132 46 170 c 1,25,-1
 142 298 l 2,26,27
 157 318 157 318 177 328.5 c 128,-1,28
 197 339 197 339 220 339 c 0,29,30
 250 339 250 339 276.5 322.5 c 128,-1,31
 303 306 303 306 334.5 286.5 c 128,-1,32
 366 267 366 267 408 251 c 128,-1,33
 450 235 450 235 512 235 c 256,34,35
 574 235 574 235 618 255.5 c 128,-1,36
 662 276 662 276 689.5 311.5 c 128,-1,37
 717 347 717 347 729.5 394.5 c 128,-1,38
 742 442 742 442 742 496 c 0,39,40
 742 602 742 602 682 657.5 c 128,-1,41
 622 713 622 713 512 713 c 0,42,43
 414 713 414 713 320 676 c 1,44,-1
 128 728 l 1,45,-1
 252 1457 l 1,46,-1
 998 1457 l 1,47,-1
 998 1329 l 2,0,1
EndSplineSet
EndChar

StartChar: six
Encoding: 54 54 25
Width: 1160
Flags: W
LayerCount: 2
Fore
SplineSet
688 923 m 0,0,1
 767 923 767 923 844 897 c 128,-1,2
 921 871 921 871 982 817 c 128,-1,3
 1043 763 1043 763 1080.5 680.5 c 128,-1,4
 1118 598 1118 598 1118 486 c 0,5,6
 1118 384 1118 384 1080 292.5 c 128,-1,7
 1042 201 1042 201 972.5 132.5 c 128,-1,8
 903 64 903 64 805 24 c 128,-1,9
 707 -16 707 -16 588 -16 c 0,10,11
 466 -16 466 -16 369 22.5 c 128,-1,12
 272 61 272 61 204.5 130 c 128,-1,13
 137 199 137 199 101.5 295 c 128,-1,14
 66 391 66 391 66 506 c 0,15,16
 66 615 66 615 108 723 c 128,-1,17
 150 831 150 831 232 943 c 2,18,-1
 560 1386 l 2,19,20
 582 1416 582 1416 626 1436.5 c 128,-1,21
 670 1457 670 1457 726 1457 c 2,22,-1
 1002 1457 l 1,23,-1
 570 941 l 2,24,25
 560 930 560 930 550.5 918.5 c 128,-1,26
 541 907 541 907 532 896 c 1,27,28
 567 909 567 909 605.5 916 c 128,-1,29
 644 923 644 923 688 923 c 0,0,1
364 464 m 256,30,31
 364 410 364 410 377 367 c 128,-1,32
 390 324 390 324 417 293 c 128,-1,33
 444 262 444 262 485 245.5 c 128,-1,34
 526 229 526 229 582 229 c 0,35,36
 630 229 630 229 671.5 247 c 128,-1,37
 713 265 713 265 743 296.5 c 128,-1,38
 773 328 773 328 790.5 370.5 c 128,-1,39
 808 413 808 413 808 463 c 0,40,41
 808 519 808 519 791.5 563 c 128,-1,42
 775 607 775 607 745 637 c 128,-1,43
 715 667 715 667 672.5 683 c 128,-1,44
 630 699 630 699 578 699 c 0,45,46
 531 699 531 699 492 682.5 c 128,-1,47
 453 666 453 666 424.5 635 c 128,-1,48
 396 604 396 604 380 561 c 128,-1,49
 364 518 364 518 364 464 c 256,30,31
EndSplineSet
EndChar

StartChar: seven
Encoding: 55 55 26
Width: 1160
Flags: W
LayerCount: 2
Fore
SplineSet
1106 1457 m 1,0,-1
 1106 1327 l 2,1,2
 1106 1272 1106 1272 1094 1238 c 128,-1,3
 1082 1204 1082 1204 1071 1180 c 2,4,-1
 562 102 l 2,5,6
 542 59 542 59 503 29.5 c 128,-1,7
 464 0 464 0 400 0 c 2,8,-1
 174 0 l 1,9,-1
 694 1043 l 2,10,11
 715 1086 715 1086 739.5 1120 c 128,-1,12
 764 1154 764 1154 793 1185 c 1,13,-1
 152 1185 l 2,14,15
 138 1185 138 1185 125.5 1190.5 c 128,-1,16
 113 1196 113 1196 103.5 1205.5 c 128,-1,17
 94 1215 94 1215 88 1227.5 c 128,-1,18
 82 1240 82 1240 82 1253 c 2,19,-1
 82 1457 l 1,20,-1
 1106 1457 l 1,0,-1
EndSplineSet
EndChar

StartChar: eight
Encoding: 56 56 27
Width: 1160
Flags: W
LayerCount: 2
Fore
SplineSet
580 -16 m 256,0,1
 464 -16 464 -16 368 15 c 128,-1,2
 272 46 272 46 203.5 102.5 c 128,-1,3
 135 159 135 159 97.5 239 c 128,-1,4
 60 319 60 319 60 417 c 0,5,6
 60 476 60 476 73.5 528.5 c 128,-1,7
 87 581 87 581 116.5 624.5 c 128,-1,8
 146 668 146 668 192.5 702 c 128,-1,9
 239 736 239 736 305 759 c 1,10,11
 205 804 205 804 156.5 884 c 128,-1,12
 108 964 108 964 108 1076 c 0,13,14
 108 1161 108 1161 143 1233.5 c 128,-1,15
 178 1306 178 1306 241 1359 c 128,-1,16
 304 1412 304 1412 390.5 1442.5 c 128,-1,17
 477 1473 477 1473 580 1473 c 256,18,19
 683 1473 683 1473 769.5 1442.5 c 128,-1,20
 856 1412 856 1412 919 1359 c 128,-1,21
 982 1306 982 1306 1017 1233.5 c 128,-1,22
 1052 1161 1052 1161 1052 1076 c 0,23,24
 1052 964 1052 964 1003 884 c 128,-1,25
 954 804 954 804 855 759 c 1,26,27
 920 736 920 736 966.5 702 c 128,-1,28
 1013 668 1013 668 1042.5 624.5 c 128,-1,29
 1072 581 1072 581 1086 528.5 c 128,-1,30
 1100 476 1100 476 1100 417 c 0,31,32
 1100 319 1100 319 1062.5 239 c 128,-1,33
 1025 159 1025 159 956.5 102.5 c 128,-1,34
 888 46 888 46 792 15 c 128,-1,35
 696 -16 696 -16 580 -16 c 256,0,1
580 218 m 0,36,37
 632 218 632 218 670 234 c 128,-1,38
 708 250 708 250 732.5 277.5 c 128,-1,39
 757 305 757 305 768.5 342.5 c 128,-1,40
 780 380 780 380 780 423 c 0,41,42
 780 470 780 470 770 509 c 128,-1,43
 760 548 760 548 737 575.5 c 128,-1,44
 714 603 714 603 675.5 618.5 c 128,-1,45
 637 634 637 634 580 634 c 256,46,47
 523 634 523 634 484.5 618.5 c 128,-1,48
 446 603 446 603 423 575.5 c 128,-1,49
 400 548 400 548 390 509 c 128,-1,50
 380 470 380 470 380 423 c 0,51,52
 380 380 380 380 391.5 342.5 c 128,-1,53
 403 305 403 305 427.5 277.5 c 128,-1,54
 452 250 452 250 489.5 234 c 128,-1,55
 527 218 527 218 580 218 c 0,36,37
580 870 m 256,56,57
 632 870 632 870 665 887 c 128,-1,58
 698 904 698 904 717 932 c 128,-1,59
 736 960 736 960 743 996 c 128,-1,60
 750 1032 750 1032 750 1070 c 0,61,62
 750 1104 750 1104 741 1136 c 128,-1,63
 732 1168 732 1168 711.5 1192.5 c 128,-1,64
 691 1217 691 1217 658.5 1232 c 128,-1,65
 626 1247 626 1247 580 1247 c 0,66,67
 533 1247 533 1247 501 1232 c 128,-1,68
 469 1217 469 1217 448.5 1192.5 c 128,-1,69
 428 1168 428 1168 419 1136 c 128,-1,70
 410 1104 410 1104 410 1070 c 0,71,72
 410 1032 410 1032 417 996 c 128,-1,73
 424 960 424 960 443 932 c 128,-1,74
 462 904 462 904 495 887 c 128,-1,75
 528 870 528 870 580 870 c 256,56,57
EndSplineSet
EndChar

StartChar: nine
Encoding: 57 57 28
Width: 1160
Flags: W
LayerCount: 2
Fore
SplineSet
512 568 m 0,0,1
 441 568 441 568 370 593.5 c 128,-1,2
 299 619 299 619 241.5 671 c 128,-1,3
 184 723 184 723 148 802 c 128,-1,4
 112 881 112 881 112 989 c 0,5,6
 112 1088 112 1088 148.5 1176 c 128,-1,7
 185 1264 185 1264 252.5 1330 c 128,-1,8
 320 1396 320 1396 414 1434.5 c 128,-1,9
 508 1473 508 1473 624 1473 c 0,10,11
 742 1473 742 1473 835 1437 c 128,-1,12
 928 1401 928 1401 992.5 1336 c 128,-1,13
 1057 1271 1057 1271 1091.5 1181.5 c 128,-1,14
 1126 1092 1126 1092 1126 984 c 0,15,16
 1126 912 1126 912 1114.5 849 c 128,-1,17
 1103 786 1103 786 1082.5 728.5 c 128,-1,18
 1062 671 1062 671 1033 618.5 c 128,-1,19
 1004 566 1004 566 968 515 c 2,20,-1
 654 69 l 2,21,22
 634 40 634 40 591 20 c 128,-1,23
 548 0 548 0 494 0 c 2,24,-1
 208 0 l 1,25,-1
 670 552 l 2,26,27
 684 569 684 569 696.5 584.5 c 128,-1,28
 709 600 709 600 721 616 c 1,29,30
 676 592 676 592 623 580 c 128,-1,31
 570 568 570 568 512 568 c 0,0,1
830 1012 m 0,32,33
 830 1065 830 1065 814.5 1105.5 c 128,-1,34
 799 1146 799 1146 771.5 1173 c 128,-1,35
 744 1200 744 1200 705 1214 c 128,-1,36
 666 1228 666 1228 620 1228 c 0,37,38
 573 1228 573 1228 536.5 1211.5 c 128,-1,39
 500 1195 500 1195 474.5 1166 c 128,-1,40
 449 1137 449 1137 435.5 1097.5 c 128,-1,41
 422 1058 422 1058 422 1012 c 0,42,43
 422 794 422 794 624 794 c 0,44,45
 723 794 723 794 776.5 853.5 c 128,-1,46
 830 913 830 913 830 1012 c 0,32,33
EndSplineSet
EndChar

StartChar: colon
Encoding: 58 58 29
Width: 552
Flags: W
LayerCount: 2
Fore
SplineSet
100 157 m 256,0,1
 100 193 100 193 113.5 224 c 128,-1,2
 127 255 127 255 150.5 278 c 128,-1,3
 174 301 174 301 206 314.5 c 128,-1,4
 238 328 238 328 276 328 c 0,5,6
 313 328 313 328 345 314.5 c 128,-1,7
 377 301 377 301 401 278 c 128,-1,8
 425 255 425 255 438.5 224 c 128,-1,9
 452 193 452 193 452 157 c 256,10,11
 452 121 452 121 438.5 89.5 c 128,-1,12
 425 58 425 58 401 35 c 128,-1,13
 377 12 377 12 345 -1 c 128,-1,14
 313 -14 313 -14 276 -14 c 0,15,16
 238 -14 238 -14 206 -1 c 128,-1,17
 174 12 174 12 150.5 35 c 128,-1,18
 127 58 127 58 113.5 89.5 c 128,-1,19
 100 121 100 121 100 157 c 256,0,1
100 840 m 256,20,21
 100 876 100 876 113.5 907 c 128,-1,22
 127 938 127 938 150.5 961 c 128,-1,23
 174 984 174 984 206 997.5 c 128,-1,24
 238 1011 238 1011 276 1011 c 0,25,26
 313 1011 313 1011 345 997.5 c 128,-1,27
 377 984 377 984 401 961 c 128,-1,28
 425 938 425 938 438.5 907 c 128,-1,29
 452 876 452 876 452 840 c 256,30,31
 452 804 452 804 438.5 772.5 c 128,-1,32
 425 741 425 741 401 718 c 128,-1,33
 377 695 377 695 345 682 c 128,-1,34
 313 669 313 669 276 669 c 0,35,36
 238 669 238 669 206 682 c 128,-1,37
 174 695 174 695 150.5 718 c 128,-1,38
 127 741 127 741 113.5 772.5 c 128,-1,39
 100 804 100 804 100 840 c 256,20,21
EndSplineSet
EndChar

StartChar: semicolon
Encoding: 59 59 30
Width: 552
Flags: W
LayerCount: 2
Fore
SplineSet
108 176 m 0,0,1
 108 208 108 208 120 235.5 c 128,-1,2
 132 263 132 263 154.5 283.5 c 128,-1,3
 177 304 177 304 207.5 316 c 128,-1,4
 238 328 238 328 276 328 c 0,5,6
 321 328 321 328 354 312.5 c 128,-1,7
 387 297 387 297 409 270.5 c 128,-1,8
 431 244 431 244 441.5 209.5 c 128,-1,9
 452 175 452 175 452 137 c 0,10,11
 452 87 452 87 436 30.5 c 128,-1,12
 420 -26 420 -26 388.5 -83 c 128,-1,13
 357 -140 357 -140 310 -195 c 128,-1,14
 263 -250 263 -250 202 -295 c 1,15,-1
 148 -247 l 2,16,17
 137 -236 137 -236 131.5 -226.5 c 128,-1,18
 126 -217 126 -217 126 -203 c 0,19,20
 126 -193 126 -193 133 -181.5 c 128,-1,21
 140 -170 140 -170 150 -161 c 0,22,23
 162 -149 162 -149 178 -132 c 128,-1,24
 194 -115 194 -115 210 -94 c 128,-1,25
 226 -73 226 -73 239.5 -48 c 128,-1,26
 253 -23 253 -23 260 5 c 1,27,28
 225 8 225 8 197 22 c 128,-1,29
 169 36 169 36 149.5 59 c 128,-1,30
 130 82 130 82 119 111.5 c 128,-1,31
 108 141 108 141 108 176 c 0,0,1
100 840 m 256,32,33
 100 876 100 876 113.5 907 c 128,-1,34
 127 938 127 938 150.5 961 c 128,-1,35
 174 984 174 984 206 997.5 c 128,-1,36
 238 1011 238 1011 276 1011 c 0,37,38
 313 1011 313 1011 345 997.5 c 128,-1,39
 377 984 377 984 401 961 c 128,-1,40
 425 938 425 938 438.5 907 c 128,-1,41
 452 876 452 876 452 840 c 256,42,43
 452 804 452 804 438.5 772.5 c 128,-1,44
 425 741 425 741 401 718 c 128,-1,45
 377 695 377 695 345 682 c 128,-1,46
 313 669 313 669 276 669 c 0,47,48
 238 669 238 669 206 682 c 128,-1,49
 174 695 174 695 150.5 718 c 128,-1,50
 127 741 127 741 113.5 772.5 c 128,-1,51
 100 804 100 804 100 840 c 256,32,33
EndSplineSet
EndChar

StartChar: less
Encoding: 60 60 31
Width: 1160
Flags: W
LayerCount: 2
Fore
SplineSet
130 735 m 1,0,-1
 940 1159 l 1,1,-1
 940 944 l 2,2,3
 940 921 940 921 928 901.5 c 128,-1,4
 916 882 916 882 890 868 c 2,5,-1
 606 715 l 2,6,7
 580 701 580 701 551 691.5 c 128,-1,8
 522 682 522 682 490 674 c 1,9,10
 522 666 522 666 551 657.5 c 128,-1,11
 580 649 580 649 606 635 c 2,12,-1
 890 481 l 2,13,14
 916 467 916 467 928 448 c 128,-1,15
 940 429 940 429 940 406 c 2,16,-1
 940 191 l 1,17,-1
 130 614 l 1,18,-1
 130 735 l 1,0,-1
EndSplineSet
EndChar

StartChar: equal
Encoding: 61 61 32
Width: 1160
Flags: W
LayerCount: 2
Fore
SplineSet
124 599 m 1,0,-1
 1034 599 l 1,1,-1
 1034 377 l 1,2,-1
 124 377 l 1,3,-1
 124 599 l 1,0,-1
124 966 m 1,4,-1
 1034 966 l 1,5,-1
 1034 743 l 1,6,-1
 124 743 l 1,7,-1
 124 966 l 1,4,-1
EndSplineSet
EndChar

StartChar: greater
Encoding: 62 62 33
Width: 1160
Flags: W
LayerCount: 2
Fore
SplineSet
1030 614 m 1,0,-1
 220 191 l 1,1,-1
 220 406 l 2,2,3
 220 429 220 429 232 448 c 128,-1,4
 244 467 244 467 270 481 c 2,5,-1
 554 635 l 2,6,7
 579 649 579 649 608.5 657.5 c 128,-1,8
 638 666 638 666 670 674 c 1,9,10
 638 682 638 682 608.5 691.5 c 128,-1,11
 579 701 579 701 554 715 c 2,12,-1
 270 868 l 2,13,14
 244 882 244 882 232 901.5 c 128,-1,15
 220 921 220 921 220 944 c 2,16,-1
 220 1159 l 1,17,-1
 1030 735 l 1,18,-1
 1030 614 l 1,0,-1
EndSplineSet
EndChar

StartChar: question
Encoding: 63 63 34
Width: 882
Flags: W
LayerCount: 2
Fore
SplineSet
38 1324 m 1,0,1
 75 1355 75 1355 118.5 1382 c 128,-1,2
 162 1409 162 1409 212 1429.5 c 128,-1,3
 262 1450 262 1450 319.5 1461.5 c 128,-1,4
 377 1473 377 1473 444 1473 c 0,5,6
 538 1473 538 1473 613.5 1448 c 128,-1,7
 689 1423 689 1423 742 1376.5 c 128,-1,8
 795 1330 795 1330 823.5 1264.5 c 128,-1,9
 852 1199 852 1199 852 1119 c 0,10,11
 852 1042 852 1042 831 987 c 128,-1,12
 810 932 810 932 777.5 891 c 128,-1,13
 745 850 745 850 706.5 820.5 c 128,-1,14
 668 791 668 791 633.5 765 c 128,-1,15
 599 739 599 739 573.5 714 c 128,-1,16
 548 689 548 689 542 658 c 2,17,-1
 514 518 l 1,18,-1
 302 518 l 1,19,-1
 280 679 l 2,20,21
 279 685 279 685 278.5 691 c 128,-1,22
 278 697 278 697 278 703 c 0,23,24
 278 747 278 747 299 780 c 128,-1,25
 320 813 320 813 352 840.5 c 128,-1,26
 384 868 384 868 421 893.5 c 128,-1,27
 458 919 458 919 490 948.5 c 128,-1,28
 522 978 522 978 543 1014.5 c 128,-1,29
 564 1051 564 1051 564 1101 c 0,30,31
 564 1161 564 1161 524.5 1196.5 c 128,-1,32
 485 1232 485 1232 416 1232 c 0,33,34
 363 1232 363 1232 327.5 1221 c 128,-1,35
 292 1210 292 1210 266.5 1196.5 c 128,-1,36
 241 1183 241 1183 222 1172 c 128,-1,37
 203 1161 203 1161 184 1161 c 0,38,39
 141 1161 141 1161 120 1198 c 2,40,-1
 38 1324 l 1,0,1
222 157 m 256,41,42
 222 193 222 193 235.5 224 c 128,-1,43
 249 255 249 255 272.5 278 c 128,-1,44
 296 301 296 301 328 314.5 c 128,-1,45
 360 328 360 328 398 328 c 0,46,47
 435 328 435 328 467 314.5 c 128,-1,48
 499 301 499 301 523 278 c 128,-1,49
 547 255 547 255 560.5 224 c 128,-1,50
 574 193 574 193 574 157 c 256,51,52
 574 121 574 121 560.5 89.5 c 128,-1,53
 547 58 547 58 523 35 c 128,-1,54
 499 12 499 12 467 -1 c 128,-1,55
 435 -14 435 -14 398 -14 c 0,56,57
 360 -14 360 -14 328 -1 c 128,-1,58
 296 12 296 12 272.5 35 c 128,-1,59
 249 58 249 58 235.5 89.5 c 128,-1,60
 222 121 222 121 222 157 c 256,41,42
EndSplineSet
EndChar

StartChar: at
Encoding: 64 64 35
Width: 1646
Flags: W
LayerCount: 2
Fore
SplineSet
1166 182 m 0,0,1
 1134 182 1134 182 1104 188.5 c 128,-1,2
 1074 195 1074 195 1047.5 209.5 c 128,-1,3
 1021 224 1021 224 999.5 247.5 c 128,-1,4
 978 271 978 271 965 305 c 1,5,6
 905 239 905 239 840 211 c 128,-1,7
 775 183 775 183 700 183 c 0,8,9
 635 183 635 183 586 205.5 c 128,-1,10
 537 228 537 228 504 268 c 128,-1,11
 471 308 471 308 454.5 363 c 128,-1,12
 438 418 438 418 438 483 c 0,13,14
 438 540 438 540 452.5 599 c 128,-1,15
 467 658 467 658 496 712.5 c 128,-1,16
 525 767 525 767 569.5 815.5 c 128,-1,17
 614 864 614 864 674 899.5 c 128,-1,18
 734 935 734 935 810.5 956 c 128,-1,19
 887 977 887 977 980 977 c 0,20,21
 1024 977 1024 977 1060 973.5 c 128,-1,22
 1096 970 1096 970 1127 964 c 128,-1,23
 1158 958 1158 958 1185.5 948.5 c 128,-1,24
 1213 939 1213 939 1242 927 c 1,25,-1
 1144 548 l 2,26,27
 1129 489 1129 489 1129 454 c 0,28,29
 1129 404 1129 404 1151.5 385 c 128,-1,30
 1174 366 1174 366 1212 366 c 0,31,32
 1248 366 1248 366 1279.5 391.5 c 128,-1,33
 1311 417 1311 417 1334 462 c 128,-1,34
 1357 507 1357 507 1370.5 568 c 128,-1,35
 1384 629 1384 629 1384 701 c 0,36,37
 1384 825 1384 825 1347 919.5 c 128,-1,38
 1310 1014 1310 1014 1241.5 1078 c 128,-1,39
 1173 1142 1173 1142 1076.5 1175 c 128,-1,40
 980 1208 980 1208 862 1208 c 0,41,42
 733 1208 733 1208 625 1160 c 128,-1,43
 517 1112 517 1112 439 1028.5 c 128,-1,44
 361 945 361 945 317.5 833.5 c 128,-1,45
 274 722 274 722 274 595 c 0,46,47
 274 435 274 435 322.5 314 c 128,-1,48
 371 193 371 193 456.5 112 c 128,-1,49
 542 31 542 31 659.5 -9.5 c 128,-1,50
 777 -50 777 -50 914 -50 c 0,51,52
 993 -50 993 -50 1059.5 -41.5 c 128,-1,53
 1126 -33 1126 -33 1180 -19.5 c 128,-1,54
 1234 -6 1234 -6 1276 11 c 128,-1,55
 1318 28 1318 28 1348 45 c 0,56,57
 1370 57 1370 57 1389 57 c 0,58,59
 1424 57 1424 57 1438 20 c 2,60,-1
 1480 -88 l 1,61,62
 1430 -121 1430 -121 1369.5 -149 c 128,-1,63
 1309 -177 1309 -177 1238.5 -198 c 128,-1,64
 1168 -219 1168 -219 1087 -230.5 c 128,-1,65
 1006 -242 1006 -242 914 -242 c 0,66,67
 726 -242 726 -242 568 -183.5 c 128,-1,68
 410 -125 410 -125 294.5 -16 c 128,-1,69
 179 93 179 93 114.5 248 c 128,-1,70
 50 403 50 403 50 595 c 0,71,72
 50 700 50 700 78 801 c 128,-1,73
 106 902 106 902 158 991 c 128,-1,74
 210 1080 210 1080 283 1155 c 128,-1,75
 356 1230 356 1230 446 1284.5 c 128,-1,76
 536 1339 536 1339 641 1369 c 128,-1,77
 746 1399 746 1399 862 1399 c 0,78,79
 959 1399 959 1399 1051.5 1377 c 128,-1,80
 1144 1355 1144 1355 1226.5 1313 c 128,-1,81
 1309 1271 1309 1271 1378.5 1210 c 128,-1,82
 1448 1149 1448 1149 1498 1071.5 c 128,-1,83
 1548 994 1548 994 1576 900.5 c 128,-1,84
 1604 807 1604 807 1604 701 c 0,85,86
 1604 594 1604 594 1571.5 499.5 c 128,-1,87
 1539 405 1539 405 1480.5 334.5 c 128,-1,88
 1422 264 1422 264 1341.5 223 c 128,-1,89
 1261 182 1261 182 1166 182 c 0,0,1
762 374 m 0,90,91
 784 374 784 374 805.5 381 c 128,-1,92
 827 388 827 388 846 404.5 c 128,-1,93
 865 421 865 421 880.5 448 c 128,-1,94
 896 475 896 475 906 515 c 2,95,-1
 976 788 l 1,96,97
 952 791 952 791 928 791 c 0,98,99
 878 791 878 791 832 767 c 128,-1,100
 786 743 786 743 751.5 702 c 128,-1,101
 717 661 717 661 696.5 606.5 c 128,-1,102
 676 552 676 552 676 491 c 0,103,104
 676 432 676 432 698.5 403 c 128,-1,105
 721 374 721 374 762 374 c 0,90,91
EndSplineSet
EndChar

StartChar: A
Encoding: 65 65 36
Width: 1474
Flags: W
LayerCount: 2
Fore
SplineSet
1476 0 m 1,0,-1
 1214 0 l 2,1,2
 1170 0 1170 0 1141.5 20.5 c 128,-1,3
 1113 41 1113 41 1102 73 c 2,4,-1
 1016 327 l 1,5,-1
 462 327 l 1,6,-1
 376 73 l 2,7,8
 366 45 366 45 337 22.5 c 128,-1,9
 308 0 308 0 266 0 c 2,10,-1
 2 0 l 1,11,-1
 566 1457 l 1,12,-1
 912 1457 l 1,13,-1
 1476 0 l 1,0,-1
540 557 m 1,14,-1
 938 557 l 1,15,-1
 804 956 l 2,16,17
 791 994 791 994 773.5 1045.5 c 128,-1,18
 756 1097 756 1097 739 1157 c 1,19,20
 723 1096 723 1096 706 1044 c 128,-1,21
 689 992 689 992 674 954 c 2,22,-1
 540 557 l 1,14,-1
EndSplineSet
EndChar

StartChar: B
Encoding: 66 66 37
Width: 1312
Flags: W
LayerCount: 2
Fore
SplineSet
120 0 m 1,0,-1
 120 1457 l 1,1,-1
 656 1457 l 2,2,3
 807 1457 807 1457 913 1429 c 128,-1,4
 1019 1401 1019 1401 1086 1350 c 128,-1,5
 1153 1299 1153 1299 1183.5 1226 c 128,-1,6
 1214 1153 1214 1153 1214 1063 c 0,7,8
 1214 1014 1214 1014 1200 968.5 c 128,-1,9
 1186 923 1186 923 1156 883 c 128,-1,10
 1126 843 1126 843 1079 810.5 c 128,-1,11
 1032 778 1032 778 966 754 c 1,12,13
 1110 719 1110 719 1179 640.5 c 128,-1,14
 1248 562 1248 562 1248 439 c 0,15,16
 1248 346 1248 346 1212 266 c 128,-1,17
 1176 186 1176 186 1106.5 126.5 c 128,-1,18
 1037 67 1037 67 935 33.5 c 128,-1,19
 833 0 833 0 702 0 c 2,20,-1
 120 0 l 1,0,-1
458 618 m 1,21,-1
 458 255 l 1,22,-1
 696 255 l 2,23,24
 763 255 763 255 805.5 272 c 128,-1,25
 848 289 848 289 872 316 c 128,-1,26
 896 343 896 343 905 377 c 128,-1,27
 914 411 914 411 914 446 c 0,28,29
 914 486 914 486 903.5 518 c 128,-1,30
 893 550 893 550 867.5 572 c 128,-1,31
 842 594 842 594 800 606 c 128,-1,32
 758 618 758 618 694 618 c 2,33,-1
 458 618 l 1,21,-1
458 844 m 1,34,-1
 634 844 l 2,35,36
 690 844 690 844 735 852 c 128,-1,37
 780 860 780 860 811.5 880 c 128,-1,38
 843 900 843 900 859.5 935 c 128,-1,39
 876 970 876 970 876 1023 c 0,40,41
 876 1075 876 1075 863 1109.5 c 128,-1,42
 850 1144 850 1144 823 1165 c 128,-1,43
 796 1186 796 1186 754.5 1195 c 128,-1,44
 713 1204 713 1204 656 1204 c 2,45,-1
 458 1204 l 1,46,-1
 458 844 l 1,34,-1
EndSplineSet
EndChar

StartChar: C
Encoding: 67 67 38
Width: 1314
Flags: W
LayerCount: 2
Fore
SplineSet
1099 377 m 0,0,1
 1111 377 1111 377 1123 372.5 c 128,-1,2
 1135 368 1135 368 1146 357 c 2,3,-1
 1280 216 l 1,4,5
 1192 101 1192 101 1059.5 42.5 c 128,-1,6
 927 -16 927 -16 746 -16 c 0,7,8
 580 -16 580 -16 448.5 40.5 c 128,-1,9
 317 97 317 97 225.5 196.5 c 128,-1,10
 134 296 134 296 85 432.5 c 128,-1,11
 36 569 36 569 36 729 c 0,12,13
 36 892 36 892 92 1028.5 c 128,-1,14
 148 1165 148 1165 248.5 1264 c 128,-1,15
 349 1363 349 1363 489 1418 c 128,-1,16
 629 1473 629 1473 798 1473 c 0,17,18
 880 1473 880 1473 952.5 1458.5 c 128,-1,19
 1025 1444 1025 1444 1088 1418.5 c 128,-1,20
 1151 1393 1151 1393 1204 1357.5 c 128,-1,21
 1257 1322 1257 1322 1298 1279 c 1,22,-1
 1184 1126 l 2,23,24
 1173 1112 1173 1112 1158 1100.5 c 128,-1,25
 1143 1089 1143 1089 1116 1089 c 0,26,27
 1098 1089 1098 1089 1082 1097 c 128,-1,28
 1066 1105 1066 1105 1048 1116.5 c 128,-1,29
 1030 1128 1030 1128 1008.5 1141.5 c 128,-1,30
 987 1155 987 1155 957.5 1166.5 c 128,-1,31
 928 1178 928 1178 888.5 1186 c 128,-1,32
 849 1194 849 1194 796 1194 c 0,33,34
 704 1194 704 1194 628 1161.5 c 128,-1,35
 552 1129 552 1129 497.5 1068.5 c 128,-1,36
 443 1008 443 1008 412.5 922 c 128,-1,37
 382 836 382 836 382 729 c 0,38,39
 382 617 382 617 412.5 530 c 128,-1,40
 443 443 443 443 495.5 383.5 c 128,-1,41
 548 324 548 324 618 293 c 128,-1,42
 688 262 688 262 768 262 c 0,43,44
 814 262 814 262 852 266.5 c 128,-1,45
 890 271 890 271 922.5 282 c 128,-1,46
 955 293 955 293 984.5 310.5 c 128,-1,47
 1014 328 1014 328 1044 354 c 0,48,49
 1056 364 1056 364 1070 370.5 c 128,-1,50
 1084 377 1084 377 1099 377 c 0,0,1
EndSplineSet
EndChar

StartChar: D
Encoding: 68 68 39
Width: 1484
Flags: W
LayerCount: 2
Fore
SplineSet
1442 729 m 0,0,1
 1442 571 1442 571 1387.5 437.5 c 128,-1,2
 1333 304 1333 304 1234 206.5 c 128,-1,3
 1135 109 1135 109 995.5 54.5 c 128,-1,4
 856 0 856 0 686 0 c 2,5,-1
 120 0 l 1,6,-1
 120 1457 l 1,7,-1
 686 1457 l 2,8,9
 856 1457 856 1457 995.5 1402 c 128,-1,10
 1135 1347 1135 1347 1234 1250 c 128,-1,11
 1333 1153 1333 1153 1387.5 1019.5 c 128,-1,12
 1442 886 1442 886 1442 729 c 0,0,1
1096 729 m 0,13,14
 1096 837 1096 837 1068 924 c 128,-1,15
 1040 1011 1040 1011 987.5 1071.5 c 128,-1,16
 935 1132 935 1132 859 1164.5 c 128,-1,17
 783 1197 783 1197 686 1197 c 2,18,-1
 460 1197 l 1,19,-1
 460 260 l 1,20,-1
 686 260 l 2,21,22
 783 260 783 260 859 292.5 c 128,-1,23
 935 325 935 325 987.5 385.5 c 128,-1,24
 1040 446 1040 446 1068 533 c 128,-1,25
 1096 620 1096 620 1096 729 c 0,13,14
EndSplineSet
EndChar

StartChar: E
Encoding: 69 69 40
Width: 1130
Flags: W
LayerCount: 2
Fore
SplineSet
1058 1457 m 1,0,-1
 1058 1197 l 1,1,-1
 460 1197 l 1,2,-1
 460 857 l 1,3,-1
 918 857 l 1,4,-1
 918 607 l 1,5,-1
 460 607 l 1,6,-1
 460 260 l 1,7,-1
 1058 260 l 1,8,-1
 1058 0 l 1,9,-1
 120 0 l 1,10,-1
 120 1457 l 1,11,-1
 1058 1457 l 1,0,-1
EndSplineSet
EndChar

StartChar: F
Encoding: 70 70 41
Width: 1114
Flags: W
LayerCount: 2
Fore
SplineSet
1058 1457 m 1,0,-1
 1058 1197 l 1,1,-1
 460 1197 l 1,2,-1
 460 828 l 1,3,-1
 958 828 l 1,4,-1
 958 567 l 1,5,-1
 460 567 l 1,6,-1
 460 0 l 1,7,-1
 120 0 l 1,8,-1
 120 1457 l 1,9,-1
 1058 1457 l 1,0,-1
EndSplineSet
EndChar

StartChar: G
Encoding: 71 71 42
Width: 1424
Flags: W
LayerCount: 2
Fore
SplineSet
806 244 m 0,0,1
 876 244 876 244 930 256 c 128,-1,2
 984 268 984 268 1032 288 c 1,3,-1
 1032 509 l 1,4,-1
 888 509 l 2,5,6
 856 509 856 509 838 526 c 128,-1,7
 820 543 820 543 820 569 c 2,8,-1
 820 755 l 1,9,-1
 1338 755 l 1,10,-1
 1338 140 l 1,11,12
 1282 99 1282 99 1221.5 69.5 c 128,-1,13
 1161 40 1161 40 1092.5 21 c 128,-1,14
 1024 2 1024 2 946.5 -7 c 128,-1,15
 869 -16 869 -16 780 -16 c 0,16,17
 620 -16 620 -16 484 40.5 c 128,-1,18
 348 97 348 97 248.5 196.5 c 128,-1,19
 149 296 149 296 92.5 432.5 c 128,-1,20
 36 569 36 569 36 729 c 0,21,22
 36 892 36 892 90 1028.5 c 128,-1,23
 144 1165 144 1165 244.5 1264 c 128,-1,24
 345 1363 345 1363 487.5 1418 c 128,-1,25
 630 1473 630 1473 806 1473 c 0,26,27
 897 1473 897 1473 977 1458 c 128,-1,28
 1057 1443 1057 1443 1124.5 1417 c 128,-1,29
 1192 1391 1192 1391 1248 1355 c 128,-1,30
 1304 1319 1304 1319 1348 1277 c 1,31,-1
 1250 1128 l 2,32,33
 1236 1107 1236 1107 1216.5 1095 c 128,-1,34
 1197 1083 1197 1083 1174 1083 c 0,35,36
 1144 1083 1144 1083 1112 1103 c 0,37,38
 1072 1127 1072 1127 1036.5 1144.5 c 128,-1,39
 1001 1162 1001 1162 964 1173 c 128,-1,40
 927 1184 927 1184 886 1189 c 128,-1,41
 845 1194 845 1194 794 1194 c 0,42,43
 699 1194 699 1194 623 1160.5 c 128,-1,44
 547 1127 547 1127 493.5 1066 c 128,-1,45
 440 1005 440 1005 411 919.5 c 128,-1,46
 382 834 382 834 382 729 c 0,47,48
 382 613 382 613 414 523 c 128,-1,49
 446 433 446 433 502.5 371 c 128,-1,50
 559 309 559 309 636.5 276.5 c 128,-1,51
 714 244 714 244 806 244 c 0,0,1
EndSplineSet
EndChar

StartChar: H
Encoding: 72 72 43
Width: 1512
Flags: W
LayerCount: 2
Fore
SplineSet
1392 0 m 1,0,-1
 1052 0 l 1,1,-1
 1052 616 l 1,2,-1
 460 616 l 1,3,-1
 460 0 l 1,4,-1
 120 0 l 1,5,-1
 120 1457 l 1,6,-1
 460 1457 l 1,7,-1
 460 848 l 1,8,-1
 1052 848 l 1,9,-1
 1052 1457 l 1,10,-1
 1392 1457 l 1,11,-1
 1392 0 l 1,0,-1
EndSplineSet
EndChar

StartChar: I
Encoding: 73 73 44
Width: 640
Flags: W
LayerCount: 2
Fore
SplineSet
490 0 m 1,0,-1
 150 0 l 1,1,-1
 150 1457 l 1,2,-1
 490 1457 l 1,3,-1
 490 0 l 1,0,-1
EndSplineSet
EndChar

StartChar: J
Encoding: 74 74 45
Width: 860
Flags: W
LayerCount: 2
Fore
SplineSet
740 528 m 2,0,1
 740 406 740 406 709.5 306 c 128,-1,2
 679 206 679 206 617.5 134.5 c 128,-1,3
 556 63 556 63 463 23.5 c 128,-1,4
 370 -16 370 -16 244 -16 c 0,5,6
 187 -16 187 -16 131.5 -10 c 128,-1,7
 76 -4 76 -4 16 10 c 1,8,-1
 34 207 l 2,9,10
 36 233 36 233 54.5 249 c 128,-1,11
 73 265 73 265 106 265 c 0,12,13
 123 265 123 265 148 259.5 c 128,-1,14
 173 254 173 254 208 254 c 0,15,16
 257 254 257 254 293.5 267.5 c 128,-1,17
 330 281 330 281 354 312.5 c 128,-1,18
 378 344 378 344 390 395 c 128,-1,19
 402 446 402 446 402 521 c 2,20,-1
 402 1457 l 1,21,-1
 740 1457 l 1,22,-1
 740 528 l 2,0,1
EndSplineSet
EndChar

StartChar: K
Encoding: 75 75 46
Width: 1428
Flags: W
LayerCount: 2
Fore
SplineSet
458 867 m 1,0,-1
 512 867 l 2,1,2
 587 867 587 867 620 914 c 2,3,-1
 948 1390 l 2,4,5
 975 1429 975 1429 1009.5 1443 c 128,-1,6
 1044 1457 1044 1457 1094 1457 c 2,7,-1
 1388 1457 l 1,8,-1
 956 868 l 2,9,10
 933 836 933 836 908 815 c 128,-1,11
 883 794 883 794 857 780 c 1,12,13
 895 766 895 766 926.5 741.5 c 128,-1,14
 958 717 958 717 984 676 c 2,15,-1
 1424 0 l 1,16,-1
 1122 0 l 2,17,18
 1093 0 1093 0 1072.5 4 c 128,-1,19
 1052 8 1052 8 1037 16 c 128,-1,20
 1022 24 1022 24 1011 35.5 c 128,-1,21
 1000 47 1000 47 990 62 c 2,22,-1
 660 569 l 2,23,24
 642 597 642 597 614.5 608.5 c 128,-1,25
 587 620 587 620 540 620 c 2,26,-1
 458 620 l 1,27,-1
 458 0 l 1,28,-1
 120 0 l 1,29,-1
 120 1457 l 1,30,-1
 458 1457 l 1,31,-1
 458 867 l 1,0,-1
EndSplineSet
EndChar

StartChar: L
Encoding: 76 76 47
Width: 1038
Flags: W
LayerCount: 2
Fore
SplineSet
458 270 m 1,0,-1
 998 270 l 1,1,-1
 998 0 l 1,2,-1
 120 0 l 1,3,-1
 120 1457 l 1,4,-1
 458 1457 l 1,5,-1
 458 270 l 1,0,-1
EndSplineSet
EndChar

StartChar: M
Encoding: 77 77 48
Width: 1878
Flags: W
LayerCount: 2
Fore
SplineSet
865 666 m 1,0,1
 885 628 885 628 903.5 587 c 128,-1,2
 922 546 922 546 939 503 c 1,3,4
 956 547 956 547 975 588.5 c 128,-1,5
 994 630 994 630 1014 669 c 2,6,-1
 1388 1405 l 2,7,8
 1398 1424 1398 1424 1408.5 1434.5 c 128,-1,9
 1419 1445 1419 1445 1432 1450 c 128,-1,10
 1445 1455 1445 1455 1461.5 1456 c 128,-1,11
 1478 1457 1478 1457 1500 1457 c 2,12,-1
 1758 1457 l 1,13,-1
 1758 0 l 1,14,-1
 1460 0 l 1,15,-1
 1460 838 l 2,16,17
 1460 899 1460 899 1466 970 c 1,18,-1
 1080 221 l 2,19,20
 1062 186 1062 186 1031.5 168 c 128,-1,21
 1001 150 1001 150 962 150 c 2,22,-1
 916 150 l 2,23,24
 877 150 877 150 846.5 168 c 128,-1,25
 816 186 816 186 798 221 c 2,26,-1
 410 971 l 1,27,28
 414 936 414 936 416 901.5 c 128,-1,29
 418 867 418 867 418 838 c 2,30,-1
 418 0 l 1,31,-1
 120 0 l 1,32,-1
 120 1457 l 1,33,-1
 378 1457 l 2,34,35
 400 1457 400 1457 416.5 1456 c 128,-1,36
 433 1455 433 1455 446 1450 c 128,-1,37
 459 1445 459 1445 469.5 1434.5 c 128,-1,38
 480 1424 480 1424 490 1405 c 2,39,-1
 865 666 l 1,40,-1
 865 666 l 1,0,1
EndSplineSet
EndChar

StartChar: N
Encoding: 78 78 49
Width: 1512
Flags: W
LayerCount: 2
Fore
SplineSet
298 1457 m 1,0,1
 320 1457 320 1457 335 1455 c 128,-1,2
 350 1453 350 1453 362 1447.5 c 128,-1,3
 374 1442 374 1442 385 1432 c 128,-1,4
 396 1422 396 1422 410 1405 c 2,5,-1
 1102 530 l 1,6,7
 1098 572 1098 572 1096 611.5 c 128,-1,8
 1094 651 1094 651 1094 686 c 2,9,-1
 1094 1457 l 1,10,-1
 1392 1457 l 1,11,-1
 1392 0 l 1,12,-1
 1216 0 l 2,13,14
 1177 0 1177 0 1150 12 c 128,-1,15
 1123 24 1123 24 1098 56 c 2,16,-1
 411 924 l 1,17,18
 414 886 414 886 416 849.5 c 128,-1,19
 418 813 418 813 418 781 c 2,20,-1
 418 0 l 1,21,-1
 120 0 l 1,22,-1
 120 1457 l 1,23,-1
 298 1457 l 1,24,-1
 298 1457 l 1,0,1
EndSplineSet
EndChar

StartChar: O
Encoding: 79 79 50
Width: 1600
Flags: W
LayerCount: 2
Fore
SplineSet
1558 729 m 0,0,1
 1558 571 1558 571 1503.5 435 c 128,-1,2
 1449 299 1449 299 1350 198.5 c 128,-1,3
 1251 98 1251 98 1111.5 41 c 128,-1,4
 972 -16 972 -16 802 -16 c 256,5,6
 632 -16 632 -16 492 41 c 128,-1,7
 352 98 352 98 252.5 198.5 c 128,-1,8
 153 299 153 299 98.5 435 c 128,-1,9
 44 571 44 571 44 729 c 256,10,11
 44 887 44 887 98.5 1023 c 128,-1,12
 153 1159 153 1159 252.5 1259 c 128,-1,13
 352 1359 352 1359 492 1416 c 128,-1,14
 632 1473 632 1473 802 1473 c 256,15,16
 972 1473 972 1473 1111.5 1415.5 c 128,-1,17
 1251 1358 1251 1358 1350 1258 c 128,-1,18
 1449 1158 1449 1158 1503.5 1022 c 128,-1,19
 1558 886 1558 886 1558 729 c 0,0,1
1212 729 m 0,20,21
 1212 837 1212 837 1184 923.5 c 128,-1,22
 1156 1010 1156 1010 1103.5 1070 c 128,-1,23
 1051 1130 1051 1130 975 1162 c 128,-1,24
 899 1194 899 1194 802 1194 c 0,25,26
 704 1194 704 1194 627.5 1162 c 128,-1,27
 551 1130 551 1130 498.5 1070 c 128,-1,28
 446 1010 446 1010 418 923.5 c 128,-1,29
 390 837 390 837 390 729 c 0,30,31
 390 620 390 620 418 533.5 c 128,-1,32
 446 447 446 447 498.5 387 c 128,-1,33
 551 327 551 327 627.5 295.5 c 128,-1,34
 704 264 704 264 802 264 c 0,35,36
 899 264 899 264 975 295.5 c 128,-1,37
 1051 327 1051 327 1103.5 387 c 128,-1,38
 1156 447 1156 447 1184 533.5 c 128,-1,39
 1212 620 1212 620 1212 729 c 0,20,21
EndSplineSet
EndChar

StartChar: P
Encoding: 80 80 51
Width: 1276
Flags: W
LayerCount: 2
Fore
SplineSet
458 487 m 1,0,-1
 458 0 l 1,1,-1
 120 0 l 1,2,-1
 120 1457 l 1,3,-1
 634 1457 l 2,4,5
 788 1457 788 1457 898.5 1420.5 c 128,-1,6
 1009 1384 1009 1384 1080.5 1320 c 128,-1,7
 1152 1256 1152 1256 1186 1169 c 128,-1,8
 1220 1082 1220 1082 1220 981 c 0,9,10
 1220 872 1220 872 1185 781 c 128,-1,11
 1150 690 1150 690 1078 625 c 128,-1,12
 1006 560 1006 560 895.5 523.5 c 128,-1,13
 785 487 785 487 634 487 c 2,14,-1
 458 487 l 1,0,-1
458 742 m 1,15,-1
 634 742 l 2,16,17
 766 742 766 742 824 805 c 128,-1,18
 882 868 882 868 882 981 c 0,19,20
 882 1031 882 1031 867 1072 c 128,-1,21
 852 1113 852 1113 821.5 1142.5 c 128,-1,22
 791 1172 791 1172 744.5 1188 c 128,-1,23
 698 1204 698 1204 634 1204 c 2,24,-1
 458 1204 l 1,25,-1
 458 742 l 1,15,-1
EndSplineSet
EndChar

StartChar: Q
Encoding: 81 81 52
Width: 1600
Flags: W
LayerCount: 2
Fore
SplineSet
1558 729 m 0,0,1
 1558 635 1558 635 1538.5 548.5 c 128,-1,2
 1519 462 1519 462 1482.5 386 c 128,-1,3
 1446 310 1446 310 1392.5 245 c 128,-1,4
 1339 180 1339 180 1271 130 c 1,5,-1
 1640 -273 l 1,6,-1
 1362 -273 l 2,7,8
 1302 -273 1302 -273 1253 -258.5 c 128,-1,9
 1204 -244 1204 -244 1166 -200 c 2,10,-1
 985 3 l 1,11,12
 941 -6 941 -6 895.5 -11 c 128,-1,13
 850 -16 850 -16 802 -16 c 0,14,15
 632 -16 632 -16 492 41 c 128,-1,16
 352 98 352 98 252.5 198.5 c 128,-1,17
 153 299 153 299 98.5 435 c 128,-1,18
 44 571 44 571 44 729 c 256,19,20
 44 887 44 887 98.5 1023 c 128,-1,21
 153 1159 153 1159 252.5 1259 c 128,-1,22
 352 1359 352 1359 492 1416 c 128,-1,23
 632 1473 632 1473 802 1473 c 256,24,25
 972 1473 972 1473 1111.5 1415.5 c 128,-1,26
 1251 1358 1251 1358 1350 1258 c 128,-1,27
 1449 1158 1449 1158 1503.5 1022 c 128,-1,28
 1558 886 1558 886 1558 729 c 0,0,1
1212 729 m 0,29,30
 1212 837 1212 837 1184 923.5 c 128,-1,31
 1156 1010 1156 1010 1103.5 1070 c 128,-1,32
 1051 1130 1051 1130 975 1162 c 128,-1,33
 899 1194 899 1194 802 1194 c 0,34,35
 704 1194 704 1194 627.5 1162 c 128,-1,36
 551 1130 551 1130 498.5 1070 c 128,-1,37
 446 1010 446 1010 418 923.5 c 128,-1,38
 390 837 390 837 390 729 c 0,39,40
 390 620 390 620 418 533.5 c 128,-1,41
 446 447 446 447 498.5 387 c 128,-1,42
 551 327 551 327 627.5 295.5 c 128,-1,43
 704 264 704 264 802 264 c 0,44,45
 899 264 899 264 975 295.5 c 128,-1,46
 1051 327 1051 327 1103.5 387 c 128,-1,47
 1156 447 1156 447 1184 533.5 c 128,-1,48
 1212 620 1212 620 1212 729 c 0,29,30
EndSplineSet
EndChar

StartChar: R
Encoding: 82 82 53
Width: 1330
Flags: W
LayerCount: 2
Fore
SplineSet
458 539 m 1,0,-1
 458 0 l 1,1,-1
 120 0 l 1,2,-1
 120 1457 l 1,3,-1
 594 1457 l 2,4,5
 752 1457 752 1457 863.5 1424.5 c 128,-1,6
 975 1392 975 1392 1045.5 1334 c 128,-1,7
 1116 1276 1116 1276 1148 1197 c 128,-1,8
 1180 1118 1180 1118 1180 1025 c 0,9,10
 1180 954 1180 954 1161 891 c 128,-1,11
 1142 828 1142 828 1104.5 774.5 c 128,-1,12
 1067 721 1067 721 1012.5 679 c 128,-1,13
 958 637 958 637 887 610 c 1,14,15
 921 593 921 593 950.5 568 c 128,-1,16
 980 543 980 543 1002 507 c 2,17,-1
 1312 0 l 1,18,-1
 1006 0 l 2,19,20
 921 0 921 0 884 64 c 2,21,-1
 642 487 l 2,22,23
 626 515 626 515 604.5 527 c 128,-1,24
 583 539 583 539 544 539 c 2,25,-1
 458 539 l 1,0,-1
458 772 m 1,26,-1
 594 772 l 2,27,28
 663 772 663 772 711.5 789.5 c 128,-1,29
 760 807 760 807 791 838 c 128,-1,30
 822 869 822 869 836 910.5 c 128,-1,31
 850 952 850 952 850 1000 c 0,32,33
 850 1096 850 1096 787.5 1150 c 128,-1,34
 725 1204 725 1204 594 1204 c 2,35,-1
 458 1204 l 1,36,-1
 458 772 l 1,26,-1
EndSplineSet
EndChar

StartChar: S
Encoding: 83 83 54
Width: 1084
Flags: W
LayerCount: 2
Fore
SplineSet
932 1161 m 2,0,1
 917 1137 917 1137 900.5 1125 c 128,-1,2
 884 1113 884 1113 858 1113 c 0,3,4
 835 1113 835 1113 808.5 1127.5 c 128,-1,5
 782 1142 782 1142 748.5 1160 c 128,-1,6
 715 1178 715 1178 672 1192.5 c 128,-1,7
 629 1207 629 1207 574 1207 c 0,8,9
 479 1207 479 1207 432.5 1166.5 c 128,-1,10
 386 1126 386 1126 386 1057 c 0,11,12
 386 1013 386 1013 414 984 c 128,-1,13
 442 955 442 955 487.5 934 c 128,-1,14
 533 913 533 913 591.5 895.5 c 128,-1,15
 650 878 650 878 711 856.5 c 128,-1,16
 772 835 772 835 830.5 806 c 128,-1,17
 889 777 889 777 934.5 732 c 128,-1,18
 980 687 980 687 1008 622.5 c 128,-1,19
 1036 558 1036 558 1036 467 c 0,20,21
 1036 366 1036 366 1001 278 c 128,-1,22
 966 190 966 190 899.5 124.5 c 128,-1,23
 833 59 833 59 735.5 21.5 c 128,-1,24
 638 -16 638 -16 514 -16 c 0,25,26
 446 -16 446 -16 375.5 -2 c 128,-1,27
 305 12 305 12 239 37.5 c 128,-1,28
 173 63 173 63 115 98 c 128,-1,29
 57 133 57 133 14 176 c 1,30,-1
 114 334 l 2,31,32
 125 352 125 352 145 363 c 128,-1,33
 165 374 165 374 188 374 c 0,34,35
 218 374 218 374 248.5 355 c 128,-1,36
 279 336 279 336 317.5 313 c 128,-1,37
 356 290 356 290 406 271 c 128,-1,38
 456 252 456 252 524 252 c 0,39,40
 616 252 616 252 667 292.5 c 128,-1,41
 718 333 718 333 718 421 c 0,42,43
 718 472 718 472 690 504 c 128,-1,44
 662 536 662 536 616.5 557 c 128,-1,45
 571 578 571 578 513 594 c 128,-1,46
 455 610 455 610 394 629.5 c 128,-1,47
 333 649 333 649 275 677.5 c 128,-1,48
 217 706 217 706 171.5 752.5 c 128,-1,49
 126 799 126 799 98 868.5 c 128,-1,50
 70 938 70 938 70 1040 c 0,51,52
 70 1122 70 1122 103 1200 c 128,-1,53
 136 1278 136 1278 200 1339 c 128,-1,54
 264 1400 264 1400 357 1436.5 c 128,-1,55
 450 1473 450 1473 570 1473 c 0,56,57
 637 1473 637 1473 700.5 1462.5 c 128,-1,58
 764 1452 764 1452 821 1431.5 c 128,-1,59
 878 1411 878 1411 927.5 1382.5 c 128,-1,60
 977 1354 977 1354 1016 1318 c 1,61,-1
 932 1161 l 2,0,1
EndSplineSet
EndChar

StartChar: T
Encoding: 84 84 55
Width: 1198
Flags: W
LayerCount: 2
Fore
SplineSet
1178 1457 m 1,0,-1
 1178 1189 l 1,1,-1
 768 1189 l 1,2,-1
 768 0 l 1,3,-1
 430 0 l 1,4,-1
 430 1189 l 1,5,-1
 20 1189 l 1,6,-1
 20 1457 l 1,7,-1
 1178 1457 l 1,0,-1
EndSplineSet
EndChar

StartChar: U
Encoding: 85 85 56
Width: 1452
Flags: W
LayerCount: 2
Fore
SplineSet
726 267 m 256,0,1
 794 267 794 267 847.5 289.5 c 128,-1,2
 901 312 901 312 938 354 c 128,-1,3
 975 396 975 396 994.5 456.5 c 128,-1,4
 1014 517 1014 517 1014 594 c 2,5,-1
 1014 1457 l 1,6,-1
 1352 1457 l 1,7,-1
 1352 594 l 2,8,9
 1352 460 1352 460 1308.5 348 c 128,-1,10
 1265 236 1265 236 1184 155 c 128,-1,11
 1103 74 1103 74 987 29 c 128,-1,12
 871 -16 871 -16 726 -16 c 0,13,14
 580 -16 580 -16 464 29 c 128,-1,15
 348 74 348 74 267 155 c 128,-1,16
 186 236 186 236 143 348 c 128,-1,17
 100 460 100 460 100 594 c 2,18,-1
 100 1457 l 1,19,-1
 438 1457 l 1,20,-1
 438 595 l 2,21,22
 438 518 438 518 457.5 457.5 c 128,-1,23
 477 397 477 397 514 354.5 c 128,-1,24
 551 312 551 312 604.5 289.5 c 128,-1,25
 658 267 658 267 726 267 c 256,0,1
EndSplineSet
EndChar

StartChar: V
Encoding: 86 86 57
Width: 1474
Flags: W
LayerCount: 2
Fore
SplineSet
0 1457 m 1,0,-1
 272 1457 l 2,1,2
 316 1457 316 1457 344 1437 c 128,-1,3
 372 1417 372 1417 384 1384 c 2,4,-1
 666 604 l 2,5,6
 685 553 685 553 704.5 493 c 128,-1,7
 724 433 724 433 741 367 c 1,8,9
 755 433 755 433 773.5 493 c 128,-1,10
 792 553 792 553 810 604 c 2,11,-1
 1090 1384 l 2,12,13
 1100 1412 1100 1412 1129 1434.5 c 128,-1,14
 1158 1457 1158 1457 1200 1457 c 2,15,-1
 1474 1457 l 1,16,-1
 890 0 l 1,17,-1
 584 0 l 1,18,-1
 0 1457 l 1,0,-1
EndSplineSet
EndChar

StartChar: W
Encoding: 87 87 58
Width: 2142
Flags: W
LayerCount: 2
Fore
SplineSet
10 1457 m 1,0,-1
 294 1457 l 2,1,2
 338 1457 338 1457 367.5 1437 c 128,-1,3
 397 1417 397 1417 406 1384 c 2,4,-1
 606 624 l 2,5,6
 616 587 616 587 626 545 c 128,-1,7
 636 503 636 503 641 457 c 1,8,9
 651 504 651 504 663 545.5 c 128,-1,10
 675 587 675 587 686 624 c 2,11,-1
 922 1384 l 2,12,13
 931 1412 931 1412 960.5 1434.5 c 128,-1,14
 990 1457 990 1457 1032 1457 c 2,15,-1
 1132 1457 l 2,16,17
 1176 1457 1176 1457 1204.5 1437.5 c 128,-1,18
 1233 1418 1233 1418 1244 1384 c 2,19,-1
 1478 624 l 2,20,21
 1489 589 1489 589 1501 549.5 c 128,-1,22
 1513 510 1513 510 1522 465 c 1,23,24
 1530 509 1530 509 1538.5 549 c 128,-1,25
 1547 589 1547 589 1556 624 c 2,26,-1
 1756 1384 l 2,27,28
 1764 1413 1764 1413 1794 1435 c 128,-1,29
 1824 1457 1824 1457 1866 1457 c 2,30,-1
 2132 1457 l 1,31,-1
 1682 0 l 1,32,-1
 1376 0 l 1,33,-1
 1102 903 l 2,34,35
 1095 924 1095 924 1087.5 949 c 128,-1,36
 1080 974 1080 974 1073 1002 c 1,37,38
 1066 974 1066 974 1058.5 949 c 128,-1,39
 1051 924 1051 924 1044 903 c 2,40,-1
 766 0 l 1,41,-1
 460 0 l 1,42,-1
 10 1457 l 1,0,-1
EndSplineSet
EndChar

StartChar: X
Encoding: 88 88 59
Width: 1424
Flags: W
LayerCount: 2
Fore
SplineSet
479 749 m 1,0,-1
 28 1457 l 1,1,-1
 366 1457 l 2,2,3
 399 1457 399 1457 414.5 1448.5 c 128,-1,4
 430 1440 430 1440 442 1420 c 2,5,-1
 732 929 l 1,6,7
 737 942 737 942 743.5 954 c 128,-1,8
 750 966 750 966 758 979 c 2,9,-1
 1012 1415 l 2,10,11
 1037 1457 1037 1457 1080 1457 c 2,12,-1
 1404 1457 l 1,13,-1
 947 764 l 1,14,-1
 1414 0 l 1,15,-1
 1076 0 l 2,16,17
 1043 0 1043 0 1022.5 16 c 128,-1,18
 1002 32 1002 32 990 54 c 2,19,-1
 698 564 l 1,20,21
 690 542 690 542 680 526 c 2,22,-1
 408 54 l 2,23,24
 396 33 396 33 376 16.5 c 128,-1,25
 356 0 356 0 326 0 c 2,26,-1
 10 0 l 1,27,-1
 479 749 l 1,0,-1
EndSplineSet
EndChar

StartChar: Y
Encoding: 89 89 60
Width: 1354
Flags: W
LayerCount: 2
Fore
SplineSet
846 554 m 1,0,-1
 846 0 l 1,1,-1
 508 0 l 1,2,-1
 508 554 l 1,3,-1
 -20 1457 l 1,4,-1
 278 1457 l 2,5,6
 322 1457 322 1457 348 1436.5 c 128,-1,7
 374 1416 374 1416 390 1384 c 2,8,-1
 596 960 l 2,9,10
 621 909 621 909 642 866 c 128,-1,11
 663 823 663 823 679 781 c 1,12,13
 694 824 694 824 715 867 c 128,-1,14
 736 910 736 910 760 960 c 2,15,-1
 964 1384 l 2,16,17
 970 1397 970 1397 980.5 1410 c 128,-1,18
 991 1423 991 1423 1004.5 1433.5 c 128,-1,19
 1018 1444 1018 1444 1035.5 1450.5 c 128,-1,20
 1053 1457 1053 1457 1074 1457 c 2,21,-1
 1374 1457 l 1,22,-1
 846 554 l 1,0,-1
EndSplineSet
EndChar

StartChar: Z
Encoding: 90 90 61
Width: 1220
Flags: W
LayerCount: 2
Fore
SplineSet
1186 1457 m 1,0,-1
 1186 1335 l 2,1,2
 1186 1309 1186 1309 1177.5 1284 c 128,-1,3
 1169 1259 1169 1259 1154 1237 c 2,4,-1
 470 260 l 1,5,-1
 1164 260 l 1,6,-1
 1164 0 l 1,7,-1
 40 0 l 1,8,-1
 40 130 l 2,9,10
 40 153 40 153 48 175.5 c 128,-1,11
 56 198 56 198 70 217 c 2,12,-1
 756 1197 l 1,13,-1
 96 1197 l 1,14,-1
 96 1457 l 1,15,-1
 1186 1457 l 1,0,-1
EndSplineSet
EndChar

StartChar: bracketleft
Encoding: 91 91 62
Width: 600
Flags: W
LayerCount: 2
Fore
SplineSet
90 -324 m 1,0,-1
 90 1557 l 1,1,-1
 538 1557 l 1,2,-1
 538 1439 l 2,3,4
 538 1408 538 1408 515.5 1386 c 128,-1,5
 493 1364 493 1364 458 1364 c 2,6,-1
 348 1364 l 1,7,-1
 348 -131 l 1,8,-1
 458 -131 l 2,9,10
 493 -131 493 -131 515.5 -153 c 128,-1,11
 538 -175 538 -175 538 -205 c 2,12,-1
 538 -324 l 1,13,-1
 90 -324 l 1,0,-1
EndSplineSet
EndChar

StartChar: backslash
Encoding: 92 92 63
Width: 808
Flags: W
LayerCount: 2
Fore
SplineSet
-36 1497 m 1,0,-1
 96 1497 l 2,1,2
 150 1497 150 1497 191 1470 c 128,-1,3
 232 1443 232 1443 252 1392 c 2,4,-1
 820 -99 l 1,5,-1
 688 -99 l 2,6,7
 664 -99 664 -99 639.5 -92 c 128,-1,8
 615 -85 615 -85 593.5 -71 c 128,-1,9
 572 -57 572 -57 554 -36 c 128,-1,10
 536 -15 536 -15 526 12 c 2,11,-1
 -36 1497 l 1,0,-1
EndSplineSet
EndChar

StartChar: bracketright
Encoding: 93 93 64
Width: 600
Flags: W
LayerCount: 2
Fore
SplineSet
62 1557 m 1,0,-1
 510 1557 l 1,1,-1
 510 -324 l 1,2,-1
 62 -324 l 1,3,-1
 62 -205 l 2,4,5
 62 -175 62 -175 84.5 -153 c 128,-1,6
 107 -131 107 -131 142 -131 c 2,7,-1
 252 -131 l 1,8,-1
 252 1364 l 1,9,-1
 142 1364 l 2,10,11
 107 1364 107 1364 84.5 1386 c 128,-1,12
 62 1408 62 1408 62 1439 c 2,13,-1
 62 1557 l 1,0,-1
EndSplineSet
EndChar

StartChar: asciicircum
Encoding: 94 94 65
Width: 1160
Flags: W
LayerCount: 2
Fore
SplineSet
1062 768 m 1,0,-1
 834 768 l 2,1,2
 807 768 807 768 789 781.5 c 128,-1,3
 771 795 771 795 760 816 c 2,4,-1
 636 1053 l 2,5,6
 619 1085 619 1085 604.5 1114 c 128,-1,7
 590 1143 590 1143 579 1172 c 1,8,9
 569 1143 569 1143 556 1114 c 128,-1,10
 543 1085 543 1085 526 1053 c 2,11,-1
 406 816 l 2,12,13
 395 796 395 796 376.5 782 c 128,-1,14
 358 768 358 768 328 768 c 2,15,-1
 88 768 l 1,16,-1
 474 1457 l 1,17,-1
 676 1457 l 1,18,-1
 1062 768 l 1,0,-1
EndSplineSet
EndChar

StartChar: underscore
Encoding: 95 95 66
Width: 788
Flags: W
LayerCount: 2
Fore
SplineSet
788 -108 m 1,0,-1
 788 -302 l 1,1,-1
 0 -302 l 1,2,-1
 0 -108 l 1,3,-1
 788 -108 l 1,0,-1
EndSplineSet
EndChar

StartChar: grave
Encoding: 96 96 67
Width: 660
Flags: W
LayerCount: 2
Fore
SplineSet
252 1473 m 2,0,1
 299 1473 299 1473 322 1457.5 c 128,-1,2
 345 1442 345 1442 362 1413 c 2,3,-1
 498 1168 l 1,4,-1
 322 1168 l 2,5,6
 287 1168 287 1168 266 1177.5 c 128,-1,7
 245 1187 245 1187 222 1210 c 2,8,-1
 -38 1473 l 1,9,-1
 252 1473 l 2,0,1
EndSplineSet
EndChar

StartChar: a
Encoding: 97 97 68
Width: 1078
Flags: W
LayerCount: 2
Fore
SplineSet
836 0 m 2,0,1
 792 0 792 0 769.5 12 c 128,-1,2
 747 24 747 24 732 62 c 2,3,-1
 710 119 l 1,4,5
 671 86 671 86 635 61 c 128,-1,6
 599 36 599 36 560.5 18.5 c 128,-1,7
 522 1 522 1 478.5 -7.5 c 128,-1,8
 435 -16 435 -16 382 -16 c 0,9,10
 311 -16 311 -16 253 2.5 c 128,-1,11
 195 21 195 21 154.5 57 c 128,-1,12
 114 93 114 93 92 146.5 c 128,-1,13
 70 200 70 200 70 270 c 0,14,15
 70 325 70 325 98 383 c 128,-1,16
 126 441 126 441 195 488.5 c 128,-1,17
 264 536 264 536 381 568 c 128,-1,18
 498 600 498 600 676 604 c 1,19,-1
 676 648 l 2,20,21
 676 739 676 739 638.5 779.5 c 128,-1,22
 601 820 601 820 532 820 c 0,23,24
 477 820 477 820 442 808 c 128,-1,25
 407 796 407 796 379.5 781 c 128,-1,26
 352 766 352 766 326 754 c 128,-1,27
 300 742 300 742 264 742 c 0,28,29
 232 742 232 742 209.5 757.5 c 128,-1,30
 187 773 187 773 174 796 c 2,31,-1
 118 893 l 1,32,33
 212 976 212 976 326.5 1016.5 c 128,-1,34
 441 1057 441 1057 572 1057 c 0,35,36
 666 1057 666 1057 741.5 1026.5 c 128,-1,37
 817 996 817 996 869.5 941.5 c 128,-1,38
 922 887 922 887 950 812 c 128,-1,39
 978 737 978 737 978 648 c 2,40,-1
 978 0 l 1,41,-1
 836 0 l 2,0,1
480 189 m 0,42,43
 540 189 540 189 585 210 c 128,-1,44
 630 231 630 231 676 278 c 1,45,-1
 676 422 l 1,46,47
 583 418 583 418 523 406 c 128,-1,48
 463 394 463 394 428 376 c 128,-1,49
 393 358 393 358 379.5 335 c 128,-1,50
 366 312 366 312 366 285 c 0,51,52
 366 232 366 232 395 210.5 c 128,-1,53
 424 189 424 189 480 189 c 0,42,43
EndSplineSet
EndChar

StartChar: b
Encoding: 98 98 69
Width: 1160
Flags: W
LayerCount: 2
Fore
SplineSet
120 0 m 1,0,-1
 120 1497 l 1,1,-1
 430 1497 l 1,2,-1
 430 927 l 1,3,4
 488 984 488 984 561.5 1018.5 c 128,-1,5
 635 1053 635 1053 734 1053 c 0,6,7
 815 1053 815 1053 884 1018 c 128,-1,8
 953 983 953 983 1003 915.5 c 128,-1,9
 1053 848 1053 848 1081.5 750 c 128,-1,10
 1110 652 1110 652 1110 527 c 0,11,12
 1110 410 1110 410 1077.5 311 c 128,-1,13
 1045 212 1045 212 986.5 139 c 128,-1,14
 928 66 928 66 846.5 25 c 128,-1,15
 765 -16 765 -16 666 -16 c 0,16,17
 620 -16 620 -16 583.5 -7 c 128,-1,18
 547 2 547 2 516.5 18.5 c 128,-1,19
 486 35 486 35 460.5 58 c 128,-1,20
 435 81 435 81 411 108 c 1,21,-1
 400 56 l 2,22,23
 393 24 393 24 374.5 12 c 128,-1,24
 356 0 356 0 326 0 c 2,25,-1
 120 0 l 1,0,-1
626 820 m 0,26,27
 592 820 592 820 564.5 813.5 c 128,-1,28
 537 807 537 807 513.5 795 c 128,-1,29
 490 783 490 783 470 764.5 c 128,-1,30
 450 746 450 746 430 722 c 1,31,-1
 430 282 l 1,32,33
 465 243 465 243 506 227.5 c 128,-1,34
 547 212 547 212 592 212 c 0,35,36
 635 212 635 212 671 229 c 128,-1,37
 707 246 707 246 733.5 283.5 c 128,-1,38
 760 321 760 321 775 381 c 128,-1,39
 790 441 790 441 790 527 c 0,40,41
 790 609 790 609 778 665 c 128,-1,42
 766 721 766 721 744.5 755.5 c 128,-1,43
 723 790 723 790 693 805 c 128,-1,44
 663 820 663 820 626 820 c 0,26,27
EndSplineSet
EndChar

StartChar: c
Encoding: 99 99 70
Width: 972
Flags: W
LayerCount: 2
Fore
SplineSet
868 791 m 2,0,1
 854 774 854 774 841 764 c 128,-1,2
 828 754 828 754 804 754 c 0,3,4
 781 754 781 754 762.5 765 c 128,-1,5
 744 776 744 776 721 789.5 c 128,-1,6
 698 803 698 803 667 814 c 128,-1,7
 636 825 636 825 590 825 c 0,8,9
 533 825 533 825 491.5 804 c 128,-1,10
 450 783 450 783 423 744 c 128,-1,11
 396 705 396 705 383 648.5 c 128,-1,12
 370 592 370 592 370 521 c 0,13,14
 370 372 370 372 427.5 292 c 128,-1,15
 485 212 485 212 586 212 c 0,16,17
 640 212 640 212 671.5 225.5 c 128,-1,18
 703 239 703 239 725 255.5 c 128,-1,19
 747 272 747 272 765.5 286 c 128,-1,20
 784 300 784 300 812 300 c 0,21,22
 849 300 849 300 868 273 c 2,23,-1
 958 162 l 1,24,25
 910 107 910 107 857 72.5 c 128,-1,26
 804 38 804 38 748.5 18.5 c 128,-1,27
 693 -1 693 -1 637 -8.5 c 128,-1,28
 581 -16 581 -16 528 -16 c 0,29,30
 433 -16 433 -16 346.5 20 c 128,-1,31
 260 56 260 56 194.5 124.5 c 128,-1,32
 129 193 129 193 90.5 293 c 128,-1,33
 52 393 52 393 52 521 c 0,34,35
 52 633 52 633 85.5 730.5 c 128,-1,36
 119 828 119 828 184.5 899.5 c 128,-1,37
 250 971 250 971 346.5 1012 c 128,-1,38
 443 1053 443 1053 570 1053 c 0,39,40
 692 1053 692 1053 784 1014 c 128,-1,41
 876 975 876 975 950 900 c 1,42,-1
 868 791 l 2,0,1
EndSplineSet
EndChar

StartChar: d
Encoding: 100 100 71
Width: 1160
Flags: W
LayerCount: 2
Fore
SplineSet
848 0 m 2,0,1
 819 0 819 0 799.5 13 c 128,-1,2
 780 26 780 26 772 52 c 2,3,-1
 748 131 l 1,4,5
 717 98 717 98 683 71 c 128,-1,6
 649 44 649 44 609.5 24.5 c 128,-1,7
 570 5 570 5 524.5 -5.5 c 128,-1,8
 479 -16 479 -16 426 -16 c 0,9,10
 345 -16 345 -16 276 20 c 128,-1,11
 207 56 207 56 157 124 c 128,-1,12
 107 192 107 192 78.5 290.5 c 128,-1,13
 50 389 50 389 50 515 c 0,14,15
 50 631 50 631 82 730.5 c 128,-1,16
 114 830 114 830 172.5 902.5 c 128,-1,17
 231 975 231 975 313 1016 c 128,-1,18
 395 1057 395 1057 494 1057 c 0,19,20
 574 1057 574 1057 629.5 1033.5 c 128,-1,21
 685 1010 685 1010 730 972 c 1,22,-1
 730 1497 l 1,23,-1
 1040 1497 l 1,24,-1
 1040 0 l 1,25,-1
 848 0 l 2,0,1
534 222 m 0,26,27
 568 222 568 222 595.5 228.5 c 128,-1,28
 623 235 623 235 646 247 c 128,-1,29
 669 259 669 259 689.5 277 c 128,-1,30
 710 295 710 295 730 319 c 1,31,-1
 730 759 l 1,32,33
 694 798 694 798 653.5 813.5 c 128,-1,34
 613 829 613 829 568 829 c 0,35,36
 525 829 525 829 489 812 c 128,-1,37
 453 795 453 795 426.5 757.5 c 128,-1,38
 400 720 400 720 385 660 c 128,-1,39
 370 600 370 600 370 515 c 0,40,41
 370 433 370 433 382 377 c 128,-1,42
 394 321 394 321 415.5 286.5 c 128,-1,43
 437 252 437 252 467 237 c 128,-1,44
 497 222 497 222 534 222 c 0,26,27
EndSplineSet
EndChar

StartChar: e
Encoding: 101 101 72
Width: 1088
Flags: W
LayerCount: 2
Fore
SplineSet
564 1053 m 0,0,1
 667 1053 667 1053 752.5 1021 c 128,-1,2
 838 989 838 989 899.5 928 c 128,-1,3
 961 867 961 867 995.5 778.5 c 128,-1,4
 1030 690 1030 690 1030 578 c 0,5,6
 1030 543 1030 543 1027 521 c 128,-1,7
 1024 499 1024 499 1016 486 c 128,-1,8
 1008 473 1008 473 994.5 468 c 128,-1,9
 981 463 981 463 960 463 c 2,10,-1
 362 463 l 1,11,12
 377 333 377 333 441 274.5 c 128,-1,13
 505 216 505 216 606 216 c 0,14,15
 660 216 660 216 699 229 c 128,-1,16
 738 242 738 242 768.5 258 c 128,-1,17
 799 274 799 274 824.5 287 c 128,-1,18
 850 300 850 300 878 300 c 0,19,20
 915 300 915 300 934 273 c 2,21,-1
 1024 162 l 1,22,23
 976 107 976 107 920.5 72.5 c 128,-1,24
 865 38 865 38 806.5 18.5 c 128,-1,25
 748 -1 748 -1 689.5 -8.5 c 128,-1,26
 631 -16 631 -16 578 -16 c 0,27,28
 469 -16 469 -16 373.5 19.5 c 128,-1,29
 278 55 278 55 206.5 125 c 128,-1,30
 135 195 135 195 93.5 299 c 128,-1,31
 52 403 52 403 52 541 c 0,32,33
 52 645 52 645 87.5 738 c 128,-1,34
 123 831 123 831 189.5 901 c 128,-1,35
 256 971 256 971 350.5 1012 c 128,-1,36
 445 1053 445 1053 564 1053 c 0,0,1
570 839 m 0,37,38
 481 839 481 839 431 788.5 c 128,-1,39
 381 738 381 738 365 643 c 1,40,-1
 752 643 l 1,41,42
 752 680 752 680 742.5 715 c 128,-1,43
 733 750 733 750 711.5 777.5 c 128,-1,44
 690 805 690 805 655 822 c 128,-1,45
 620 839 620 839 570 839 c 0,37,38
EndSplineSet
EndChar

StartChar: f
Encoding: 102 102 73
Width: 724
Flags: W
LayerCount: 2
Fore
SplineSet
166 0 m 1,0,-1
 166 824 l 1,1,-1
 98 838 l 2,2,3
 63 846 63 846 41.5 863 c 128,-1,4
 20 880 20 880 20 913 c 2,5,-1
 20 1035 l 1,6,-1
 166 1035 l 1,7,-1
 166 1094 l 2,8,9
 166 1183 166 1183 194.5 1255 c 128,-1,10
 223 1327 223 1327 276.5 1378 c 128,-1,11
 330 1429 330 1429 407 1457 c 128,-1,12
 484 1485 484 1485 582 1485 c 0,13,14
 620 1485 620 1485 652.5 1480.5 c 128,-1,15
 685 1476 685 1476 720 1466 c 1,16,-1
 714 1315 l 2,17,18
 713 1299 713 1299 705.5 1288.5 c 128,-1,19
 698 1278 698 1278 687 1271.5 c 128,-1,20
 676 1265 676 1265 662.5 1262 c 128,-1,21
 649 1259 649 1259 636 1259 c 0,22,23
 595 1259 595 1259 563 1251 c 128,-1,24
 531 1243 531 1243 509.5 1222.5 c 128,-1,25
 488 1202 488 1202 477 1168.5 c 128,-1,26
 466 1135 466 1135 466 1084 c 2,27,-1
 466 1035 l 1,28,-1
 710 1035 l 1,29,-1
 710 823 l 1,30,-1
 476 823 l 1,31,-1
 476 0 l 1,32,-1
 166 0 l 1,0,-1
EndSplineSet
EndChar

StartChar: g
Encoding: 103 103 74
Width: 1046
Flags: W
LayerCount: 2
Fore
SplineSet
486 1055 m 0,0,1
 552 1055 552 1055 610.5 1042 c 128,-1,2
 669 1029 669 1029 719 1005 c 1,3,-1
 1032 1005 l 1,4,-1
 1032 892 l 2,5,6
 1032 866 1032 866 1017.5 851 c 128,-1,7
 1003 836 1003 836 968 828 c 2,8,-1
 892 811 l 1,9,10
 906 766 906 766 906 718 c 0,11,12
 906 640 906 640 873.5 578 c 128,-1,13
 841 516 841 516 784.5 472.5 c 128,-1,14
 728 429 728 429 651 405.5 c 128,-1,15
 574 382 574 382 486 382 c 0,16,17
 437 382 437 382 394 388 c 1,18,19
 360 368 360 368 360 342 c 256,20,21
 360 316 360 316 387.5 304.5 c 128,-1,22
 415 293 415 293 460 288.5 c 128,-1,23
 505 284 505 284 563 282.5 c 128,-1,24
 621 281 621 281 681 275.5 c 128,-1,25
 741 270 741 270 799 257 c 128,-1,26
 857 244 857 244 902 215 c 128,-1,27
 947 186 947 186 974.5 137.5 c 128,-1,28
 1002 89 1002 89 1002 14 c 0,29,30
 1002 -56 1002 -56 968 -123 c 128,-1,31
 934 -190 934 -190 868 -242 c 128,-1,32
 802 -294 802 -294 706 -325.5 c 128,-1,33
 610 -357 610 -357 486 -357 c 0,34,35
 364 -357 364 -357 275.5 -334 c 128,-1,36
 187 -311 187 -311 128.5 -273.5 c 128,-1,37
 70 -236 70 -236 42 -187 c 128,-1,38
 14 -138 14 -138 14 -85 c 0,39,40
 14 -16 14 -16 56 31.5 c 128,-1,41
 98 79 98 79 171 106 c 1,42,43
 136 129 136 129 115 165 c 128,-1,44
 94 201 94 201 94 256 c 0,45,46
 94 279 94 279 102 304.5 c 128,-1,47
 110 330 110 330 127 354 c 128,-1,48
 144 378 144 378 170 400 c 128,-1,49
 196 422 196 422 232 439 c 1,50,51
 151 482 151 482 104.5 553 c 128,-1,52
 58 624 58 624 58 718 c 0,53,54
 58 796 58 796 91 858.5 c 128,-1,55
 124 921 124 921 181.5 964.5 c 128,-1,56
 239 1008 239 1008 317 1031.5 c 128,-1,57
 395 1055 395 1055 486 1055 c 0,0,1
716 -38 m 0,58,59
 716 -13 716 -13 700.5 2 c 128,-1,60
 685 17 685 17 658.5 26 c 128,-1,61
 632 35 632 35 596.5 39 c 128,-1,62
 561 43 561 43 520 45 c 128,-1,63
 479 47 479 47 435 48.5 c 128,-1,64
 391 50 391 50 348 55 c 1,65,66
 319 35 319 35 300.5 10.5 c 128,-1,67
 282 -14 282 -14 282 -45 c 0,68,69
 282 -67 282 -67 291.5 -85 c 128,-1,70
 301 -103 301 -103 325 -116 c 128,-1,71
 349 -129 349 -129 389.5 -136.5 c 128,-1,72
 430 -144 430 -144 492 -144 c 0,73,74
 559 -144 559 -144 602 -136 c 128,-1,75
 645 -128 645 -128 670.5 -114 c 128,-1,76
 696 -100 696 -100 706 -80.5 c 128,-1,77
 716 -61 716 -61 716 -38 c 0,58,59
486 573 m 0,78,79
 563 573 563 573 597.5 611.5 c 128,-1,80
 632 650 632 650 632 711 c 0,81,82
 632 774 632 774 597.5 810 c 128,-1,83
 563 846 563 846 486 846 c 256,84,85
 409 846 409 846 374.5 810 c 128,-1,86
 340 774 340 774 340 711 c 0,87,88
 340 681 340 681 348.5 656 c 128,-1,89
 357 631 357 631 375 612.5 c 128,-1,90
 393 594 393 594 420.5 583.5 c 128,-1,91
 448 573 448 573 486 573 c 0,78,79
EndSplineSet
EndChar

StartChar: h
Encoding: 104 104 75
Width: 1160
Flags: W
LayerCount: 2
Fore
SplineSet
120 0 m 1,0,-1
 120 1497 l 1,1,-1
 430 1497 l 1,2,-1
 430 946 l 1,3,4
 486 994 486 994 551.5 1023.5 c 128,-1,5
 617 1053 617 1053 708 1053 c 0,6,7
 793 1053 793 1053 858.5 1023.5 c 128,-1,8
 924 994 924 994 969 941.5 c 128,-1,9
 1014 889 1014 889 1037 816.5 c 128,-1,10
 1060 744 1060 744 1060 659 c 2,11,-1
 1060 0 l 1,12,-1
 750 0 l 1,13,-1
 750 659 l 2,14,15
 750 735 750 735 715 777.5 c 128,-1,16
 680 820 680 820 612 820 c 0,17,18
 561 820 561 820 516 798 c 128,-1,19
 471 776 471 776 430 739 c 1,20,-1
 430 0 l 1,21,-1
 120 0 l 1,0,-1
EndSplineSet
EndChar

StartChar: i
Encoding: 105 105 76
Width: 570
Flags: W
LayerCount: 2
Fore
SplineSet
440 1037 m 1,0,-1
 440 0 l 1,1,-1
 130 0 l 1,2,-1
 130 1037 l 1,3,-1
 440 1037 l 1,0,-1
476 1321 m 0,4,5
 476 1284 476 1284 461 1251.5 c 128,-1,6
 446 1219 446 1219 420 1194.5 c 128,-1,7
 394 1170 394 1170 359.5 1155.5 c 128,-1,8
 325 1141 325 1141 286 1141 c 0,9,10
 248 1141 248 1141 215 1155.5 c 128,-1,11
 182 1170 182 1170 156.5 1194.5 c 128,-1,12
 131 1219 131 1219 116.5 1251.5 c 128,-1,13
 102 1284 102 1284 102 1321 c 0,14,15
 102 1359 102 1359 116.5 1392 c 128,-1,16
 131 1425 131 1425 156.5 1450 c 128,-1,17
 182 1475 182 1475 215 1489 c 128,-1,18
 248 1503 248 1503 286 1503 c 0,19,20
 325 1503 325 1503 359.5 1489 c 128,-1,21
 394 1475 394 1475 420 1450 c 128,-1,22
 446 1425 446 1425 461 1392 c 128,-1,23
 476 1359 476 1359 476 1321 c 0,4,5
EndSplineSet
EndChar

StartChar: j
Encoding: 106 106 77
Width: 566
Flags: W
LayerCount: 2
Fore
SplineSet
440 1037 m 1,0,-1
 440 -2 l 2,1,2
 440 -75 440 -75 421.5 -139.5 c 128,-1,3
 403 -204 403 -204 360.5 -252.5 c 128,-1,4
 318 -301 318 -301 248.5 -329 c 128,-1,5
 179 -357 179 -357 76 -357 c 0,6,7
 38 -357 38 -357 5.5 -352.5 c 128,-1,8
 -27 -348 -27 -348 -62 -339 c 1,9,-1
 -52 -176 l 2,10,11
 -50 -155 -50 -155 -38 -145 c 128,-1,12
 -26 -135 -26 -135 10 -135 c 256,13,14
 46 -135 46 -135 69 -129 c 128,-1,15
 92 -123 92 -123 105.5 -108 c 128,-1,16
 119 -93 119 -93 124.5 -67.5 c 128,-1,17
 130 -42 130 -42 130 -2 c 2,18,-1
 130 1037 l 1,19,-1
 440 1037 l 1,0,-1
476 1321 m 0,20,21
 476 1284 476 1284 461 1251.5 c 128,-1,22
 446 1219 446 1219 420 1194.5 c 128,-1,23
 394 1170 394 1170 359.5 1155.5 c 128,-1,24
 325 1141 325 1141 286 1141 c 0,25,26
 248 1141 248 1141 215 1155.5 c 128,-1,27
 182 1170 182 1170 156.5 1194.5 c 128,-1,28
 131 1219 131 1219 116.5 1251.5 c 128,-1,29
 102 1284 102 1284 102 1321 c 0,30,31
 102 1359 102 1359 116.5 1392 c 128,-1,32
 131 1425 131 1425 156.5 1450 c 128,-1,33
 182 1475 182 1475 215 1489 c 128,-1,34
 248 1503 248 1503 286 1503 c 0,35,36
 325 1503 325 1503 359.5 1489 c 128,-1,37
 394 1475 394 1475 420 1450 c 128,-1,38
 446 1425 446 1425 461 1392 c 128,-1,39
 476 1359 476 1359 476 1321 c 0,20,21
EndSplineSet
EndChar

StartChar: k
Encoding: 107 107 78
Width: 1152
Flags: W
LayerCount: 2
Fore
SplineSet
430 1497 m 1,0,-1
 430 658 l 1,1,-1
 476 658 l 2,2,3
 505 658 505 658 520.5 666 c 128,-1,4
 536 674 536 674 550 695 c 2,5,-1
 746 987 l 2,6,7
 763 1013 763 1013 786.5 1025 c 128,-1,8
 810 1037 810 1037 846 1037 c 2,9,-1
 1130 1037 l 1,10,-1
 862 668 l 2,11,12
 843 642 843 642 820.5 622 c 128,-1,13
 798 602 798 602 772 586 c 1,14,15
 817 552 817 552 850 496 c 2,16,-1
 1142 0 l 1,17,-1
 862 0 l 2,18,19
 827 0 827 0 801.5 11.5 c 128,-1,20
 776 23 776 23 760 52 c 2,21,-1
 564 419 l 2,22,23
 550 444 550 444 535 451.5 c 128,-1,24
 520 459 520 459 490 459 c 2,25,-1
 430 459 l 1,26,-1
 430 0 l 1,27,-1
 120 0 l 1,28,-1
 120 1497 l 1,29,-1
 430 1497 l 1,0,-1
EndSplineSet
EndChar

StartChar: l
Encoding: 108 108 79
Width: 570
Flags: W
LayerCount: 2
Fore
SplineSet
440 1497 m 1,0,-1
 440 0 l 1,1,-1
 130 0 l 1,2,-1
 130 1497 l 1,3,-1
 440 1497 l 1,0,-1
EndSplineSet
EndChar

StartChar: m
Encoding: 109 109 80
Width: 1722
Flags: W
LayerCount: 2
Fore
SplineSet
120 0 m 1,0,-1
 120 1037 l 1,1,-1
 312 1037 l 2,2,3
 341 1037 341 1037 360.5 1024 c 128,-1,4
 380 1011 380 1011 388 985 c 2,5,-1
 405 929 l 1,6,7
 431 956 431 956 459 978.5 c 128,-1,8
 487 1001 487 1001 519.5 1017.5 c 128,-1,9
 552 1034 552 1034 589.5 1043.5 c 128,-1,10
 627 1053 627 1053 672 1053 c 0,11,12
 766 1053 766 1053 827.5 1004.5 c 128,-1,13
 889 956 889 956 921 875 c 1,14,15
 947 923 947 923 984.5 957 c 128,-1,16
 1022 991 1022 991 1065.5 1012 c 128,-1,17
 1109 1033 1109 1033 1157.5 1043 c 128,-1,18
 1206 1053 1206 1053 1254 1053 c 0,19,20
 1343 1053 1343 1053 1412 1026.5 c 128,-1,21
 1481 1000 1481 1000 1527.5 949.5 c 128,-1,22
 1574 899 1574 899 1598 825.5 c 128,-1,23
 1622 752 1622 752 1622 659 c 2,24,-1
 1622 0 l 1,25,-1
 1312 0 l 1,26,-1
 1312 659 l 2,27,28
 1312 820 1312 820 1174 820 c 0,29,30
 1111 820 1111 820 1069.5 778.5 c 128,-1,31
 1028 737 1028 737 1028 659 c 2,32,-1
 1028 0 l 1,33,-1
 718 0 l 1,34,-1
 718 659 l 2,35,36
 718 748 718 748 683 784 c 128,-1,37
 648 820 648 820 580 820 c 0,38,39
 538 820 538 820 500.5 801 c 128,-1,40
 463 782 463 782 430 750 c 1,41,-1
 430 0 l 1,42,-1
 120 0 l 1,0,-1
EndSplineSet
EndChar

StartChar: n
Encoding: 110 110 81
Width: 1160
Flags: W
LayerCount: 2
Fore
SplineSet
120 0 m 1,0,-1
 120 1037 l 1,1,-1
 312 1037 l 2,2,3
 341 1037 341 1037 360.5 1024 c 128,-1,4
 380 1011 380 1011 388 985 c 2,5,-1
 406 925 l 1,6,7
 436 953 436 953 468 977 c 128,-1,8
 500 1001 500 1001 536.5 1017.5 c 128,-1,9
 573 1034 573 1034 615.5 1043.5 c 128,-1,10
 658 1053 658 1053 708 1053 c 0,11,12
 793 1053 793 1053 858.5 1023.5 c 128,-1,13
 924 994 924 994 969 941.5 c 128,-1,14
 1014 889 1014 889 1037 816.5 c 128,-1,15
 1060 744 1060 744 1060 659 c 2,16,-1
 1060 0 l 1,17,-1
 750 0 l 1,18,-1
 750 659 l 2,19,20
 750 735 750 735 715 777.5 c 128,-1,21
 680 820 680 820 612 820 c 0,22,23
 561 820 561 820 516 798 c 128,-1,24
 471 776 471 776 430 739 c 1,25,-1
 430 0 l 1,26,-1
 120 0 l 1,0,-1
EndSplineSet
EndChar

StartChar: o
Encoding: 111 111 82
Width: 1160
Flags: W
LayerCount: 2
Fore
SplineSet
582 1053 m 0,0,1
 700 1053 700 1053 797 1016 c 128,-1,2
 894 979 894 979 963.5 910 c 128,-1,3
 1033 841 1033 841 1071.5 742.5 c 128,-1,4
 1110 644 1110 644 1110 521 c 0,5,6
 1110 397 1110 397 1071.5 297.5 c 128,-1,7
 1033 198 1033 198 963.5 128.5 c 128,-1,8
 894 59 894 59 797 21.5 c 128,-1,9
 700 -16 700 -16 582 -16 c 0,10,11
 463 -16 463 -16 365.5 21.5 c 128,-1,12
 268 59 268 59 197.5 128.5 c 128,-1,13
 127 198 127 198 88.5 297.5 c 128,-1,14
 50 397 50 397 50 521 c 0,15,16
 50 644 50 644 88.5 742.5 c 128,-1,17
 127 841 127 841 197.5 910 c 128,-1,18
 268 979 268 979 365.5 1016 c 128,-1,19
 463 1053 463 1053 582 1053 c 0,0,1
582 214 m 0,20,21
 689 214 689 214 739.5 289.5 c 128,-1,22
 790 365 790 365 790 519 c 256,23,24
 790 673 790 673 739.5 748 c 128,-1,25
 689 823 689 823 582 823 c 0,26,27
 472 823 472 823 421 748 c 128,-1,28
 370 673 370 673 370 519 c 256,29,30
 370 365 370 365 421 289.5 c 128,-1,31
 472 214 472 214 582 214 c 0,20,21
EndSplineSet
EndChar

StartChar: p
Encoding: 112 112 83
Width: 1156
Flags: W
LayerCount: 2
Fore
SplineSet
120 -329 m 1,0,-1
 120 1037 l 1,1,-1
 312 1037 l 2,2,3
 341 1037 341 1037 360.5 1024 c 128,-1,4
 380 1011 380 1011 388 985 c 2,5,-1
 411 909 l 1,6,7
 441 942 441 942 475.5 969 c 128,-1,8
 510 996 510 996 549.5 1015.5 c 128,-1,9
 589 1035 589 1035 634.5 1046 c 128,-1,10
 680 1057 680 1057 734 1057 c 0,11,12
 815 1057 815 1057 884 1021 c 128,-1,13
 953 985 953 985 1003 917 c 128,-1,14
 1053 849 1053 849 1081.5 750.5 c 128,-1,15
 1110 652 1110 652 1110 527 c 0,16,17
 1110 410 1110 410 1077.5 311 c 128,-1,18
 1045 212 1045 212 986.5 139 c 128,-1,19
 928 66 928 66 846.5 25 c 128,-1,20
 765 -16 765 -16 666 -16 c 0,21,22
 585 -16 585 -16 530 7 c 128,-1,23
 475 30 475 30 430 69 c 1,24,-1
 430 -329 l 1,25,-1
 120 -329 l 1,0,-1
626 820 m 0,26,27
 592 820 592 820 564.5 813.5 c 128,-1,28
 537 807 537 807 513.5 795 c 128,-1,29
 490 783 490 783 470 764.5 c 128,-1,30
 450 746 450 746 430 722 c 1,31,-1
 430 282 l 1,32,33
 465 243 465 243 506 227.5 c 128,-1,34
 547 212 547 212 592 212 c 0,35,36
 635 212 635 212 671 229 c 128,-1,37
 707 246 707 246 733.5 283.5 c 128,-1,38
 760 321 760 321 775 381 c 128,-1,39
 790 441 790 441 790 527 c 0,40,41
 790 609 790 609 778 665 c 128,-1,42
 766 721 766 721 744.5 755.5 c 128,-1,43
 723 790 723 790 693 805 c 128,-1,44
 663 820 663 820 626 820 c 0,26,27
EndSplineSet
EndChar

StartChar: q
Encoding: 113 113 84
Width: 1160
Flags: W
LayerCount: 2
Fore
SplineSet
1040 1037 m 1,0,-1
 1040 -329 l 1,1,-1
 730 -329 l 1,2,-1
 730 113 l 1,3,4
 671 55 671 55 598 19.5 c 128,-1,5
 525 -16 525 -16 426 -16 c 0,6,7
 345 -16 345 -16 276 20 c 128,-1,8
 207 56 207 56 157 124 c 128,-1,9
 107 192 107 192 78.5 290.5 c 128,-1,10
 50 389 50 389 50 515 c 0,11,12
 50 631 50 631 82 730.5 c 128,-1,13
 114 830 114 830 172.5 902.5 c 128,-1,14
 231 975 231 975 313 1016 c 128,-1,15
 395 1057 395 1057 494 1057 c 0,16,17
 541 1057 541 1057 579 1049 c 128,-1,18
 617 1041 617 1041 648.5 1026 c 128,-1,19
 680 1011 680 1011 707 990 c 128,-1,20
 734 969 734 969 759 944 c 1,21,-1
 772 985 l 2,22,23
 790 1037 790 1037 848 1037 c 2,24,-1
 1040 1037 l 1,0,-1
534 222 m 0,25,26
 568 222 568 222 595.5 228.5 c 128,-1,27
 623 235 623 235 646 247 c 128,-1,28
 669 259 669 259 689.5 277 c 128,-1,29
 710 295 710 295 730 319 c 1,30,-1
 730 759 l 1,31,32
 694 797 694 797 653.5 813 c 128,-1,33
 613 829 613 829 568 829 c 0,34,35
 525 829 525 829 489 812 c 128,-1,36
 453 795 453 795 426.5 757.5 c 128,-1,37
 400 720 400 720 385 660 c 128,-1,38
 370 600 370 600 370 515 c 0,39,40
 370 433 370 433 382 377 c 128,-1,41
 394 321 394 321 415.5 286.5 c 128,-1,42
 437 252 437 252 467 237 c 128,-1,43
 497 222 497 222 534 222 c 0,25,26
EndSplineSet
EndChar

StartChar: r
Encoding: 114 114 85
Width: 826
Flags: W
LayerCount: 2
Fore
SplineSet
120 0 m 1,0,-1
 120 1037 l 1,1,-1
 304 1037 l 2,2,3
 327 1037 327 1037 342.5 1033 c 128,-1,4
 358 1029 358 1029 368.5 1020.5 c 128,-1,5
 379 1012 379 1012 384.5 998 c 128,-1,6
 390 984 390 984 394 964 c 2,7,-1
 411 867 l 1,8,9
 468 955 468 955 539 1006 c 128,-1,10
 610 1057 610 1057 694 1057 c 0,11,12
 765 1057 765 1057 808 1023 c 1,13,-1
 768 795 l 2,14,15
 764 774 764 774 752 765.5 c 128,-1,16
 740 757 740 757 720 757 c 0,17,18
 703 757 703 757 680 761.5 c 128,-1,19
 657 766 657 766 622 766 c 0,20,21
 500 766 500 766 430 636 c 1,22,-1
 430 0 l 1,23,-1
 120 0 l 1,0,-1
EndSplineSet
EndChar

StartChar: s
Encoding: 115 115 86
Width: 880
Flags: W
LayerCount: 2
Fore
SplineSet
754 810 m 2,0,1
 742 791 742 791 728.5 783 c 128,-1,2
 715 775 715 775 694 775 c 0,3,4
 672 775 672 775 650 784.5 c 128,-1,5
 628 794 628 794 602.5 805 c 128,-1,6
 577 816 577 816 545 825.5 c 128,-1,7
 513 835 513 835 472 835 c 0,8,9
 413 835 413 835 381.5 812.5 c 128,-1,10
 350 790 350 790 350 750 c 0,11,12
 350 721 350 721 370.5 702 c 128,-1,13
 391 683 391 683 425 668.5 c 128,-1,14
 459 654 459 654 502 641 c 128,-1,15
 545 628 545 628 590 612 c 128,-1,16
 635 596 635 596 678 574.5 c 128,-1,17
 721 553 721 553 755 521.5 c 128,-1,18
 789 490 789 490 809.5 445 c 128,-1,19
 830 400 830 400 830 337 c 0,20,21
 830 260 830 260 802 195 c 128,-1,22
 774 130 774 130 718.5 83 c 128,-1,23
 663 36 663 36 581.5 10 c 128,-1,24
 500 -16 500 -16 394 -16 c 0,25,26
 341 -16 341 -16 288 -6 c 128,-1,27
 235 4 235 4 185.5 21 c 128,-1,28
 136 38 136 38 94 61.5 c 128,-1,29
 52 85 52 85 22 112 c 1,30,-1
 94 226 l 2,31,32
 107 246 107 246 125 257.5 c 128,-1,33
 143 269 143 269 172 269 c 0,34,35
 199 269 199 269 220.5 257 c 128,-1,36
 242 245 242 245 267 231 c 128,-1,37
 292 217 292 217 325.5 205 c 128,-1,38
 359 193 359 193 410 193 c 0,39,40
 446 193 446 193 471 200.5 c 128,-1,41
 496 208 496 208 511 221 c 128,-1,42
 526 234 526 234 533 250 c 128,-1,43
 540 266 540 266 540 283 c 0,44,45
 540 314 540 314 519 334 c 128,-1,46
 498 354 498 354 464 368.5 c 128,-1,47
 430 383 430 383 386.5 395.5 c 128,-1,48
 343 408 343 408 298 424 c 128,-1,49
 253 440 253 440 209.5 462.5 c 128,-1,50
 166 485 166 485 132 519.5 c 128,-1,51
 98 554 98 554 77 604 c 128,-1,52
 56 654 56 654 56 725 c 0,53,54
 56 791 56 791 81.5 850.5 c 128,-1,55
 107 910 107 910 158 955 c 128,-1,56
 209 1000 209 1000 286 1026.5 c 128,-1,57
 363 1053 363 1053 466 1053 c 0,58,59
 522 1053 522 1053 574.5 1043 c 128,-1,60
 627 1033 627 1033 673 1015 c 128,-1,61
 719 997 719 997 757 972.5 c 128,-1,62
 795 948 795 948 824 919 c 1,63,-1
 754 810 l 2,0,1
EndSplineSet
EndChar

StartChar: t
Encoding: 116 116 87
Width: 800
Flags: W
LayerCount: 2
Fore
SplineSet
484 -16 m 0,0,1
 410 -16 410 -16 353.5 5.5 c 128,-1,2
 297 27 297 27 258.5 66.5 c 128,-1,3
 220 106 220 106 200 162 c 128,-1,4
 180 218 180 218 180 287 c 2,5,-1
 180 823 l 1,6,-1
 92 823 l 2,7,8
 68 823 68 823 51 838.5 c 128,-1,9
 34 854 34 854 34 884 c 2,10,-1
 34 1005 l 1,11,-1
 199 1037 l 1,12,-1
 260 1290 l 2,13,14
 272 1338 272 1338 328 1338 c 2,15,-1
 490 1338 l 1,16,-1
 490 1035 l 1,17,-1
 742 1035 l 1,18,-1
 742 823 l 1,19,-1
 490 823 l 1,20,-1
 490 308 l 2,21,22
 490 272 490 272 507.5 248.5 c 128,-1,23
 525 225 525 225 558 225 c 0,24,25
 575 225 575 225 586.5 228.5 c 128,-1,26
 598 232 598 232 606.5 236.5 c 128,-1,27
 615 241 615 241 622.5 244.5 c 128,-1,28
 630 248 630 248 640 248 c 0,29,30
 654 248 654 248 662.5 241.5 c 128,-1,31
 671 235 671 235 680 221 c 2,32,-1
 774 74 l 1,33,34
 714 29 714 29 639 6.5 c 128,-1,35
 564 -16 564 -16 484 -16 c 0,0,1
EndSplineSet
EndChar

StartChar: u
Encoding: 117 117 88
Width: 1160
Flags: W
LayerCount: 2
Fore
SplineSet
410 1037 m 1,0,-1
 410 379 l 2,1,2
 410 302 410 302 445 260 c 128,-1,3
 480 218 480 218 548 218 c 0,4,5
 599 218 599 218 643.5 239 c 128,-1,6
 688 260 688 260 730 298 c 1,7,-1
 730 1037 l 1,8,-1
 1040 1037 l 1,9,-1
 1040 0 l 1,10,-1
 848 0 l 2,11,12
 790 0 790 0 772 52 c 2,13,-1
 753 112 l 1,14,15
 723 83 723 83 691 59.5 c 128,-1,16
 659 36 659 36 622.5 19.5 c 128,-1,17
 586 3 586 3 544 -6.5 c 128,-1,18
 502 -16 502 -16 452 -16 c 0,19,20
 367 -16 367 -16 301.5 13.5 c 128,-1,21
 236 43 236 43 191 96 c 128,-1,22
 146 149 146 149 123 221 c 128,-1,23
 100 293 100 293 100 379 c 2,24,-1
 100 1037 l 1,25,-1
 410 1037 l 1,0,-1
EndSplineSet
EndChar

StartChar: v
Encoding: 118 118 89
Width: 1106
Flags: W
LayerCount: 2
Fore
SplineSet
694 0 m 1,0,-1
 412 0 l 1,1,-1
 10 1037 l 1,2,-1
 268 1037 l 2,3,4
 301 1037 301 1037 323.5 1021.5 c 128,-1,5
 346 1006 346 1006 354 983 c 2,6,-1
 498 518 l 2,7,8
 515 461 515 461 530.5 407 c 128,-1,9
 546 353 546 353 557 299 c 1,10,11
 568 353 568 353 584 407 c 128,-1,12
 600 461 600 461 618 518 c 2,13,-1
 768 983 l 2,14,15
 776 1006 776 1006 798 1021.5 c 128,-1,16
 820 1037 820 1037 850 1037 c 2,17,-1
 1096 1037 l 1,18,-1
 694 0 l 1,0,-1
EndSplineSet
EndChar

StartChar: w
Encoding: 119 119 90
Width: 1626
Flags: W
LayerCount: 2
Fore
SplineSet
0 1037 m 1,0,-1
 248 1037 l 2,1,2
 281 1037 281 1037 305 1022 c 128,-1,3
 329 1007 329 1007 334 983 c 2,4,-1
 438 518 l 2,5,6
 450 465 450 465 460 415 c 128,-1,7
 470 365 470 365 478 316 c 1,8,9
 492 365 492 365 507.5 414.5 c 128,-1,10
 523 464 523 464 538 518 c 2,11,-1
 668 984 l 2,12,13
 674 1007 674 1007 697 1022.5 c 128,-1,14
 720 1038 720 1038 750 1038 c 2,15,-1
 888 1038 l 2,16,17
 921 1038 921 1038 944.5 1022.5 c 128,-1,18
 968 1007 968 1007 974 984 c 2,19,-1
 1098 518 l 2,20,21
 1112 465 1112 465 1126.5 415 c 128,-1,22
 1141 365 1141 365 1154 314 c 1,23,24
 1162 364 1162 364 1173.5 413.5 c 128,-1,25
 1185 463 1185 463 1198 518 c 2,26,-1
 1308 983 l 2,27,28
 1313 1007 1313 1007 1336.5 1022 c 128,-1,29
 1360 1037 1360 1037 1390 1037 c 2,30,-1
 1626 1037 l 1,31,-1
 1304 0 l 1,32,-1
 1052 0 l 2,33,34
 1032 0 1032 0 1018 12 c 128,-1,35
 1004 24 1004 24 996 52 c 2,36,-1
 848 569 l 2,37,38
 838 604 838 604 829 638 c 128,-1,39
 820 672 820 672 813 706 c 1,40,41
 806 671 806 671 797.5 636.5 c 128,-1,42
 789 602 789 602 778 567 c 2,43,-1
 628 52 l 2,44,45
 613 0 613 0 562 0 c 2,46,-1
 322 0 l 1,47,-1
 0 1037 l 1,0,-1
EndSplineSet
EndChar

StartChar: x
Encoding: 120 120 91
Width: 1146
Flags: W
LayerCount: 2
Fore
SplineSet
368 536 m 1,0,-1
 34 1037 l 1,1,-1
 332 1037 l 2,2,3
 365 1037 365 1037 380.5 1028.5 c 128,-1,4
 396 1020 396 1020 408 1000 c 2,5,-1
 593 693 l 1,6,7
 599 711 599 711 608 728 c 128,-1,8
 617 745 617 745 628 764 c 2,9,-1
 760 995 l 2,10,11
 773 1018 773 1018 789 1027.5 c 128,-1,12
 805 1037 805 1037 828 1037 c 2,13,-1
 1112 1037 l 1,14,-1
 778 550 l 1,15,-1
 1126 0 l 1,16,-1
 828 0 l 2,17,18
 795 0 795 0 775 16 c 128,-1,19
 755 32 755 32 742 54 c 2,20,-1
 557 372 l 1,21,22
 552 355 552 355 545 340 c 128,-1,23
 538 325 538 325 530 312 c 2,24,-1
 378 54 l 2,25,26
 366 33 366 33 346 16.5 c 128,-1,27
 326 0 326 0 296 0 c 2,28,-1
 20 0 l 1,29,-1
 368 536 l 1,0,-1
EndSplineSet
EndChar

StartChar: y
Encoding: 121 121 92
Width: 1106
Flags: W
LayerCount: 2
Fore
SplineSet
544 -269 m 2,0,1
 530 -300 530 -300 510 -314.5 c 128,-1,2
 490 -329 490 -329 446 -329 c 2,3,-1
 214 -329 l 1,4,-1
 414 91 l 1,5,-1
 0 1037 l 1,6,-1
 274 1037 l 2,7,8
 310 1037 310 1037 330 1021 c 128,-1,9
 350 1005 350 1005 358 983 c 2,10,-1
 528 536 l 2,11,12
 552 474 552 474 567 412 c 1,13,14
 577 444 577 444 589 475 c 128,-1,15
 601 506 601 506 612 538 c 2,16,-1
 766 983 l 2,17,18
 774 1006 774 1006 797.5 1021.5 c 128,-1,19
 821 1037 821 1037 848 1037 c 2,20,-1
 1098 1037 l 1,21,-1
 544 -269 l 2,0,1
EndSplineSet
EndChar

StartChar: z
Encoding: 122 122 93
Width: 954
Flags: W
LayerCount: 2
Fore
SplineSet
894 913 m 2,0,1
 894 881 894 881 882 852 c 128,-1,2
 870 823 870 823 854 802 c 2,3,-1
 421 230 l 1,4,-1
 884 230 l 1,5,-1
 884 0 l 1,6,-1
 64 0 l 1,7,-1
 64 126 l 2,8,9
 64 145 64 145 74.5 173.5 c 128,-1,10
 85 202 85 202 104 228 c 2,11,-1
 541 807 l 1,12,-1
 92 807 l 1,13,-1
 92 1037 l 1,14,-1
 894 1037 l 1,15,-1
 894 913 l 2,0,1
EndSplineSet
EndChar

StartChar: braceleft
Encoding: 123 123 94
Width: 600
Flags: W
LayerCount: 2
Fore
SplineSet
120 397 m 0,0,1
 120 457 120 457 97 493.5 c 128,-1,2
 74 530 74 530 14 530 c 1,3,-1
 14 703 l 1,4,5
 44 703 44 703 64.5 713 c 128,-1,6
 85 723 85 723 97 740.5 c 128,-1,7
 109 758 109 758 114.5 782.5 c 128,-1,8
 120 807 120 807 120 836 c 0,9,10
 120 880 120 880 114.5 925 c 128,-1,11
 109 970 109 970 102 1015 c 128,-1,12
 95 1060 95 1060 89.5 1106 c 128,-1,13
 84 1152 84 1152 84 1198 c 0,14,15
 84 1279 84 1279 107.5 1345.5 c 128,-1,16
 131 1412 131 1412 180.5 1459 c 128,-1,17
 230 1506 230 1506 306 1531.5 c 128,-1,18
 382 1557 382 1557 488 1557 c 2,19,-1
 540 1557 l 1,20,-1
 540 1423 l 2,21,22
 540 1407 540 1407 533 1396 c 128,-1,23
 526 1385 526 1385 516 1378 c 128,-1,24
 506 1371 506 1371 495 1367.5 c 128,-1,25
 484 1364 484 1364 476 1364 c 0,26,27
 413 1364 413 1364 383.5 1325 c 128,-1,28
 354 1286 354 1286 354 1217 c 0,29,30
 354 1162 354 1162 358.5 1113 c 128,-1,31
 363 1064 363 1064 368 1018.5 c 128,-1,32
 373 973 373 973 377.5 929 c 128,-1,33
 382 885 382 885 382 840 c 0,34,35
 382 802 382 802 372 767 c 128,-1,36
 362 732 362 732 341.5 702.5 c 128,-1,37
 321 673 321 673 291 650.5 c 128,-1,38
 261 628 261 628 222 616 c 1,39,40
 261 604 261 604 291 582 c 128,-1,41
 321 560 321 560 341.5 530.5 c 128,-1,42
 362 501 362 501 372 465.5 c 128,-1,43
 382 430 382 430 382 393 c 0,44,45
 382 348 382 348 377.5 304 c 128,-1,46
 373 260 373 260 368 214.5 c 128,-1,47
 363 169 363 169 358.5 120 c 128,-1,48
 354 71 354 71 354 16 c 0,49,50
 354 -53 354 -53 383.5 -92 c 128,-1,51
 413 -131 413 -131 476 -131 c 0,52,53
 484 -131 484 -131 495 -134.5 c 128,-1,54
 506 -138 506 -138 516 -145 c 128,-1,55
 526 -152 526 -152 533 -163 c 128,-1,56
 540 -174 540 -174 540 -190 c 2,57,-1
 540 -324 l 1,58,-1
 488 -324 l 2,59,60
 382 -324 382 -324 306 -298.5 c 128,-1,61
 230 -273 230 -273 180.5 -225.5 c 128,-1,62
 131 -178 131 -178 107.5 -112 c 128,-1,63
 84 -46 84 -46 84 35 c 0,64,65
 84 81 84 81 89.5 127 c 128,-1,66
 95 173 95 173 102 218 c 128,-1,67
 109 263 109 263 114.5 308 c 128,-1,68
 120 353 120 353 120 397 c 0,0,1
EndSplineSet
EndChar

StartChar: bar
Encoding: 124 124 95
Width: 600
Flags: W
LayerCount: 2
Fore
SplineSet
180 1557 m 1,0,-1
 420 1557 l 1,1,-1
 420 -329 l 1,2,-1
 180 -329 l 1,3,-1
 180 1557 l 1,0,-1
EndSplineSet
EndChar

StartChar: braceright
Encoding: 125 125 96
Width: 600
Flags: W
LayerCount: 2
Fore
SplineSet
480 397 m 0,0,1
 480 353 480 353 485.5 308 c 128,-1,2
 491 263 491 263 498 218 c 128,-1,3
 505 173 505 173 510.5 127 c 128,-1,4
 516 81 516 81 516 35 c 0,5,6
 516 -46 516 -46 492.5 -112 c 128,-1,7
 469 -178 469 -178 419.5 -225.5 c 128,-1,8
 370 -273 370 -273 294 -298.5 c 128,-1,9
 218 -324 218 -324 112 -324 c 2,10,-1
 60 -324 l 1,11,-1
 60 -190 l 2,12,13
 60 -174 60 -174 67 -163 c 128,-1,14
 74 -152 74 -152 84 -145 c 128,-1,15
 94 -138 94 -138 105 -134.5 c 128,-1,16
 116 -131 116 -131 124 -131 c 0,17,18
 187 -131 187 -131 216.5 -92 c 128,-1,19
 246 -53 246 -53 246 16 c 0,20,21
 246 71 246 71 241.5 120 c 128,-1,22
 237 169 237 169 232 214.5 c 128,-1,23
 227 260 227 260 222.5 304 c 128,-1,24
 218 348 218 348 218 393 c 0,25,26
 218 430 218 430 228 465.5 c 128,-1,27
 238 501 238 501 258.5 530.5 c 128,-1,28
 279 560 279 560 308.5 582 c 128,-1,29
 338 604 338 604 377 616 c 1,30,31
 338 628 338 628 308.5 650.5 c 128,-1,32
 279 673 279 673 258.5 702.5 c 128,-1,33
 238 732 238 732 228 767 c 128,-1,34
 218 802 218 802 218 840 c 0,35,36
 218 885 218 885 222.5 929 c 128,-1,37
 227 973 227 973 232 1018.5 c 128,-1,38
 237 1064 237 1064 241.5 1113 c 128,-1,39
 246 1162 246 1162 246 1217 c 0,40,41
 246 1286 246 1286 216.5 1325 c 128,-1,42
 187 1364 187 1364 124 1364 c 0,43,44
 116 1364 116 1364 105 1367.5 c 128,-1,45
 94 1371 94 1371 84 1378 c 128,-1,46
 74 1385 74 1385 67 1396 c 128,-1,47
 60 1407 60 1407 60 1423 c 2,48,-1
 60 1557 l 1,49,-1
 112 1557 l 2,50,51
 218 1557 218 1557 294 1531.5 c 128,-1,52
 370 1506 370 1506 419.5 1459 c 128,-1,53
 469 1412 469 1412 492.5 1345.5 c 128,-1,54
 516 1279 516 1279 516 1198 c 0,55,56
 516 1152 516 1152 510.5 1106 c 128,-1,57
 505 1060 505 1060 498 1015 c 128,-1,58
 491 970 491 970 485.5 925 c 128,-1,59
 480 880 480 880 480 836 c 0,60,61
 480 807 480 807 485.5 782.5 c 128,-1,62
 491 758 491 758 503 740.5 c 128,-1,63
 515 723 515 723 535.5 713 c 128,-1,64
 556 703 556 703 586 703 c 1,65,-1
 586 530 l 1,66,67
 526 530 526 530 503 493.5 c 128,-1,68
 480 457 480 457 480 397 c 0,0,1
EndSplineSet
EndChar

StartChar: asciitilde
Encoding: 126 126 97
Width: 1160
Flags: W
LayerCount: 2
Fore
SplineSet
730 677 m 0,0,1
 778 677 778 677 804 708 c 128,-1,2
 830 739 830 739 830 799 c 1,3,-1
 1080 799 l 1,4,5
 1080 714 1080 714 1057.5 646 c 128,-1,6
 1035 578 1035 578 993 530.5 c 128,-1,7
 951 483 951 483 889.5 457.5 c 128,-1,8
 828 432 828 432 750 432 c 0,9,10
 697 432 697 432 650.5 443.5 c 128,-1,11
 604 455 604 455 564 469.5 c 128,-1,12
 524 484 524 484 490.5 495.5 c 128,-1,13
 457 507 457 507 430 507 c 0,14,15
 382 507 382 507 356 476 c 128,-1,16
 330 445 330 445 330 385 c 1,17,-1
 80 385 l 1,18,19
 80 470 80 470 102.5 538 c 128,-1,20
 125 606 125 606 167 653.5 c 128,-1,21
 209 701 209 701 270.5 726.5 c 128,-1,22
 332 752 332 752 410 752 c 0,23,24
 463 752 463 752 509.5 740.5 c 128,-1,25
 556 729 556 729 596 714.5 c 128,-1,26
 636 700 636 700 669.5 688.5 c 128,-1,27
 703 677 703 677 730 677 c 0,0,1
EndSplineSet
EndChar

StartChar: exclamdown
Encoding: 161 161 99
Width: 752
Flags: W
LayerCount: 2
Fore
SplineSet
234 -329 m 1,0,-1
 234 198 l 2,1,2
 234 290 234 290 245 381 c 128,-1,3
 256 472 256 472 274 565 c 1,4,-1
 484 565 l 1,5,6
 502 472 502 472 513 381 c 128,-1,7
 524 290 524 290 524 198 c 2,8,-1
 524 -329 l 1,9,-1
 234 -329 l 1,0,-1
200 882 m 256,10,11
 200 918 200 918 213.5 949.5 c 128,-1,12
 227 981 227 981 250.5 1004 c 128,-1,13
 274 1027 274 1027 306 1040 c 128,-1,14
 338 1053 338 1053 376 1053 c 0,15,16
 413 1053 413 1053 445 1040 c 128,-1,17
 477 1027 477 1027 501 1004 c 128,-1,18
 525 981 525 981 538.5 949.5 c 128,-1,19
 552 918 552 918 552 882 c 256,20,21
 552 846 552 846 538.5 815 c 128,-1,22
 525 784 525 784 501 761 c 128,-1,23
 477 738 477 738 445 724.5 c 128,-1,24
 413 711 413 711 376 711 c 0,25,26
 338 711 338 711 306 724.5 c 128,-1,27
 274 738 274 738 250.5 761 c 128,-1,28
 227 784 227 784 213.5 815 c 128,-1,29
 200 846 200 846 200 882 c 256,10,11
EndSplineSet
EndChar

StartChar: cent
Encoding: 162 162 100
Width: 1160
Flags: W
LayerCount: 2
Fore
SplineSet
518 -6 m 1,0,1
 432 10 432 10 357 52 c 128,-1,2
 282 94 282 94 226.5 161 c 128,-1,3
 171 228 171 228 139.5 318 c 128,-1,4
 108 408 108 408 108 519 c 0,5,6
 108 627 108 627 141.5 721.5 c 128,-1,7
 175 816 175 816 241 887 c 128,-1,8
 307 958 307 958 403.5 1001 c 128,-1,9
 500 1044 500 1044 626 1050 c 1,10,-1
 640 1190 l 2,11,12
 643 1217 643 1217 665 1240 c 128,-1,13
 687 1263 687 1263 722 1263 c 2,14,-1
 836 1263 l 1,15,-1
 813 1036 l 1,16,17
 888 1019 888 1019 951 985 c 128,-1,18
 1014 951 1014 951 1068 900 c 1,19,-1
 988 795 l 2,20,21
 975 778 975 778 962.5 769 c 128,-1,22
 950 760 950 760 926 760 c 0,23,24
 911 760 911 760 897 765 c 128,-1,25
 883 770 883 770 867 777.5 c 128,-1,26
 851 785 851 785 832 793.5 c 128,-1,27
 813 802 813 802 790 810 c 1,28,-1
 729 212 l 1,29,30
 772 218 772 218 801 231.5 c 128,-1,31
 830 245 830 245 852.5 258.5 c 128,-1,32
 875 272 875 272 894 282 c 128,-1,33
 913 292 913 292 936 292 c 0,34,35
 954 292 954 292 968.5 285 c 128,-1,36
 983 278 983 278 992 267 c 2,37,-1
 1078 160 l 1,38,39
 1038 116 1038 116 993.5 85.5 c 128,-1,40
 949 55 949 55 902 34.5 c 128,-1,41
 855 14 855 14 805.5 3 c 128,-1,42
 756 -8 756 -8 706 -12 c 1,43,-1
 694 -138 l 2,44,45
 691 -165 691 -165 669 -188 c 128,-1,46
 647 -211 647 -211 612 -211 c 2,47,-1
 498 -211 l 1,48,-1
 518 -6 l 1,0,1
414 519 m 0,49,50
 414 411 414 411 447 340 c 128,-1,51
 480 269 480 269 543 236 c 1,52,-1
 602 820 l 1,53,54
 504 800 504 800 459 722 c 128,-1,55
 414 644 414 644 414 519 c 0,49,50
EndSplineSet
EndChar

StartChar: sterling
Encoding: 163 163 101
Width: 1160
Flags: W
LayerCount: 2
Fore
SplineSet
28 685 m 2,0,1
 28 725 28 725 53.5 754.5 c 128,-1,2
 79 784 79 784 130 784 c 2,3,-1
 214 784 l 1,4,-1
 214 1000 l 2,5,6
 214 1095 214 1095 243 1180.5 c 128,-1,7
 272 1266 272 1266 331.5 1331 c 128,-1,8
 391 1396 391 1396 480.5 1434.5 c 128,-1,9
 570 1473 570 1473 692 1473 c 0,10,11
 773 1473 773 1473 838.5 1452.5 c 128,-1,12
 904 1432 904 1432 955.5 1395.5 c 128,-1,13
 1007 1359 1007 1359 1046 1309.5 c 128,-1,14
 1085 1260 1085 1260 1114 1203 c 1,15,-1
 990 1125 l 2,16,17
 953 1105 953 1105 919 1105 c 0,18,19
 873 1105 873 1105 836 1143 c 0,20,21
 798 1182 798 1182 767 1201 c 128,-1,22
 736 1220 736 1220 692 1220 c 0,23,24
 611 1220 611 1220 571.5 1163.5 c 128,-1,25
 532 1107 532 1107 532 1001 c 2,26,-1
 532 784 l 1,27,-1
 912 784 l 1,28,-1
 912 666 l 2,29,30
 912 651 912 651 905.5 637.5 c 128,-1,31
 899 624 899 624 887.5 613 c 128,-1,32
 876 602 876 602 860.5 595.5 c 128,-1,33
 845 589 845 589 826 589 c 2,34,-1
 532 589 l 1,35,-1
 532 433 l 2,36,37
 532 373 532 373 509.5 324.5 c 128,-1,38
 487 276 487 276 449 234 c 1,39,40
 494 244 494 244 539 249.5 c 128,-1,41
 584 255 584 255 630 255 c 2,42,-1
 1132 255 l 1,43,-1
 1132 128 l 2,44,45
 1132 106 1132 106 1122.5 83 c 128,-1,46
 1113 60 1113 60 1096 41.5 c 128,-1,47
 1079 23 1079 23 1054.5 11.5 c 128,-1,48
 1030 0 1030 0 1000 0 c 2,49,-1
 46 0 l 1,50,-1
 46 186 l 1,51,52
 79 192 79 192 109.5 205 c 128,-1,53
 140 218 140 218 163 238 c 128,-1,54
 186 258 186 258 200 286 c 128,-1,55
 214 314 214 314 214 351 c 2,56,-1
 214 589 l 1,57,-1
 28 589 l 1,58,-1
 28 685 l 2,0,1
EndSplineSet
EndChar

StartChar: currency
Encoding: 164 164 102
Width: 1160
Flags: W
LayerCount: 2
Fore
SplineSet
200 674 m 0,0,1
 200 723 200 723 211.5 768 c 128,-1,2
 223 813 223 813 244 853 c 1,3,-1
 90 1006 l 1,4,-1
 246 1154 l 1,5,-1
 396 1006 l 1,6,7
 437 1028 437 1028 483 1040 c 128,-1,8
 529 1052 529 1052 580 1052 c 0,9,10
 628 1052 628 1052 672.5 1040.5 c 128,-1,11
 717 1029 717 1029 757 1008 c 1,12,-1
 910 1160 l 1,13,-1
 1064 1010 l 1,14,-1
 911 859 l 1,15,16
 934 818 934 818 947 771.5 c 128,-1,17
 960 725 960 725 960 674 c 0,18,19
 960 625 960 625 948.5 580 c 128,-1,20
 937 535 937 535 915 495 c 1,21,-1
 1070 343 l 1,22,-1
 914 194 l 1,23,-1
 763 342 l 1,24,25
 722 320 722 320 676 308 c 128,-1,26
 630 296 630 296 580 296 c 0,27,28
 532 296 532 296 487.5 307 c 128,-1,29
 443 318 443 318 403 338 c 1,30,-1
 250 188 l 1,31,-1
 96 338 l 1,32,-1
 248 488 l 1,33,34
 225 529 225 529 212.5 576 c 128,-1,35
 200 623 200 623 200 674 c 0,0,1
428 674 m 0,36,37
 428 642 428 642 440 613 c 128,-1,38
 452 584 452 584 472.5 562 c 128,-1,39
 493 540 493 540 520.5 527.5 c 128,-1,40
 548 515 548 515 580 515 c 256,41,42
 612 515 612 515 640 527.5 c 128,-1,43
 668 540 668 540 689 562 c 128,-1,44
 710 584 710 584 722 613 c 128,-1,45
 734 642 734 642 734 674 c 0,46,47
 734 708 734 708 722 737 c 128,-1,48
 710 766 710 766 689 788 c 128,-1,49
 668 810 668 810 640 822.5 c 128,-1,50
 612 835 612 835 580 835 c 256,51,52
 548 835 548 835 520.5 822.5 c 128,-1,53
 493 810 493 810 472.5 788 c 128,-1,54
 452 766 452 766 440 737 c 128,-1,55
 428 708 428 708 428 674 c 0,36,37
EndSplineSet
EndChar

StartChar: yen
Encoding: 165 165 103
Width: 1160
Flags: W
LayerCount: 2
Fore
SplineSet
122 639 m 1,0,-1
 370 639 l 1,1,-1
 -20 1457 l 1,2,-1
 238 1457 l 2,3,4
 282 1457 282 1457 309 1437.5 c 128,-1,5
 336 1418 336 1418 350 1384 c 2,6,-1
 516 959 l 2,7,8
 537 905 537 905 553.5 860.5 c 128,-1,9
 570 816 570 816 580 772 c 1,10,11
 589 817 589 817 604.5 861.5 c 128,-1,12
 620 906 620 906 640 959 c 2,13,-1
 804 1384 l 2,14,15
 815 1413 815 1413 843.5 1435 c 128,-1,16
 872 1457 872 1457 914 1457 c 2,17,-1
 1174 1457 l 1,18,-1
 783 639 l 1,19,-1
 1032 639 l 1,20,-1
 1032 474 l 1,21,-1
 732 474 l 1,22,-1
 732 386 l 1,23,-1
 1032 386 l 1,24,-1
 1032 221 l 1,25,-1
 732 221 l 1,26,-1
 732 0 l 1,27,-1
 422 0 l 1,28,-1
 422 221 l 1,29,-1
 122 221 l 1,30,-1
 122 386 l 1,31,-1
 422 386 l 1,32,-1
 422 474 l 1,33,-1
 122 474 l 1,34,-1
 122 639 l 1,0,-1
EndSplineSet
EndChar

StartChar: brokenbar
Encoding: 166 166 104
Width: 600
Flags: W
LayerCount: 2
Fore
SplineSet
180 1557 m 1,0,-1
 420 1557 l 1,1,-1
 420 738 l 1,2,-1
 180 738 l 1,3,-1
 180 1557 l 1,0,-1
180 490 m 1,4,-1
 420 490 l 1,5,-1
 420 -329 l 1,6,-1
 180 -329 l 1,7,-1
 180 490 l 1,4,-1
EndSplineSet
EndChar

StartChar: section
Encoding: 167 167 105
Width: 1014
Flags: W
LayerCount: 2
Fore
SplineSet
834 1228 m 2,0,1
 822 1209 822 1209 808.5 1201.5 c 128,-1,2
 795 1194 795 1194 774 1194 c 0,3,4
 752 1194 752 1194 730 1203 c 128,-1,5
 708 1212 708 1212 682.5 1223.5 c 128,-1,6
 657 1235 657 1235 625 1244 c 128,-1,7
 593 1253 593 1253 552 1253 c 0,8,9
 480 1253 480 1253 445 1226 c 128,-1,10
 410 1199 410 1199 410 1157 c 0,11,12
 410 1131 410 1131 433 1110 c 128,-1,13
 456 1089 456 1089 494 1070 c 128,-1,14
 532 1051 532 1051 580.5 1032 c 128,-1,15
 629 1013 629 1013 680 991 c 128,-1,16
 731 969 731 969 779.5 942 c 128,-1,17
 828 915 828 915 866 879.5 c 128,-1,18
 904 844 904 844 927 798 c 128,-1,19
 950 752 950 752 950 693 c 0,20,21
 950 613 950 613 913 546.5 c 128,-1,22
 876 480 876 480 794 438 c 1,23,24
 837 401 837 401 863.5 352.5 c 128,-1,25
 890 304 890 304 890 236 c 0,26,27
 890 159 890 159 862 94 c 128,-1,28
 834 29 834 29 778.5 -18 c 128,-1,29
 723 -65 723 -65 641.5 -91 c 128,-1,30
 560 -117 560 -117 454 -117 c 0,31,32
 401 -117 401 -117 348 -107 c 128,-1,33
 295 -97 295 -97 245.5 -80 c 128,-1,34
 196 -63 196 -63 154 -39.5 c 128,-1,35
 112 -16 112 -16 82 11 c 1,36,-1
 154 125 l 2,37,38
 167 145 167 145 185 156.5 c 128,-1,39
 203 168 203 168 232 168 c 0,40,41
 259 168 259 168 280.5 156 c 128,-1,42
 302 144 302 144 328.5 130 c 128,-1,43
 355 116 355 116 390.5 104 c 128,-1,44
 426 92 426 92 482 92 c 0,45,46
 547 92 547 92 583.5 115.5 c 128,-1,47
 620 139 620 139 620 186 c 0,48,49
 620 223 620 223 596.5 248.5 c 128,-1,50
 573 274 573 274 535 294 c 128,-1,51
 497 314 497 314 448 331 c 128,-1,52
 399 348 399 348 348 368 c 128,-1,53
 297 388 297 388 248 413 c 128,-1,54
 199 438 199 438 161 473.5 c 128,-1,55
 123 509 123 509 99.5 558 c 128,-1,56
 76 607 76 607 76 675 c 0,57,58
 76 753 76 753 115 816 c 128,-1,59
 154 879 154 879 234 917 c 1,60,61
 190 957 190 957 163 1011 c 128,-1,62
 136 1065 136 1065 136 1143 c 0,63,64
 136 1209 136 1209 161.5 1268.5 c 128,-1,65
 187 1328 187 1328 238 1373 c 128,-1,66
 289 1418 289 1418 366 1444.5 c 128,-1,67
 443 1471 443 1471 546 1471 c 0,68,69
 602 1471 602 1471 654.5 1461 c 128,-1,70
 707 1451 707 1451 753 1433 c 128,-1,71
 799 1415 799 1415 837 1390.5 c 128,-1,72
 875 1366 875 1366 904 1337 c 1,73,-1
 834 1228 l 2,0,1
350 724 m 0,74,75
 350 689 350 689 374 663 c 128,-1,76
 398 637 398 637 437 615.5 c 128,-1,77
 476 594 476 594 526 574.5 c 128,-1,78
 576 555 576 555 628 533 c 1,79,80
 656 550 656 550 668 574 c 128,-1,81
 680 598 680 598 680 625 c 0,82,83
 680 661 680 661 656 686.5 c 128,-1,84
 632 712 632 712 593 733 c 128,-1,85
 554 754 554 754 504.5 773 c 128,-1,86
 455 792 455 792 404 815 c 1,87,88
 375 796 375 796 362.5 774.5 c 128,-1,89
 350 753 350 753 350 724 c 0,74,75
EndSplineSet
EndChar

StartChar: dieresis
Encoding: 168 168 106
Width: 660
Flags: W
LayerCount: 2
Fore
SplineSet
298 1295 m 0,0,1
 298 1263 298 1263 285 1235 c 128,-1,2
 272 1207 272 1207 249.5 1186.5 c 128,-1,3
 227 1166 227 1166 197.5 1154 c 128,-1,4
 168 1142 168 1142 134 1142 c 0,5,6
 102 1142 102 1142 73.5 1154 c 128,-1,7
 45 1166 45 1166 23.5 1186.5 c 128,-1,8
 2 1207 2 1207 -11 1235 c 128,-1,9
 -24 1263 -24 1263 -24 1295 c 0,10,11
 -24 1328 -24 1328 -11 1357 c 128,-1,12
 2 1386 2 1386 23.5 1407.5 c 128,-1,13
 45 1429 45 1429 73.5 1441.5 c 128,-1,14
 102 1454 102 1454 134 1454 c 0,15,16
 168 1454 168 1454 197.5 1441.5 c 128,-1,17
 227 1429 227 1429 249.5 1407.5 c 128,-1,18
 272 1386 272 1386 285 1357 c 128,-1,19
 298 1328 298 1328 298 1295 c 0,0,1
684 1295 m 0,20,21
 684 1263 684 1263 671.5 1235 c 128,-1,22
 659 1207 659 1207 637 1186.5 c 128,-1,23
 615 1166 615 1166 585.5 1154 c 128,-1,24
 556 1142 556 1142 522 1142 c 0,25,26
 489 1142 489 1142 460 1154 c 128,-1,27
 431 1166 431 1166 409 1186.5 c 128,-1,28
 387 1207 387 1207 374.5 1235 c 128,-1,29
 362 1263 362 1263 362 1295 c 0,30,31
 362 1328 362 1328 374.5 1357 c 128,-1,32
 387 1386 387 1386 409 1407.5 c 128,-1,33
 431 1429 431 1429 460 1441.5 c 128,-1,34
 489 1454 489 1454 522 1454 c 0,35,36
 556 1454 556 1454 585.5 1441.5 c 128,-1,37
 615 1429 615 1429 637 1407.5 c 128,-1,38
 659 1386 659 1386 671.5 1357 c 128,-1,39
 684 1328 684 1328 684 1295 c 0,20,21
EndSplineSet
EndChar

StartChar: copyright
Encoding: 169 169 107
Width: 1570
Flags: W
LayerCount: 2
Fore
SplineSet
984 542 m 0,0,1
 996 542 996 542 1007 536 c 128,-1,2
 1018 530 1018 530 1026 521 c 2,3,-1
 1128 416 l 1,4,5
 1074 341 1074 341 986.5 302.5 c 128,-1,6
 899 264 899 264 784 264 c 0,7,8
 683 264 683 264 601.5 300.5 c 128,-1,9
 520 337 520 337 463 400.5 c 128,-1,10
 406 464 406 464 375 549 c 128,-1,11
 344 634 344 634 344 732 c 0,12,13
 344 834 344 834 380 919.5 c 128,-1,14
 416 1005 416 1005 478.5 1067.5 c 128,-1,15
 541 1130 541 1130 625 1164.5 c 128,-1,16
 709 1199 709 1199 806 1199 c 0,17,18
 921 1199 921 1199 1004 1159 c 128,-1,19
 1087 1119 1087 1119 1138 1059 c 1,20,-1
 1056 950 l 2,21,22
 1048 942 1048 942 1036 931.5 c 128,-1,23
 1024 921 1024 921 1004 921 c 256,24,25
 984 921 984 921 969.5 930 c 128,-1,26
 955 939 955 939 937 950 c 128,-1,27
 919 961 919 961 892.5 970 c 128,-1,28
 866 979 866 979 822 979 c 0,29,30
 721 979 721 979 669.5 912.5 c 128,-1,31
 618 846 618 846 618 732 c 0,32,33
 618 672 618 672 631.5 626 c 128,-1,34
 645 580 645 580 669 549 c 128,-1,35
 693 518 693 518 726.5 502 c 128,-1,36
 760 486 760 486 800 486 c 0,37,38
 847 486 847 486 874.5 494.5 c 128,-1,39
 902 503 902 503 920 513 c 128,-1,40
 938 523 938 523 951 532 c 128,-1,41
 964 541 964 541 984 542 c 0,0,1
40 729 m 256,42,43
 40 832 40 832 66.5 927 c 128,-1,44
 93 1022 93 1022 141.5 1104.5 c 128,-1,45
 190 1187 190 1187 258 1255 c 128,-1,46
 326 1323 326 1323 409 1371.5 c 128,-1,47
 492 1420 492 1420 586.5 1446.5 c 128,-1,48
 681 1473 681 1473 784 1473 c 256,49,50
 887 1473 887 1473 982.5 1446.5 c 128,-1,51
 1078 1420 1078 1420 1160.5 1371.5 c 128,-1,52
 1243 1323 1243 1323 1311.5 1255 c 128,-1,53
 1380 1187 1380 1187 1428.5 1104.5 c 128,-1,54
 1477 1022 1477 1022 1503.5 927 c 128,-1,55
 1530 832 1530 832 1530 729 c 0,56,57
 1530 627 1530 627 1503.5 532 c 128,-1,58
 1477 437 1477 437 1428.5 354.5 c 128,-1,59
 1380 272 1380 272 1311.5 204 c 128,-1,60
 1243 136 1243 136 1160.5 87.5 c 128,-1,61
 1078 39 1078 39 982.5 12.5 c 128,-1,62
 887 -14 887 -14 784 -14 c 0,63,64
 682 -14 682 -14 587 12.5 c 128,-1,65
 492 39 492 39 409 87.5 c 128,-1,66
 326 136 326 136 258 204 c 128,-1,67
 190 272 190 272 141.5 354.5 c 128,-1,68
 93 437 93 437 66.5 531.5 c 128,-1,69
 40 626 40 626 40 729 c 256,42,43
206 729 m 256,70,71
 206 602 206 602 250.5 492 c 128,-1,72
 295 382 295 382 373 300.5 c 128,-1,73
 451 219 451 219 556.5 172.5 c 128,-1,74
 662 126 662 126 784 126 c 0,75,76
 907 126 907 126 1013.5 172.5 c 128,-1,77
 1120 219 1120 219 1199 300.5 c 128,-1,78
 1278 382 1278 382 1323 492 c 128,-1,79
 1368 602 1368 602 1368 729 c 0,80,81
 1368 814 1368 814 1347.5 892 c 128,-1,82
 1327 970 1327 970 1289.5 1037.5 c 128,-1,83
 1252 1105 1252 1105 1199 1160.5 c 128,-1,84
 1146 1216 1146 1216 1081 1255 c 128,-1,85
 1016 1294 1016 1294 941 1315.5 c 128,-1,86
 866 1337 866 1337 784 1337 c 0,87,88
 662 1337 662 1337 556.5 1290 c 128,-1,89
 451 1243 451 1243 373 1160.5 c 128,-1,90
 295 1078 295 1078 250.5 967 c 128,-1,91
 206 856 206 856 206 729 c 256,70,71
EndSplineSet
EndChar

StartChar: ordfeminine
Encoding: 170 170 108
Width: 706
Flags: W
LayerCount: 2
Fore
SplineSet
646 842 m 1,0,-1
 542 842 l 2,1,2
 512 842 512 842 496.5 850 c 128,-1,3
 481 858 481 858 468 884 c 2,4,-1
 456 911 l 1,5,6
 433 891 433 891 412 877 c 128,-1,7
 391 863 391 863 368.5 853 c 128,-1,8
 346 843 346 843 320.5 838.5 c 128,-1,9
 295 834 295 834 264 834 c 0,10,11
 173 834 173 834 121.5 880 c 128,-1,12
 70 926 70 926 70 1010 c 0,13,14
 70 1042 70 1042 85.5 1076.5 c 128,-1,15
 101 1111 101 1111 141 1140.5 c 128,-1,16
 181 1170 181 1170 251 1190 c 128,-1,17
 321 1210 321 1210 430 1213 c 1,18,-1
 430 1229 l 2,19,20
 430 1275 430 1275 410.5 1291.5 c 128,-1,21
 391 1308 391 1308 358 1308 c 0,22,23
 328 1308 328 1308 309 1302 c 128,-1,24
 290 1296 290 1296 274.5 1289 c 128,-1,25
 259 1282 259 1282 243 1276 c 128,-1,26
 227 1270 227 1270 202 1270 c 0,27,28
 179 1270 179 1270 164 1283 c 128,-1,29
 149 1296 149 1296 138 1310 c 2,30,-1
 100 1379 l 1,31,32
 159 1432 159 1432 231 1455.5 c 128,-1,33
 303 1479 303 1479 386 1479 c 0,34,35
 445 1479 445 1479 493 1460 c 128,-1,36
 541 1441 541 1441 575 1407 c 128,-1,37
 609 1373 609 1373 627.5 1327.5 c 128,-1,38
 646 1282 646 1282 646 1229 c 2,39,-1
 646 842 l 1,0,-1
336 980 m 0,40,41
 363 980 363 980 384.5 988.5 c 128,-1,42
 406 997 406 997 430 1020 c 1,43,-1
 430 1083 l 1,44,45
 383 1081 383 1081 354 1075.5 c 128,-1,46
 325 1070 325 1070 309 1061.5 c 128,-1,47
 293 1053 293 1053 287.5 1042 c 128,-1,48
 282 1031 282 1031 282 1020 c 0,49,50
 282 997 282 997 294 988.5 c 128,-1,51
 306 980 306 980 336 980 c 0,40,41
EndSplineSet
EndChar

StartChar: guillemotleft
Encoding: 171 171 109
Width: 1012
Flags: W
LayerCount: 2
Fore
SplineSet
110 525 m 1,0,-1
 110 564 l 1,1,-1
 372 966 l 1,2,-1
 474 920 l 2,3,4
 498 909 498 909 509.5 893 c 128,-1,5
 521 877 521 877 521 857 c 0,6,7
 521 833 521 833 506 806 c 2,8,-1
 386 591 l 2,9,10
 369 561 369 561 350 544 c 1,11,12
 368 528 368 528 386 498 c 2,13,-1
 506 282 l 2,14,15
 521 256 521 256 521 232 c 0,16,17
 521 212 521 212 509.5 196 c 128,-1,18
 498 180 498 180 474 169 c 2,19,-1
 372 123 l 1,20,-1
 110 525 l 1,0,-1
470 525 m 1,21,-1
 470 564 l 1,22,-1
 732 966 l 1,23,-1
 834 920 l 2,24,25
 858 909 858 909 869.5 893 c 128,-1,26
 881 877 881 877 881 857 c 0,27,28
 881 833 881 833 866 806 c 2,29,-1
 746 591 l 2,30,31
 729 561 729 561 710 544 c 1,32,33
 728 528 728 528 746 498 c 2,34,-1
 866 282 l 2,35,36
 881 256 881 256 881 232 c 0,37,38
 881 212 881 212 869.5 196 c 128,-1,39
 858 180 858 180 834 169 c 2,40,-1
 732 123 l 1,41,-1
 470 525 l 1,21,-1
EndSplineSet
EndChar

StartChar: logicalnot
Encoding: 172 172 110
Width: 1160
Flags: W
LayerCount: 2
Fore
SplineSet
124 783 m 1,0,-1
 1034 783 l 1,1,-1
 1034 282 l 1,2,-1
 772 282 l 1,3,-1
 772 561 l 1,4,-1
 124 561 l 1,5,-1
 124 783 l 1,0,-1
EndSplineSet
EndChar

StartChar: uni00AD
Encoding: 173 173 111
Width: 740
Flags: W
LayerCount: 2
Fore
SplineSet
100 733 m 1,0,-1
 640 733 l 1,1,-1
 640 483 l 1,2,-1
 100 483 l 1,3,-1
 100 733 l 1,0,-1
EndSplineSet
EndChar

StartChar: registered
Encoding: 174 174 112
Width: 1570
Flags: W
LayerCount: 2
Fore
SplineSet
40 729 m 256,0,1
 40 832 40 832 66.5 927 c 128,-1,2
 93 1022 93 1022 141.5 1104.5 c 128,-1,3
 190 1187 190 1187 258 1255 c 128,-1,4
 326 1323 326 1323 409 1371.5 c 128,-1,5
 492 1420 492 1420 586.5 1446.5 c 128,-1,6
 681 1473 681 1473 784 1473 c 256,7,8
 887 1473 887 1473 982.5 1446.5 c 128,-1,9
 1078 1420 1078 1420 1160.5 1371.5 c 128,-1,10
 1243 1323 1243 1323 1311.5 1255 c 128,-1,11
 1380 1187 1380 1187 1428.5 1104.5 c 128,-1,12
 1477 1022 1477 1022 1503.5 927 c 128,-1,13
 1530 832 1530 832 1530 729 c 0,14,15
 1530 627 1530 627 1503.5 532 c 128,-1,16
 1477 437 1477 437 1428.5 354.5 c 128,-1,17
 1380 272 1380 272 1311.5 204 c 128,-1,18
 1243 136 1243 136 1160.5 87.5 c 128,-1,19
 1078 39 1078 39 982.5 12.5 c 128,-1,20
 887 -14 887 -14 784 -14 c 0,21,22
 682 -14 682 -14 587 12.5 c 128,-1,23
 492 39 492 39 409 87.5 c 128,-1,24
 326 136 326 136 258 204 c 128,-1,25
 190 272 190 272 141.5 354.5 c 128,-1,26
 93 437 93 437 66.5 531.5 c 128,-1,27
 40 626 40 626 40 729 c 256,0,1
206 729 m 256,28,29
 206 602 206 602 250.5 492 c 128,-1,30
 295 382 295 382 373 300.5 c 128,-1,31
 451 219 451 219 556.5 172.5 c 128,-1,32
 662 126 662 126 784 126 c 0,33,34
 899 126 899 126 999.5 167 c 128,-1,35
 1100 208 1100 208 1178 281 c 1,36,-1
 962 281 l 2,37,38
 907 281 907 281 886 320 c 1,39,-1
 794 551 l 2,40,41
 783 568 783 568 770.5 575.5 c 128,-1,42
 758 583 758 583 734 583 c 2,43,-1
 702 583 l 1,44,-1
 702 281 l 1,45,-1
 434 281 l 1,46,-1
 434 1182 l 1,47,-1
 786 1182 l 2,48,49
 886 1182 886 1182 958.5 1164 c 128,-1,50
 1031 1146 1031 1146 1077.5 1112 c 128,-1,51
 1124 1078 1124 1078 1146 1028 c 128,-1,52
 1168 978 1168 978 1168 914 c 0,53,54
 1168 872 1168 872 1158 833.5 c 128,-1,55
 1148 795 1148 795 1127.5 762.5 c 128,-1,56
 1107 730 1107 730 1074.5 704 c 128,-1,57
 1042 678 1042 678 997 661 c 1,58,59
 1026 646 1026 646 1046 622.5 c 128,-1,60
 1066 599 1066 599 1082 566 c 2,61,-1
 1206 309 l 1,62,63
 1282 390 1282 390 1325 497 c 128,-1,64
 1368 604 1368 604 1368 729 c 0,65,66
 1368 814 1368 814 1347.5 892 c 128,-1,67
 1327 970 1327 970 1289.5 1037.5 c 128,-1,68
 1252 1105 1252 1105 1199 1160.5 c 128,-1,69
 1146 1216 1146 1216 1081 1255 c 128,-1,70
 1016 1294 1016 1294 941 1315.5 c 128,-1,71
 866 1337 866 1337 784 1337 c 0,72,73
 662 1337 662 1337 556.5 1290 c 128,-1,74
 451 1243 451 1243 373 1160.5 c 128,-1,75
 295 1078 295 1078 250.5 967 c 128,-1,76
 206 856 206 856 206 729 c 256,28,29
702 767 m 1,77,-1
 766 767 l 2,78,79
 814 767 814 767 841.5 774.5 c 128,-1,80
 869 782 869 782 883 796 c 128,-1,81
 897 810 897 810 900.5 831.5 c 128,-1,82
 904 853 904 853 904 880 c 0,83,84
 904 906 904 906 900.5 925.5 c 128,-1,85
 897 945 897 945 885 958.5 c 128,-1,86
 873 972 873 972 849.5 979 c 128,-1,87
 826 986 826 986 786 986 c 2,88,-1
 702 986 l 1,89,-1
 702 767 l 1,77,-1
EndSplineSet
EndChar

StartChar: macron
Encoding: 175 175 113
Width: 660
Flags: W
LayerCount: 2
Fore
SplineSet
20 1391 m 1,0,-1
 640 1391 l 1,1,-1
 640 1201 l 1,2,-1
 20 1201 l 1,3,-1
 20 1391 l 1,0,-1
EndSplineSet
EndChar

StartChar: degree
Encoding: 176 176 114
Width: 810
Flags: W
LayerCount: 2
Fore
SplineSet
40 1119 m 0,0,1
 40 1193 40 1193 68 1258 c 128,-1,2
 96 1323 96 1323 145 1371 c 128,-1,3
 194 1419 194 1419 260.5 1447 c 128,-1,4
 327 1475 327 1475 404 1475 c 256,5,6
 481 1475 481 1475 548 1447 c 128,-1,7
 615 1419 615 1419 664.5 1371 c 128,-1,8
 714 1323 714 1323 742 1258 c 128,-1,9
 770 1193 770 1193 770 1119 c 0,10,11
 770 1047 770 1047 742 982.5 c 128,-1,12
 714 918 714 918 664.5 870 c 128,-1,13
 615 822 615 822 548 793.5 c 128,-1,14
 481 765 481 765 404 765 c 256,15,16
 327 765 327 765 260.5 793.5 c 128,-1,17
 194 822 194 822 145 870 c 128,-1,18
 96 918 96 918 68 982.5 c 128,-1,19
 40 1047 40 1047 40 1119 c 0,0,1
254 1117 m 0,20,21
 254 1084 254 1084 265 1055.5 c 128,-1,22
 276 1027 276 1027 296 1005.5 c 128,-1,23
 316 984 316 984 343.5 972 c 128,-1,24
 371 960 371 960 404 960 c 256,25,26
 437 960 437 960 464.5 972 c 128,-1,27
 492 984 492 984 512 1005.5 c 128,-1,28
 532 1027 532 1027 543 1055.5 c 128,-1,29
 554 1084 554 1084 554 1117 c 0,30,31
 554 1151 554 1151 543 1180.5 c 128,-1,32
 532 1210 532 1210 512 1231.5 c 128,-1,33
 492 1253 492 1253 464.5 1265.5 c 128,-1,34
 437 1278 437 1278 404 1278 c 256,35,36
 371 1278 371 1278 343.5 1265.5 c 128,-1,37
 316 1253 316 1253 296 1231.5 c 128,-1,38
 276 1210 276 1210 265 1180.5 c 128,-1,39
 254 1151 254 1151 254 1117 c 0,20,21
EndSplineSet
EndChar

StartChar: plusminus
Encoding: 177 177 115
Width: 1160
Flags: W
LayerCount: 2
Fore
SplineSet
704 1272 m 1,0,-1
 704 936 l 1,1,-1
 1074 936 l 1,2,-1
 1074 713 l 1,3,-1
 704 713 l 1,4,-1
 704 394 l 1,5,-1
 452 394 l 1,6,-1
 452 713 l 1,7,-1
 84 713 l 1,8,-1
 84 936 l 1,9,-1
 452 936 l 1,10,-1
 452 1272 l 1,11,-1
 704 1272 l 1,0,-1
84 302 m 1,12,-1
 1074 302 l 1,13,-1
 1074 80 l 1,14,-1
 84 80 l 1,15,-1
 84 302 l 1,12,-1
EndSplineSet
EndChar

StartChar: twosuperior
Encoding: 178 178 116
Width: 668
Flags: W
LayerCount: 2
Fore
SplineSet
352 1658 m 0,0,1
 416 1658 416 1658 464.5 1640 c 128,-1,2
 513 1622 513 1622 545.5 1591 c 128,-1,3
 578 1560 578 1560 594 1519.5 c 128,-1,4
 610 1479 610 1479 610 1434 c 0,5,6
 610 1393 610 1393 597.5 1359 c 128,-1,7
 585 1325 585 1325 564.5 1294 c 128,-1,8
 544 1263 544 1263 517 1234 c 128,-1,9
 490 1205 490 1205 462 1175 c 2,10,-1
 361 1072 l 1,11,12
 394 1082 394 1082 426 1088 c 128,-1,13
 458 1094 458 1094 484 1094 c 2,14,-1
 552 1094 l 2,15,16
 587 1094 587 1094 606.5 1075.5 c 128,-1,17
 626 1057 626 1057 626 1026 c 2,18,-1
 626 900 l 1,19,-1
 56 900 l 1,20,-1
 56 969 l 2,21,22
 56 989 56 989 64 1012 c 128,-1,23
 72 1035 72 1035 92 1054 c 2,24,-1
 290 1248 l 2,25,26
 310 1268 310 1268 327.5 1291.5 c 128,-1,27
 345 1315 345 1315 358 1338.5 c 128,-1,28
 371 1362 371 1362 378.5 1384.5 c 128,-1,29
 386 1407 386 1407 386 1426 c 0,30,31
 386 1450 386 1450 376 1468.5 c 128,-1,32
 366 1487 366 1487 340 1487 c 0,33,34
 319 1487 319 1487 306.5 1477 c 128,-1,35
 294 1467 294 1467 282 1445 c 0,36,37
 268 1425 268 1425 253 1413.5 c 128,-1,38
 238 1402 238 1402 210 1402 c 0,39,40
 196 1402 196 1402 180 1405 c 2,41,-1
 56 1424 l 1,42,43
 65 1485 65 1485 90 1529 c 128,-1,44
 115 1573 115 1573 153.5 1601.5 c 128,-1,45
 192 1630 192 1630 242.5 1644 c 128,-1,46
 293 1658 293 1658 352 1658 c 0,0,1
EndSplineSet
EndChar

StartChar: threesuperior
Encoding: 179 179 117
Width: 668
Flags: W
LayerCount: 2
Fore
SplineSet
364 1658 m 0,0,1
 426 1658 426 1658 473.5 1640.5 c 128,-1,2
 521 1623 521 1623 552.5 1594.5 c 128,-1,3
 584 1566 584 1566 600 1531 c 128,-1,4
 616 1496 616 1496 616 1461 c 0,5,6
 616 1399 616 1399 592.5 1355.5 c 128,-1,7
 569 1312 569 1312 514 1286 c 1,8,9
 571 1267 571 1267 599.5 1232 c 128,-1,10
 628 1197 628 1197 628 1140 c 0,11,12
 628 1074 628 1074 603.5 1027 c 128,-1,13
 579 980 579 980 540 950 c 128,-1,14
 501 920 501 920 452 906 c 128,-1,15
 403 892 403 892 354 892 c 0,16,17
 302 892 302 892 258.5 900.5 c 128,-1,18
 215 909 215 909 179 932.5 c 128,-1,19
 143 956 143 956 114.5 996 c 128,-1,20
 86 1036 86 1036 64 1099 c 1,21,-1
 160 1137 l 2,22,23
 185 1146 185 1146 208 1146 c 0,24,25
 255 1146 255 1146 272 1114 c 0,26,27
 286 1088 286 1088 305 1078 c 128,-1,28
 324 1068 324 1068 342 1068 c 0,29,30
 372 1068 372 1068 389 1085.5 c 128,-1,31
 406 1103 406 1103 406 1132 c 0,32,33
 406 1157 406 1157 400.5 1172 c 128,-1,34
 395 1187 395 1187 380.5 1195 c 128,-1,35
 366 1203 366 1203 341.5 1205.5 c 128,-1,36
 317 1208 317 1208 280 1208 c 1,37,-1
 280 1348 l 1,38,39
 320 1348 320 1348 344.5 1353 c 128,-1,40
 369 1358 369 1358 382.5 1367 c 128,-1,41
 396 1376 396 1376 400 1390 c 128,-1,42
 404 1404 404 1404 404 1422 c 0,43,44
 404 1448 404 1448 394 1465.5 c 128,-1,45
 384 1483 384 1483 352 1483 c 0,46,47
 328 1483 328 1483 315.5 1474 c 128,-1,48
 303 1465 303 1465 294 1447 c 0,49,50
 281 1424 281 1424 267.5 1413 c 128,-1,51
 254 1402 254 1402 229 1402 c 0,52,53
 215 1402 215 1402 196 1405 c 2,54,-1
 82 1424 l 1,55,56
 91 1485 91 1485 116 1529 c 128,-1,57
 141 1573 141 1573 178 1601.5 c 128,-1,58
 215 1630 215 1630 262.5 1644 c 128,-1,59
 310 1658 310 1658 364 1658 c 0,0,1
EndSplineSet
EndChar

StartChar: acute
Encoding: 180 180 118
Width: 660
Flags: W
LayerCount: 2
Fore
SplineSet
726 1473 m 1,0,-1
 466 1210 l 2,1,2
 443 1187 443 1187 422 1177.5 c 128,-1,3
 401 1168 401 1168 366 1168 c 2,4,-1
 180 1168 l 1,5,-1
 316 1413 l 2,6,7
 333 1442 333 1442 356 1457.5 c 128,-1,8
 379 1473 379 1473 426 1473 c 2,9,-1
 726 1473 l 1,0,-1
EndSplineSet
EndChar

StartChar: mu
Encoding: 181 181 119
Width: 1160
Flags: W
LayerCount: 2
Fore
SplineSet
410 1037 m 1,0,-1
 410 371 l 2,1,2
 410 298 410 298 446 258 c 128,-1,3
 482 218 482 218 548 218 c 0,4,5
 599 218 599 218 643.5 239 c 128,-1,6
 688 260 688 260 730 298 c 1,7,-1
 730 1037 l 1,8,-1
 1040 1037 l 1,9,-1
 1040 0 l 1,10,-1
 848 0 l 2,11,12
 819 0 819 0 799.5 13 c 128,-1,13
 780 26 780 26 772 52 c 2,14,-1
 753 113 l 1,15,16
 724 87 724 87 698 69.5 c 128,-1,17
 672 52 672 52 645.5 41.5 c 128,-1,18
 619 31 619 31 590.5 26.5 c 128,-1,19
 562 22 562 22 528 22 c 0,20,21
 480 22 480 22 439 35.5 c 128,-1,22
 398 49 398 49 364 74 c 1,23,24
 379 28 379 28 384.5 -23.5 c 128,-1,25
 390 -75 390 -75 390 -120 c 2,26,-1
 390 -329 l 1,27,-1
 236 -329 l 2,28,29
 171 -329 171 -329 135.5 -297 c 128,-1,30
 100 -265 100 -265 100 -205 c 2,31,-1
 100 1037 l 1,32,-1
 410 1037 l 1,0,-1
EndSplineSet
EndChar

StartChar: paragraph
Encoding: 182 182 120
Width: 1458
Flags: W
LayerCount: 2
Fore
SplineSet
1432 1457 m 1,0,-1
 1432 1206 l 1,1,-1
 1222 1206 l 1,2,-1
 1222 -216 l 1,3,-1
 952 -216 l 1,4,-1
 952 1206 l 1,5,-1
 756 1206 l 1,6,-1
 756 -216 l 1,7,-1
 486 -216 l 1,8,-1
 486 606 l 1,9,10
 382 606 382 606 296.5 640 c 128,-1,11
 211 674 211 674 150.5 731.5 c 128,-1,12
 90 789 90 789 57 865.5 c 128,-1,13
 24 942 24 942 24 1028 c 0,14,15
 24 1122 24 1122 57 1201 c 128,-1,16
 90 1280 90 1280 150.5 1337 c 128,-1,17
 211 1394 211 1394 296.5 1425.5 c 128,-1,18
 382 1457 382 1457 486 1457 c 2,19,-1
 1432 1457 l 1,0,-1
EndSplineSet
EndChar

StartChar: periodcentered
Encoding: 183 183 121
Width: 570
Flags: W
LayerCount: 2
Fore
SplineSet
60 596 m 256,0,1
 60 641 60 641 77.5 681 c 128,-1,2
 95 721 95 721 125.5 750.5 c 128,-1,3
 156 780 156 780 196.5 797 c 128,-1,4
 237 814 237 814 284 814 c 256,5,6
 331 814 331 814 372.5 797 c 128,-1,7
 414 780 414 780 444.5 750.5 c 128,-1,8
 475 721 475 721 492.5 681 c 128,-1,9
 510 641 510 641 510 596 c 256,10,11
 510 551 510 551 492.5 511.5 c 128,-1,12
 475 472 475 472 444.5 442.5 c 128,-1,13
 414 413 414 413 372.5 396 c 128,-1,14
 331 379 331 379 284 379 c 256,15,16
 237 379 237 379 196.5 396 c 128,-1,17
 156 413 156 413 125.5 442.5 c 128,-1,18
 95 472 95 472 77.5 511.5 c 128,-1,19
 60 551 60 551 60 596 c 256,0,1
EndSplineSet
EndChar

StartChar: cedilla
Encoding: 184 184 122
Width: 660
Flags: W
LayerCount: 2
Fore
SplineSet
194 -210 m 0,0,1
 209 -210 209 -210 223 -214 c 128,-1,2
 237 -218 237 -218 258 -218 c 0,3,4
 284 -218 284 -218 295 -208.5 c 128,-1,5
 306 -199 306 -199 306 -188 c 0,6,7
 306 -167 306 -167 275.5 -156.5 c 128,-1,8
 245 -146 245 -146 172 -136 c 1,9,-1
 218 17 l 1,10,-1
 410 17 l 1,11,-1
 393 -43 l 1,12,13
 438 -55 438 -55 468 -71 c 128,-1,14
 498 -87 498 -87 515.5 -106 c 128,-1,15
 533 -125 533 -125 540.5 -147.5 c 128,-1,16
 548 -170 548 -170 548 -194 c 0,17,18
 548 -229 548 -229 528.5 -257 c 128,-1,19
 509 -285 509 -285 474 -305 c 128,-1,20
 439 -325 439 -325 389.5 -336 c 128,-1,21
 340 -347 340 -347 280 -347 c 0,22,23
 239 -347 239 -347 204.5 -343 c 128,-1,24
 170 -339 170 -339 132 -331 c 1,25,-1
 160 -237 l 2,26,27
 166 -210 166 -210 194 -210 c 0,0,1
EndSplineSet
EndChar

StartChar: onesuperior
Encoding: 185 185 123
Width: 668
Flags: W
LayerCount: 2
Fore
SplineSet
150 1036 m 1,0,-1
 280 1036 l 1,1,-1
 280 1334 l 1,2,-1
 286 1388 l 1,3,-1
 236 1351 l 2,4,5
 216 1337 216 1337 194 1337 c 0,6,7
 176 1337 176 1337 161.5 1344.5 c 128,-1,8
 147 1352 147 1352 140 1361 c 2,9,-1
 72 1451 l 1,10,-1
 314 1650 l 1,11,-1
 500 1650 l 1,12,-1
 500 1036 l 1,13,-1
 602 1036 l 1,14,-1
 602 900 l 1,15,-1
 150 900 l 1,16,-1
 150 1036 l 1,0,-1
EndSplineSet
EndChar

StartChar: ordmasculine
Encoding: 186 186 124
Width: 788
Flags: W
LayerCount: 2
Fore
SplineSet
396 1477 m 0,0,1
 471 1477 471 1477 534 1455 c 128,-1,2
 597 1433 597 1433 642 1391.5 c 128,-1,3
 687 1350 687 1350 712.5 1290.5 c 128,-1,4
 738 1231 738 1231 738 1156 c 0,5,6
 738 1080 738 1080 712.5 1019.5 c 128,-1,7
 687 959 687 959 642 917 c 128,-1,8
 597 875 597 875 534 852.5 c 128,-1,9
 471 830 471 830 396 830 c 0,10,11
 320 830 320 830 256.5 852.5 c 128,-1,12
 193 875 193 875 147 917 c 128,-1,13
 101 959 101 959 75.5 1019.5 c 128,-1,14
 50 1080 50 1080 50 1156 c 0,15,16
 50 1231 50 1231 75.5 1290.5 c 128,-1,17
 101 1350 101 1350 147 1391.5 c 128,-1,18
 193 1433 193 1433 256.5 1455 c 128,-1,19
 320 1477 320 1477 396 1477 c 0,0,1
396 1004 m 0,20,21
 447 1004 447 1004 471.5 1038.5 c 128,-1,22
 496 1073 496 1073 496 1154 c 256,23,24
 496 1235 496 1235 471.5 1269 c 128,-1,25
 447 1303 447 1303 396 1303 c 0,26,27
 340 1303 340 1303 316 1269 c 128,-1,28
 292 1235 292 1235 292 1154 c 256,29,30
 292 1073 292 1073 316 1038.5 c 128,-1,31
 340 1004 340 1004 396 1004 c 0,20,21
EndSplineSet
EndChar

StartChar: guillemotright
Encoding: 187 187 125
Width: 1012
Flags: W
LayerCount: 2
Fore
SplineSet
280 123 m 1,0,-1
 178 169 l 2,1,2
 154 180 154 180 142.5 196 c 128,-1,3
 131 212 131 212 131 232 c 0,4,5
 131 256 131 256 146 282 c 2,6,-1
 266 498 l 2,7,8
 281 526 281 526 302 544 c 1,9,10
 292 553 292 553 283 565 c 128,-1,11
 274 577 274 577 266 591 c 2,12,-1
 146 806 l 2,13,14
 131 833 131 833 131 857 c 0,15,16
 131 877 131 877 142.5 893 c 128,-1,17
 154 909 154 909 178 920 c 2,18,-1
 280 966 l 1,19,-1
 542 564 l 1,20,-1
 542 525 l 1,21,-1
 280 123 l 1,0,-1
902 564 m 1,22,-1
 902 525 l 1,23,-1
 640 123 l 1,24,-1
 538 169 l 2,25,26
 514 180 514 180 502.5 196 c 128,-1,27
 491 212 491 212 491 232 c 0,28,29
 491 256 491 256 506 282 c 2,30,-1
 626 498 l 2,31,32
 641 526 641 526 662 544 c 1,33,34
 652 553 652 553 643 565 c 128,-1,35
 634 577 634 577 626 591 c 2,36,-1
 506 806 l 2,37,38
 491 833 491 833 491 857 c 0,39,40
 491 877 491 877 502.5 893 c 128,-1,41
 514 909 514 909 538 920 c 2,42,-1
 640 966 l 1,43,-1
 902 564 l 1,22,-1
EndSplineSet
EndChar

StartChar: onequarter
Encoding: 188 188 126
Width: 1424
Flags: W
LayerCount: 2
Fore
SplineSet
1342 295 m 1,0,-1
 1422 295 l 1,1,-1
 1422 188 l 2,2,3
 1422 173 1422 173 1411 161 c 128,-1,4
 1400 149 1400 149 1382 149 c 2,5,-1
 1342 149 l 1,6,-1
 1342 0 l 1,7,-1
 1158 0 l 1,8,-1
 1158 149 l 1,9,-1
 884 149 l 2,10,11
 855 149 855 149 838.5 161.5 c 128,-1,12
 822 174 822 174 818 193 c 2,13,-1
 800 285 l 1,14,-1
 1128 750 l 1,15,-1
 1342 750 l 1,16,-1
 1342 295 l 1,0,-1
130 844 m 1,17,-1
 260 844 l 1,18,-1
 260 1142 l 1,19,-1
 266 1196 l 1,20,-1
 216 1159 l 2,21,22
 196 1145 196 1145 174 1145 c 0,23,24
 156 1145 156 1145 141.5 1152.5 c 128,-1,25
 127 1160 127 1160 120 1169 c 2,26,-1
 52 1259 l 1,27,-1
 294 1458 l 1,28,-1
 480 1458 l 1,29,-1
 480 844 l 1,30,-1
 582 844 l 1,31,-1
 582 708 l 1,32,-1
 130 708 l 1,33,-1
 130 844 l 1,17,-1
1158 404 m 2,34,35
 1158 430 1158 430 1159.5 461 c 128,-1,36
 1161 492 1161 492 1165 525 c 1,37,-1
 999 295 l 1,38,-1
 1158 295 l 1,39,-1
 1158 404 l 2,34,35
476 85 m 2,40,41
 460 60 460 60 443.5 43.5 c 128,-1,42
 427 27 427 27 408.5 17.5 c 128,-1,43
 390 8 390 8 369 4 c 128,-1,44
 348 0 348 0 324 0 c 2,45,-1
 192 0 l 1,46,-1
 1040 1359 l 2,47,48
 1070 1406 1070 1406 1108 1431.5 c 128,-1,49
 1146 1457 1146 1457 1200 1457 c 2,50,-1
 1332 1457 l 1,51,-1
 476 85 l 2,40,41
EndSplineSet
EndChar

StartChar: onehalf
Encoding: 189 189 127
Width: 1424
Flags: W
LayerCount: 2
Fore
SplineSet
1128 758 m 0,0,1
 1192 758 1192 758 1240.5 740 c 128,-1,2
 1289 722 1289 722 1321.5 691 c 128,-1,3
 1354 660 1354 660 1370 619.5 c 128,-1,4
 1386 579 1386 579 1386 534 c 0,5,6
 1386 493 1386 493 1373.5 459 c 128,-1,7
 1361 425 1361 425 1340.5 394 c 128,-1,8
 1320 363 1320 363 1293 334 c 128,-1,9
 1266 305 1266 305 1238 275 c 2,10,-1
 1137 172 l 1,11,12
 1170 182 1170 182 1202 188 c 128,-1,13
 1234 194 1234 194 1260 194 c 2,14,-1
 1328 194 l 2,15,16
 1363 194 1363 194 1382.5 175.5 c 128,-1,17
 1402 157 1402 157 1402 126 c 2,18,-1
 1402 0 l 1,19,-1
 832 0 l 1,20,-1
 832 69 l 2,21,22
 832 89 832 89 840 112 c 128,-1,23
 848 135 848 135 868 154 c 2,24,-1
 1066 348 l 2,25,26
 1086 368 1086 368 1103.5 391.5 c 128,-1,27
 1121 415 1121 415 1134 438.5 c 128,-1,28
 1147 462 1147 462 1154.5 484.5 c 128,-1,29
 1162 507 1162 507 1162 526 c 0,30,31
 1162 550 1162 550 1152 568.5 c 128,-1,32
 1142 587 1142 587 1116 587 c 0,33,34
 1095 587 1095 587 1082.5 577 c 128,-1,35
 1070 567 1070 567 1058 545 c 0,36,37
 1044 525 1044 525 1029 513.5 c 128,-1,38
 1014 502 1014 502 986 502 c 0,39,40
 972 502 972 502 956 505 c 2,41,-1
 832 524 l 1,42,43
 841 585 841 585 866 629 c 128,-1,44
 891 673 891 673 929.5 701.5 c 128,-1,45
 968 730 968 730 1018.5 744 c 128,-1,46
 1069 758 1069 758 1128 758 c 0,0,1
130 844 m 1,47,-1
 260 844 l 1,48,-1
 260 1142 l 1,49,-1
 266 1196 l 1,50,-1
 216 1159 l 2,51,52
 196 1145 196 1145 174 1145 c 0,53,54
 156 1145 156 1145 141.5 1152.5 c 128,-1,55
 127 1160 127 1160 120 1169 c 2,56,-1
 52 1259 l 1,57,-1
 294 1458 l 1,58,-1
 480 1458 l 1,59,-1
 480 844 l 1,60,-1
 582 844 l 1,61,-1
 582 708 l 1,62,-1
 130 708 l 1,63,-1
 130 844 l 1,47,-1
438 85 m 2,64,65
 422 60 422 60 405.5 43.5 c 128,-1,66
 389 27 389 27 370.5 17.5 c 128,-1,67
 352 8 352 8 331 4 c 128,-1,68
 310 0 310 0 286 0 c 2,69,-1
 154 0 l 1,70,-1
 1002 1359 l 2,71,72
 1032 1406 1032 1406 1070 1431.5 c 128,-1,73
 1108 1457 1108 1457 1162 1457 c 2,74,-1
 1294 1457 l 1,75,-1
 438 85 l 2,64,65
EndSplineSet
EndChar

StartChar: threequarters
Encoding: 190 190 128
Width: 1424
Flags: W
LayerCount: 2
Fore
SplineSet
1342 295 m 1,0,-1
 1422 295 l 1,1,-1
 1422 188 l 2,2,3
 1422 173 1422 173 1411 161 c 128,-1,4
 1400 149 1400 149 1382 149 c 2,5,-1
 1342 149 l 1,6,-1
 1342 0 l 1,7,-1
 1158 0 l 1,8,-1
 1158 149 l 1,9,-1
 884 149 l 2,10,11
 855 149 855 149 838.5 161.5 c 128,-1,12
 822 174 822 174 818 193 c 2,13,-1
 800 285 l 1,14,-1
 1128 750 l 1,15,-1
 1342 750 l 1,16,-1
 1342 295 l 1,0,-1
344 1466 m 0,17,18
 406 1466 406 1466 453.5 1448.5 c 128,-1,19
 501 1431 501 1431 532.5 1402.5 c 128,-1,20
 564 1374 564 1374 580 1339 c 128,-1,21
 596 1304 596 1304 596 1269 c 0,22,23
 596 1207 596 1207 572.5 1163.5 c 128,-1,24
 549 1120 549 1120 494 1094 c 1,25,26
 551 1075 551 1075 579.5 1040 c 128,-1,27
 608 1005 608 1005 608 948 c 0,28,29
 608 882 608 882 583.5 835 c 128,-1,30
 559 788 559 788 520 758 c 128,-1,31
 481 728 481 728 432 714 c 128,-1,32
 383 700 383 700 334 700 c 0,33,34
 282 700 282 700 238.5 708.5 c 128,-1,35
 195 717 195 717 159 740.5 c 128,-1,36
 123 764 123 764 94.5 804 c 128,-1,37
 66 844 66 844 44 907 c 1,38,-1
 140 945 l 2,39,40
 165 954 165 954 188 954 c 0,41,42
 235 954 235 954 252 922 c 0,43,44
 266 896 266 896 285 886 c 128,-1,45
 304 876 304 876 322 876 c 0,46,47
 352 876 352 876 369 893.5 c 128,-1,48
 386 911 386 911 386 940 c 0,49,50
 386 965 386 965 380.5 980 c 128,-1,51
 375 995 375 995 360.5 1003 c 128,-1,52
 346 1011 346 1011 321.5 1013.5 c 128,-1,53
 297 1016 297 1016 260 1016 c 1,54,-1
 260 1156 l 1,55,56
 300 1156 300 1156 324.5 1161 c 128,-1,57
 349 1166 349 1166 362.5 1175 c 128,-1,58
 376 1184 376 1184 380 1198 c 128,-1,59
 384 1212 384 1212 384 1230 c 0,60,61
 384 1256 384 1256 374 1273.5 c 128,-1,62
 364 1291 364 1291 332 1291 c 0,63,64
 308 1291 308 1291 295.5 1282 c 128,-1,65
 283 1273 283 1273 274 1255 c 0,66,67
 261 1232 261 1232 247.5 1221 c 128,-1,68
 234 1210 234 1210 209 1210 c 0,69,70
 195 1210 195 1210 176 1213 c 2,71,-1
 62 1232 l 1,72,73
 71 1293 71 1293 96 1337 c 128,-1,74
 121 1381 121 1381 158 1409.5 c 128,-1,75
 195 1438 195 1438 242.5 1452 c 128,-1,76
 290 1466 290 1466 344 1466 c 0,17,18
1158 404 m 2,77,78
 1158 430 1158 430 1159.5 461 c 128,-1,79
 1161 492 1161 492 1165 525 c 1,80,-1
 999 295 l 1,81,-1
 1158 295 l 1,82,-1
 1158 404 l 2,77,78
476 85 m 2,83,84
 460 60 460 60 443.5 43.5 c 128,-1,85
 427 27 427 27 408.5 17.5 c 128,-1,86
 390 8 390 8 369 4 c 128,-1,87
 348 0 348 0 324 0 c 2,88,-1
 192 0 l 1,89,-1
 1040 1359 l 2,90,91
 1070 1406 1070 1406 1108 1431.5 c 128,-1,92
 1146 1457 1146 1457 1200 1457 c 2,93,-1
 1332 1457 l 1,94,-1
 476 85 l 2,83,84
EndSplineSet
EndChar

StartChar: questiondown
Encoding: 191 191 129
Width: 882
Flags: W
LayerCount: 2
Fore
SplineSet
864 -196 m 1,0,1
 826 -227 826 -227 783 -254 c 128,-1,2
 740 -281 740 -281 690 -301.5 c 128,-1,3
 640 -322 640 -322 582.5 -333.5 c 128,-1,4
 525 -345 525 -345 458 -345 c 0,5,6
 364 -345 364 -345 288.5 -321 c 128,-1,7
 213 -297 213 -297 160 -252.5 c 128,-1,8
 107 -208 107 -208 78.5 -144 c 128,-1,9
 50 -80 50 -80 50 0 c 0,10,11
 50 76 50 76 71 129 c 128,-1,12
 92 182 92 182 124.5 218.5 c 128,-1,13
 157 255 157 255 195.5 280.5 c 128,-1,14
 234 306 234 306 268.5 327.5 c 128,-1,15
 303 349 303 349 328.5 371.5 c 128,-1,16
 354 394 354 394 360 426 c 2,17,-1
 388 565 l 1,18,-1
 600 565 l 1,19,-1
 622 405 l 2,20,21
 623 396 623 396 623.5 389.5 c 128,-1,22
 624 383 624 383 624 377 c 0,23,24
 624 331 624 331 603 300 c 128,-1,25
 582 269 582 269 550 246 c 128,-1,26
 518 223 518 223 481 203.5 c 128,-1,27
 444 184 444 184 412 160.5 c 128,-1,28
 380 137 380 137 359 105.5 c 128,-1,29
 338 74 338 74 338 27 c 0,30,31
 338 -33 338 -33 377.5 -68.5 c 128,-1,32
 417 -104 417 -104 486 -104 c 0,33,34
 538 -104 538 -104 574 -93 c 128,-1,35
 610 -82 610 -82 635.5 -68.5 c 128,-1,36
 661 -55 661 -55 680 -44 c 128,-1,37
 699 -33 699 -33 718 -33 c 0,38,39
 761 -33 761 -33 782 -70 c 2,40,-1
 864 -196 l 1,0,1
324 883 m 256,41,42
 324 919 324 919 337.5 950 c 128,-1,43
 351 981 351 981 374.5 1004 c 128,-1,44
 398 1027 398 1027 430 1040.5 c 128,-1,45
 462 1054 462 1054 500 1054 c 0,46,47
 537 1054 537 1054 569 1040.5 c 128,-1,48
 601 1027 601 1027 625 1004 c 128,-1,49
 649 981 649 981 662.5 950 c 128,-1,50
 676 919 676 919 676 883 c 256,51,52
 676 847 676 847 662.5 815.5 c 128,-1,53
 649 784 649 784 625 761 c 128,-1,54
 601 738 601 738 569 725 c 128,-1,55
 537 712 537 712 500 712 c 0,56,57
 462 712 462 712 430 725 c 128,-1,58
 398 738 398 738 374.5 761 c 128,-1,59
 351 784 351 784 337.5 815.5 c 128,-1,60
 324 847 324 847 324 883 c 256,41,42
EndSplineSet
EndChar

StartChar: AE
Encoding: 198 198 136
Width: 1876
Flags: W
LayerCount: 2
Fore
SplineSet
684 1457 m 1,0,-1
 1804 1457 l 1,1,-1
 1804 1197 l 1,2,-1
 1159 1197 l 1,3,-1
 1200 857 l 1,4,-1
 1664 857 l 1,5,-1
 1664 607 l 1,6,-1
 1230 607 l 1,7,-1
 1272 260 l 1,8,-1
 1804 260 l 1,9,-1
 1804 0 l 1,10,-1
 984 0 l 1,11,-1
 944 327 l 1,12,-1
 461 327 l 1,13,-1
 350 73 l 2,14,15
 336 40 336 40 302.5 20 c 128,-1,16
 269 0 269 0 224 0 c 2,17,-1
 -32 0 l 1,18,-1
 684 1457 l 1,0,-1
562 557 m 1,19,-1
 916 557 l 1,20,-1
 838 1209 l 1,21,22
 818 1150 818 1150 798 1099 c 128,-1,23
 778 1048 778 1048 758 1005 c 2,24,-1
 562 557 l 1,19,-1
EndSplineSet
EndChar

StartChar: Ccedilla
Encoding: 199 199 137
Width: 1314
Flags: W
LayerCount: 2
Fore
SplineSet
622 -210 m 0,0,1
 637 -210 637 -210 651 -214 c 128,-1,2
 665 -218 665 -218 686 -218 c 0,3,4
 712 -218 712 -218 723 -208.5 c 128,-1,5
 734 -199 734 -199 734 -188 c 0,6,7
 734 -167 734 -167 703.5 -156.5 c 128,-1,8
 673 -146 673 -146 600 -136 c 1,9,-1
 638 -9 l 1,10,11
 496 9 496 9 384.5 71.5 c 128,-1,12
 273 134 273 134 195.5 231 c 128,-1,13
 118 328 118 328 77 455 c 128,-1,14
 36 582 36 582 36 729 c 0,15,16
 36 892 36 892 92 1028.5 c 128,-1,17
 148 1165 148 1165 248.5 1264 c 128,-1,18
 349 1363 349 1363 489 1418 c 128,-1,19
 629 1473 629 1473 798 1473 c 0,20,21
 880 1473 880 1473 952.5 1458.5 c 128,-1,22
 1025 1444 1025 1444 1088 1418.5 c 128,-1,23
 1151 1393 1151 1393 1204 1357.5 c 128,-1,24
 1257 1322 1257 1322 1298 1279 c 1,25,-1
 1184 1126 l 2,26,27
 1173 1112 1173 1112 1158 1100.5 c 128,-1,28
 1143 1089 1143 1089 1116 1089 c 0,29,30
 1098 1089 1098 1089 1082 1097 c 128,-1,31
 1066 1105 1066 1105 1048 1116.5 c 128,-1,32
 1030 1128 1030 1128 1008.5 1141.5 c 128,-1,33
 987 1155 987 1155 957.5 1166.5 c 128,-1,34
 928 1178 928 1178 888.5 1186 c 128,-1,35
 849 1194 849 1194 796 1194 c 0,36,37
 704 1194 704 1194 628 1161.5 c 128,-1,38
 552 1129 552 1129 497.5 1068.5 c 128,-1,39
 443 1008 443 1008 412.5 922 c 128,-1,40
 382 836 382 836 382 729 c 0,41,42
 382 617 382 617 412.5 530 c 128,-1,43
 443 443 443 443 495.5 383.5 c 128,-1,44
 548 324 548 324 618 293 c 128,-1,45
 688 262 688 262 768 262 c 0,46,47
 814 262 814 262 852 266.5 c 128,-1,48
 890 271 890 271 922.5 282 c 128,-1,49
 955 293 955 293 984.5 310.5 c 128,-1,50
 1014 328 1014 328 1044 354 c 0,51,52
 1056 364 1056 364 1070 370.5 c 128,-1,53
 1084 377 1084 377 1099 377 c 0,54,55
 1111 377 1111 377 1123 372.5 c 128,-1,56
 1135 368 1135 368 1146 357 c 2,57,-1
 1280 216 l 1,58,59
 1203 115 1203 115 1090.5 57.5 c 128,-1,60
 978 0 978 0 829 -12 c 1,61,-1
 821 -43 l 1,62,63
 866 -55 866 -55 896 -71 c 128,-1,64
 926 -87 926 -87 943.5 -106 c 128,-1,65
 961 -125 961 -125 968.5 -147.5 c 128,-1,66
 976 -170 976 -170 976 -194 c 0,67,68
 976 -229 976 -229 956.5 -257 c 128,-1,69
 937 -285 937 -285 902 -305 c 128,-1,70
 867 -325 867 -325 817.5 -336 c 128,-1,71
 768 -347 768 -347 708 -347 c 0,72,73
 667 -347 667 -347 632.5 -343 c 128,-1,74
 598 -339 598 -339 560 -331 c 1,75,-1
 588 -237 l 2,76,77
 594 -210 594 -210 622 -210 c 0,0,1
EndSplineSet
EndChar

StartChar: Eth
Encoding: 208 208 146
Width: 1584
Flags: W
LayerCount: 2
Fore
SplineSet
54 823 m 1,0,-1
 220 823 l 1,1,-1
 220 1457 l 1,2,-1
 786 1457 l 2,3,4
 956 1457 956 1457 1095.5 1402 c 128,-1,5
 1235 1347 1235 1347 1334 1250 c 128,-1,6
 1433 1153 1433 1153 1487.5 1019.5 c 128,-1,7
 1542 886 1542 886 1542 729 c 0,8,9
 1542 571 1542 571 1487.5 437.5 c 128,-1,10
 1433 304 1433 304 1334 206.5 c 128,-1,11
 1235 109 1235 109 1095.5 54.5 c 128,-1,12
 956 0 956 0 786 0 c 2,13,-1
 220 0 l 1,14,-1
 220 639 l 1,15,-1
 54 639 l 1,16,-1
 54 823 l 1,0,-1
1196 729 m 0,17,18
 1196 837 1196 837 1168 924 c 128,-1,19
 1140 1011 1140 1011 1087.5 1071.5 c 128,-1,20
 1035 1132 1035 1132 959 1164.5 c 128,-1,21
 883 1197 883 1197 786 1197 c 2,22,-1
 560 1197 l 1,23,-1
 560 823 l 1,24,-1
 904 823 l 1,25,-1
 904 639 l 1,26,-1
 560 639 l 1,27,-1
 560 260 l 1,28,-1
 786 260 l 2,29,30
 883 260 883 260 959 292.5 c 128,-1,31
 1035 325 1035 325 1087.5 385.5 c 128,-1,32
 1140 446 1140 446 1168 533 c 128,-1,33
 1196 620 1196 620 1196 729 c 0,17,18
EndSplineSet
EndChar

StartChar: multiply
Encoding: 215 215 153
Width: 1160
Flags: W
LayerCount: 2
Fore
SplineSet
1048 982 m 1,0,-1
 738 672 l 1,1,-1
 1068 343 l 1,2,-1
 904 186 l 1,3,-1
 578 512 l 1,4,-1
 250 184 l 1,5,-1
 86 341 l 1,6,-1
 417 672 l 1,7,-1
 106 984 l 1,8,-1
 268 1141 l 1,9,-1
 577 832 l 1,10,-1
 884 1139 l 1,11,-1
 1048 982 l 1,0,-1
EndSplineSet
EndChar

StartChar: Oslash
Encoding: 216 216 154
Width: 1600
Flags: W
LayerCount: 2
Fore
SplineSet
1558 729 m 0,0,1
 1558 571 1558 571 1503.5 435 c 128,-1,2
 1449 299 1449 299 1350 198.5 c 128,-1,3
 1251 98 1251 98 1111.5 41 c 128,-1,4
 972 -16 972 -16 802 -16 c 0,5,6
 708 -16 708 -16 624 1.5 c 128,-1,7
 540 19 540 19 465 52 c 1,8,-1
 408 -27 l 2,9,10
 391 -51 391 -51 369 -67.5 c 128,-1,11
 347 -84 347 -84 323 -94 c 128,-1,12
 299 -104 299 -104 273.5 -108.5 c 128,-1,13
 248 -113 248 -113 224 -113 c 2,14,-1
 92 -113 l 1,15,-1
 291 163 l 1,16,17
 173 265 173 265 108.5 410 c 128,-1,18
 44 555 44 555 44 729 c 0,19,20
 44 887 44 887 98.5 1023 c 128,-1,21
 153 1159 153 1159 252.5 1259 c 128,-1,22
 352 1359 352 1359 492 1416 c 128,-1,23
 632 1473 632 1473 802 1473 c 0,24,25
 907 1473 907 1473 999.5 1451 c 128,-1,26
 1092 1429 1092 1429 1173 1387 c 1,27,-1
 1214 1444 l 2,28,29
 1230 1466 1230 1466 1243.5 1481 c 128,-1,30
 1257 1496 1257 1496 1272 1505.5 c 128,-1,31
 1287 1515 1287 1515 1306 1519 c 128,-1,32
 1325 1523 1325 1523 1352 1523 c 2,33,-1
 1524 1523 l 1,34,-1
 1340 1268 l 1,35,36
 1445 1166 1445 1166 1501.5 1028 c 128,-1,37
 1558 890 1558 890 1558 729 c 0,0,1
390 729 m 0,38,39
 390 537 390 537 474 418 c 1,40,-1
 1001 1149 l 1,41,42
 959 1171 959 1171 909 1182.5 c 128,-1,43
 859 1194 859 1194 802 1194 c 0,44,45
 704 1194 704 1194 627.5 1162 c 128,-1,46
 551 1130 551 1130 498.5 1070 c 128,-1,47
 446 1010 446 1010 418 923.5 c 128,-1,48
 390 837 390 837 390 729 c 0,38,39
1212 729 m 0,49,50
 1212 810 1212 810 1196 879 c 128,-1,51
 1180 948 1180 948 1150 1003 c 1,52,-1
 638 292 l 1,53,54
 709 264 709 264 802 264 c 0,55,56
 899 264 899 264 975 295.5 c 128,-1,57
 1051 327 1051 327 1103.5 387 c 128,-1,58
 1156 447 1156 447 1184 533.5 c 128,-1,59
 1212 620 1212 620 1212 729 c 0,49,50
EndSplineSet
EndChar

StartChar: Thorn
Encoding: 222 222 160
Width: 1276
Flags: W
LayerCount: 2
Fore
SplineSet
458 252 m 1,0,-1
 458 0 l 1,1,-1
 120 0 l 1,2,-1
 120 1457 l 1,3,-1
 458 1457 l 1,4,-1
 458 1222 l 1,5,-1
 634 1222 l 2,6,7
 788 1222 788 1222 898.5 1185.5 c 128,-1,8
 1009 1149 1009 1149 1080.5 1085 c 128,-1,9
 1152 1021 1152 1021 1186 934 c 128,-1,10
 1220 847 1220 847 1220 746 c 0,11,12
 1220 637 1220 637 1185 546 c 128,-1,13
 1150 455 1150 455 1078 390 c 128,-1,14
 1006 325 1006 325 895.5 288.5 c 128,-1,15
 785 252 785 252 634 252 c 2,16,-1
 458 252 l 1,0,-1
458 507 m 1,17,-1
 634 507 l 2,18,19
 766 507 766 507 824 570 c 128,-1,20
 882 633 882 633 882 746 c 0,21,22
 882 796 882 796 867 837 c 128,-1,23
 852 878 852 878 821.5 907.5 c 128,-1,24
 791 937 791 937 744.5 953 c 128,-1,25
 698 969 698 969 634 969 c 2,26,-1
 458 969 l 1,27,-1
 458 507 l 1,17,-1
EndSplineSet
EndChar

StartChar: germandbls
Encoding: 223 223 161
Width: 1316
Flags: W
LayerCount: 2
Fore
SplineSet
724 1485 m 0,0,1
 854 1485 854 1485 944 1448 c 128,-1,2
 1034 1411 1034 1411 1089.5 1356 c 128,-1,3
 1145 1301 1145 1301 1169.5 1239 c 128,-1,4
 1194 1177 1194 1177 1194 1126 c 0,5,6
 1194 1070 1194 1070 1176 1030 c 128,-1,7
 1158 990 1158 990 1131 961 c 128,-1,8
 1104 932 1104 932 1073 910.5 c 128,-1,9
 1042 889 1042 889 1015 870 c 128,-1,10
 988 851 988 851 970 831.5 c 128,-1,11
 952 812 952 812 952 786 c 0,12,13
 952 758 952 758 975.5 735.5 c 128,-1,14
 999 713 999 713 1033.5 689 c 128,-1,15
 1068 665 1068 665 1109 637 c 128,-1,16
 1150 609 1150 609 1184.5 569.5 c 128,-1,17
 1219 530 1219 530 1242.5 475.5 c 128,-1,18
 1266 421 1266 421 1266 345 c 0,19,20
 1266 254 1266 254 1231.5 186.5 c 128,-1,21
 1197 119 1197 119 1140 74 c 128,-1,22
 1083 29 1083 29 1008 6.5 c 128,-1,23
 933 -16 933 -16 852 -16 c 0,24,25
 808 -16 808 -16 762 -6 c 128,-1,26
 716 4 716 4 672.5 21 c 128,-1,27
 629 38 629 38 590.5 61.5 c 128,-1,28
 552 85 552 85 522 112 c 1,29,-1
 594 226 l 2,30,31
 607 246 607 246 625 257.5 c 128,-1,32
 643 269 643 269 672 269 c 0,33,34
 699 269 699 269 721 257 c 128,-1,35
 743 245 743 245 765.5 231 c 128,-1,36
 788 217 788 217 815 205 c 128,-1,37
 842 193 842 193 880 193 c 0,38,39
 919 193 919 193 947.5 221.5 c 128,-1,40
 976 250 976 250 976 297 c 0,41,42
 976 337 976 337 950 365 c 128,-1,43
 924 393 924 393 885 417 c 128,-1,44
 846 441 846 441 801 465.5 c 128,-1,45
 756 490 756 490 717 524.5 c 128,-1,46
 678 559 678 559 652 606.5 c 128,-1,47
 626 654 626 654 626 725 c 0,48,49
 626 785 626 785 645.5 828 c 128,-1,50
 665 871 665 871 695 902.5 c 128,-1,51
 725 934 725 934 759 959 c 128,-1,52
 793 984 793 984 823 1008 c 128,-1,53
 853 1032 853 1032 872.5 1059.5 c 128,-1,54
 892 1087 892 1087 892 1124 c 0,55,56
 892 1191 892 1191 848.5 1229.5 c 128,-1,57
 805 1268 805 1268 710 1268 c 0,58,59
 647 1268 647 1268 602.5 1247.5 c 128,-1,60
 558 1227 558 1227 530 1188.5 c 128,-1,61
 502 1150 502 1150 489 1094 c 128,-1,62
 476 1038 476 1038 476 968 c 2,63,-1
 476 0 l 1,64,-1
 166 0 l 1,65,-1
 166 978 l 2,66,67
 166 1085 166 1085 203.5 1177.5 c 128,-1,68
 241 1270 241 1270 313 1338.5 c 128,-1,69
 385 1407 385 1407 488.5 1446 c 128,-1,70
 592 1485 592 1485 724 1485 c 0,0,1
EndSplineSet
EndChar

StartChar: ae
Encoding: 230 230 168
Width: 1668
Flags: W
LayerCount: 2
Fore
SplineSet
1180 1053 m 0,0,1
 1272 1053 1272 1053 1351 1018 c 128,-1,2
 1430 983 1430 983 1487.5 918.5 c 128,-1,3
 1545 854 1545 854 1577.5 762.5 c 128,-1,4
 1610 671 1610 671 1610 558 c 0,5,6
 1610 523 1610 523 1607 501 c 128,-1,7
 1604 479 1604 479 1596.5 466 c 128,-1,8
 1589 453 1589 453 1576 448 c 128,-1,9
 1563 443 1563 443 1542 443 c 2,10,-1
 972 443 l 1,11,12
 989 324 989 324 1049.5 270 c 128,-1,13
 1110 216 1110 216 1202 216 c 0,14,15
 1269 216 1269 216 1308.5 228 c 128,-1,16
 1348 240 1348 240 1373.5 254 c 128,-1,17
 1399 268 1399 268 1417.5 280 c 128,-1,18
 1436 292 1436 292 1462 292 c 0,19,20
 1505 292 1505 292 1524 265 c 2,21,-1
 1608 162 l 1,22,23
 1560 107 1560 107 1505.5 72.5 c 128,-1,24
 1451 38 1451 38 1394 18.5 c 128,-1,25
 1337 -1 1337 -1 1280.5 -8.5 c 128,-1,26
 1224 -16 1224 -16 1172 -16 c 0,27,28
 1121 -16 1121 -16 1071 -5.5 c 128,-1,29
 1021 5 1021 5 975 27.5 c 128,-1,30
 929 50 929 50 888.5 85 c 128,-1,31
 848 120 848 120 815 168 c 1,32,33
 783 120 783 120 738.5 85 c 128,-1,34
 694 50 694 50 641 27.5 c 128,-1,35
 588 5 588 5 528 -5.5 c 128,-1,36
 468 -16 468 -16 404 -16 c 0,37,38
 244 -16 244 -16 157 62 c 128,-1,39
 70 140 70 140 70 281 c 0,40,41
 70 318 70 318 82 357 c 128,-1,42
 94 396 94 396 121.5 433.5 c 128,-1,43
 149 471 149 471 194.5 504.5 c 128,-1,44
 240 538 240 538 307.5 564 c 128,-1,45
 375 590 375 590 466 606 c 128,-1,46
 557 622 557 622 676 625 c 1,47,-1
 676 648 l 2,48,49
 676 739 676 739 638.5 784 c 128,-1,50
 601 829 601 829 532 829 c 0,51,52
 477 829 477 829 442 815.5 c 128,-1,53
 407 802 407 802 379.5 785.5 c 128,-1,54
 352 769 352 769 326 755.5 c 128,-1,55
 300 742 300 742 264 742 c 0,56,57
 232 742 232 742 209.5 757.5 c 128,-1,58
 187 773 187 773 174 796 c 2,59,-1
 118 893 l 1,60,61
 212 976 212 976 314 1016.5 c 128,-1,62
 416 1057 416 1057 538 1057 c 0,63,64
 651 1057 651 1057 726 1018 c 128,-1,65
 801 979 801 979 843 910 c 1,66,67
 902 976 902 976 986 1014.5 c 128,-1,68
 1070 1053 1070 1053 1180 1053 c 0,0,1
1166 839 m 0,69,70
 1078 839 1078 839 1030.5 783.5 c 128,-1,71
 983 728 983 728 970 623 c 1,72,-1
 1334 623 l 1,73,74
 1334 660 1334 660 1325.5 698.5 c 128,-1,75
 1317 737 1317 737 1297.5 768 c 128,-1,76
 1278 799 1278 799 1245.5 819 c 128,-1,77
 1213 839 1213 839 1166 839 c 0,69,70
676 443 m 1,78,79
 583 438 583 438 523 424.5 c 128,-1,80
 463 411 463 411 428 391 c 128,-1,81
 393 371 393 371 379.5 346.5 c 128,-1,82
 366 322 366 322 366 296 c 0,83,84
 366 242 366 242 395 215.5 c 128,-1,85
 424 189 424 189 480 189 c 0,86,87
 522 189 522 189 558 201.5 c 128,-1,88
 594 214 594 214 620 242 c 128,-1,89
 646 270 646 270 661 315.5 c 128,-1,90
 676 361 676 361 676 427 c 2,91,-1
 676 443 l 1,78,79
EndSplineSet
EndChar

StartChar: ccedilla
Encoding: 231 231 169
Width: 972
Flags: W
LayerCount: 2
Fore
SplineSet
410 -210 m 0,0,1
 425 -210 425 -210 439 -214 c 128,-1,2
 453 -218 453 -218 474 -218 c 0,3,4
 500 -218 500 -218 511 -208.5 c 128,-1,5
 522 -199 522 -199 522 -188 c 0,6,7
 522 -167 522 -167 491.5 -156.5 c 128,-1,8
 461 -146 461 -146 388 -136 c 1,9,-1
 427 -5 l 1,10,11
 349 11 349 11 280.5 54 c 128,-1,12
 212 97 212 97 161 164 c 128,-1,13
 110 231 110 231 81 320.5 c 128,-1,14
 52 410 52 410 52 521 c 0,15,16
 52 633 52 633 85.5 730.5 c 128,-1,17
 119 828 119 828 184.5 899.5 c 128,-1,18
 250 971 250 971 346.5 1012 c 128,-1,19
 443 1053 443 1053 570 1053 c 0,20,21
 692 1053 692 1053 784 1014 c 128,-1,22
 876 975 876 975 950 900 c 1,23,-1
 868 791 l 2,24,25
 854 774 854 774 841 764 c 128,-1,26
 828 754 828 754 804 754 c 0,27,28
 781 754 781 754 762.5 765 c 128,-1,29
 744 776 744 776 721 789.5 c 128,-1,30
 698 803 698 803 667 814 c 128,-1,31
 636 825 636 825 590 825 c 0,32,33
 533 825 533 825 491.5 804 c 128,-1,34
 450 783 450 783 423 744 c 128,-1,35
 396 705 396 705 383 648.5 c 128,-1,36
 370 592 370 592 370 521 c 0,37,38
 370 372 370 372 427.5 292 c 128,-1,39
 485 212 485 212 586 212 c 0,40,41
 640 212 640 212 671.5 225.5 c 128,-1,42
 703 239 703 239 725 255.5 c 128,-1,43
 747 272 747 272 765.5 286 c 128,-1,44
 784 300 784 300 812 300 c 0,45,46
 849 300 849 300 868 273 c 2,47,-1
 958 162 l 1,48,49
 920 118 920 118 878.5 87.5 c 128,-1,50
 837 57 837 57 793.5 37 c 128,-1,51
 750 17 750 17 706 5.5 c 128,-1,52
 662 -6 662 -6 618 -11 c 1,53,-1
 609 -43 l 1,54,55
 654 -55 654 -55 684 -71 c 128,-1,56
 714 -87 714 -87 731.5 -106 c 128,-1,57
 749 -125 749 -125 756.5 -147.5 c 128,-1,58
 764 -170 764 -170 764 -194 c 0,59,60
 764 -229 764 -229 744.5 -257 c 128,-1,61
 725 -285 725 -285 690 -305 c 128,-1,62
 655 -325 655 -325 605.5 -336 c 128,-1,63
 556 -347 556 -347 496 -347 c 0,64,65
 455 -347 455 -347 420.5 -343 c 128,-1,66
 386 -339 386 -339 348 -331 c 1,67,-1
 376 -237 l 2,68,69
 382 -210 382 -210 410 -210 c 0,0,1
EndSplineSet
EndChar

StartChar: eth
Encoding: 240 240 178
Width: 1162
Flags: W
LayerCount: 2
Fore
SplineSet
358 1059 m 2,0,1
 345 1080 345 1080 345 1099 c 0,2,3
 345 1116 345 1116 355.5 1131 c 128,-1,4
 366 1146 366 1146 386 1155 c 2,5,-1
 432 1177 l 1,6,7
 412 1184 412 1184 392 1190.5 c 128,-1,8
 372 1197 372 1197 350 1203 c 0,9,10
 319 1211 319 1211 299.5 1232.5 c 128,-1,11
 280 1254 280 1254 280 1290 c 0,12,13
 280 1314 280 1314 290 1343 c 2,14,-1
 326 1446 l 1,15,16
 432 1429 432 1429 529 1397 c 128,-1,17
 626 1365 626 1365 711 1316 c 1,18,-1
 894 1423 l 1,19,-1
 956 1325 l 2,20,21
 967 1308 967 1308 967 1289 c 0,22,23
 967 1272 967 1272 958 1257.5 c 128,-1,24
 949 1243 949 1243 932 1235 c 2,25,-1
 866 1202 l 1,26,27
 975 1099 975 1099 1037.5 952.5 c 128,-1,28
 1100 806 1100 806 1100 611 c 0,29,30
 1100 461 1100 461 1064.5 344.5 c 128,-1,31
 1029 228 1029 228 960.5 147.5 c 128,-1,32
 892 67 892 67 792 25.5 c 128,-1,33
 692 -16 692 -16 564 -16 c 0,34,35
 455 -16 455 -16 362 17.5 c 128,-1,36
 269 51 269 51 201 115 c 128,-1,37
 133 179 133 179 94.5 271 c 128,-1,38
 56 363 56 363 56 480 c 0,39,40
 56 570 56 570 89.5 652.5 c 128,-1,41
 123 735 123 735 184.5 798 c 128,-1,42
 246 861 246 861 332 898 c 128,-1,43
 418 935 418 935 522 935 c 0,44,45
 612 935 612 935 682.5 907 c 128,-1,46
 753 879 753 879 810 828 c 1,47,48
 790 910 790 910 747 973 c 128,-1,49
 704 1036 704 1036 628 1087 c 1,50,-1
 416 963 l 1,51,-1
 358 1059 l 2,0,1
572 212 m 0,52,53
 617 212 617 212 658 228.5 c 128,-1,54
 699 245 699 245 731.5 284.5 c 128,-1,55
 764 324 764 324 784 391.5 c 128,-1,56
 804 459 804 459 807 561 c 1,57,58
 778 624 778 624 724.5 665.5 c 128,-1,59
 671 707 671 707 586 707 c 0,60,61
 532 707 532 707 490.5 689 c 128,-1,62
 449 671 449 671 421 640 c 128,-1,63
 393 609 393 609 378.5 567.5 c 128,-1,64
 364 526 364 526 364 478 c 0,65,66
 364 413 364 413 380 363 c 128,-1,67
 396 313 396 313 424 279.5 c 128,-1,68
 452 246 452 246 490 229 c 128,-1,69
 528 212 528 212 572 212 c 0,52,53
EndSplineSet
EndChar

StartChar: divide
Encoding: 247 247 185
Width: 1160
Flags: W
LayerCount: 2
Fore
SplineSet
84 783 m 1,0,-1
 1074 783 l 1,1,-1
 1074 561 l 1,2,-1
 84 561 l 1,3,-1
 84 783 l 1,0,-1
402 1028 m 256,4,5
 402 1064 402 1064 415.5 1095 c 128,-1,6
 429 1126 429 1126 452.5 1149 c 128,-1,7
 476 1172 476 1172 508 1185.5 c 128,-1,8
 540 1199 540 1199 578 1199 c 0,9,10
 615 1199 615 1199 647 1185.5 c 128,-1,11
 679 1172 679 1172 703 1149 c 128,-1,12
 727 1126 727 1126 740.5 1095 c 128,-1,13
 754 1064 754 1064 754 1028 c 256,14,15
 754 992 754 992 740.5 960.5 c 128,-1,16
 727 929 727 929 703 906 c 128,-1,17
 679 883 679 883 647 870 c 128,-1,18
 615 857 615 857 578 857 c 0,19,20
 540 857 540 857 508 870 c 128,-1,21
 476 883 476 883 452.5 906 c 128,-1,22
 429 929 429 929 415.5 960.5 c 128,-1,23
 402 992 402 992 402 1028 c 256,4,5
402 316 m 256,24,25
 402 352 402 352 415.5 383 c 128,-1,26
 429 414 429 414 452.5 437 c 128,-1,27
 476 460 476 460 508 473.5 c 128,-1,28
 540 487 540 487 578 487 c 0,29,30
 615 487 615 487 647 473.5 c 128,-1,31
 679 460 679 460 703 437 c 128,-1,32
 727 414 727 414 740.5 383 c 128,-1,33
 754 352 754 352 754 316 c 256,34,35
 754 280 754 280 740.5 248.5 c 128,-1,36
 727 217 727 217 703 194 c 128,-1,37
 679 171 679 171 647 158 c 128,-1,38
 615 145 615 145 578 145 c 0,39,40
 540 145 540 145 508 158 c 128,-1,41
 476 171 476 171 452.5 194 c 128,-1,42
 429 217 429 217 415.5 248.5 c 128,-1,43
 402 280 402 280 402 316 c 256,24,25
EndSplineSet
EndChar

StartChar: oslash
Encoding: 248 248 186
Width: 1160
Flags: W
LayerCount: 2
Fore
SplineSet
974 899 m 1,0,1
 1039 830 1039 830 1074.5 734.5 c 128,-1,2
 1110 639 1110 639 1110 521 c 0,3,4
 1110 397 1110 397 1071.5 297.5 c 128,-1,5
 1033 198 1033 198 963.5 128.5 c 128,-1,6
 894 59 894 59 797 21.5 c 128,-1,7
 700 -16 700 -16 582 -16 c 0,8,9
 447 -16 447 -16 337 33 c 1,10,-1
 320 9 l 2,11,12
 303 -16 303 -16 281.5 -32.5 c 128,-1,13
 260 -49 260 -49 235.5 -59 c 128,-1,14
 211 -69 211 -69 185.5 -73.5 c 128,-1,15
 160 -78 160 -78 136 -78 c 2,16,-1
 24 -78 l 1,17,-1
 185 141 l 1,18,19
 120 210 120 210 85 306 c 128,-1,20
 50 402 50 402 50 521 c 0,21,22
 50 644 50 644 88.5 742.5 c 128,-1,23
 127 841 127 841 197.5 910 c 128,-1,24
 268 979 268 979 365.5 1016 c 128,-1,25
 463 1053 463 1053 582 1053 c 0,26,27
 714 1053 714 1053 820 1006 c 1,28,-1
 866 1068 l 2,29,30
 882 1089 882 1089 895.5 1104 c 128,-1,31
 909 1119 909 1119 924 1128.5 c 128,-1,32
 939 1138 939 1138 958 1142 c 128,-1,33
 977 1146 977 1146 1004 1146 c 2,34,-1
 1156 1146 l 1,35,-1
 974 899 l 1,0,1
582 205 m 0,36,37
 689 205 689 205 749.5 285 c 128,-1,38
 810 365 810 365 810 519 c 0,39,40
 810 597 810 597 796 656 c 1,41,-1
 478 225 l 1,42,43
 521 205 521 205 582 205 c 0,36,37
350 519 m 0,44,45
 350 439 350 439 363 384 c 1,46,-1
 679 814 l 1,47,48
 638 833 638 833 582 833 c 0,49,50
 472 833 472 833 411 753 c 128,-1,51
 350 673 350 673 350 519 c 0,44,45
EndSplineSet
EndChar

StartChar: thorn
Encoding: 254 254 192
Width: 1156
Flags: W
LayerCount: 2
Fore
SplineSet
120 -329 m 1,0,-1
 120 1497 l 1,1,-1
 430 1497 l 1,2,-1
 430 927 l 1,3,4
 488 984 488 984 561.5 1018.5 c 128,-1,5
 635 1053 635 1053 734 1053 c 0,6,7
 815 1053 815 1053 884 1018 c 128,-1,8
 953 983 953 983 1003 915.5 c 128,-1,9
 1053 848 1053 848 1081.5 750 c 128,-1,10
 1110 652 1110 652 1110 527 c 0,11,12
 1110 410 1110 410 1077.5 311 c 128,-1,13
 1045 212 1045 212 986.5 139 c 128,-1,14
 928 66 928 66 846.5 25 c 128,-1,15
 765 -16 765 -16 666 -16 c 0,16,17
 625 -16 625 -16 591 -8.5 c 128,-1,18
 557 -1 557 -1 528.5 12.5 c 128,-1,19
 500 26 500 26 476 45 c 128,-1,20
 452 64 452 64 430 87 c 1,21,-1
 430 -329 l 1,22,-1
 120 -329 l 1,0,-1
626 820 m 0,23,24
 592 820 592 820 564.5 813.5 c 128,-1,25
 537 807 537 807 513.5 795 c 128,-1,26
 490 783 490 783 470 764.5 c 128,-1,27
 450 746 450 746 430 722 c 1,28,-1
 430 282 l 1,29,30
 465 243 465 243 506 227.5 c 128,-1,31
 547 212 547 212 592 212 c 0,32,33
 635 212 635 212 671 229 c 128,-1,34
 707 246 707 246 733.5 283.5 c 128,-1,35
 760 321 760 321 775 381 c 128,-1,36
 790 441 790 441 790 527 c 0,37,38
 790 609 790 609 778 665 c 128,-1,39
 766 721 766 721 744.5 755.5 c 128,-1,40
 723 790 723 790 693 805 c 128,-1,41
 663 820 663 820 626 820 c 0,23,24
EndSplineSet
EndChar

StartChar: Aogonek
Encoding: 260 260 194
Width: 1474
Flags: W
LayerCount: 2
Fore
SplineSet
1426 -167 m 0,0,1
 1447 -167 1447 -167 1454 -186 c 2,2,-1
 1500 -297 l 1,3,4
 1465 -318 1465 -318 1413 -332.5 c 128,-1,5
 1361 -347 1361 -347 1302 -347 c 0,6,7
 1195 -347 1195 -347 1139.5 -305 c 128,-1,8
 1084 -263 1084 -263 1084 -198 c 0,9,10
 1084 -147 1084 -147 1117.5 -96 c 128,-1,11
 1151 -45 1151 -45 1226 0 c 1,12,-1
 1214 0 l 2,13,14
 1170 0 1170 0 1141.5 20.5 c 128,-1,15
 1113 41 1113 41 1102 73 c 2,16,-1
 1016 327 l 1,17,-1
 462 327 l 1,18,-1
 376 73 l 2,19,20
 366 45 366 45 337 22.5 c 128,-1,21
 308 0 308 0 266 0 c 2,22,-1
 2 0 l 1,23,-1
 566 1457 l 1,24,-1
 912 1457 l 1,25,-1
 1476 0 l 1,26,-1
 1408 0 l 1,27,28
 1369 -21 1369 -21 1341.5 -52.5 c 128,-1,29
 1314 -84 1314 -84 1314 -122 c 0,30,31
 1314 -146 1314 -146 1327.5 -160.5 c 128,-1,32
 1341 -175 1341 -175 1368 -175 c 0,33,34
 1383 -175 1383 -175 1392 -174 c 128,-1,35
 1401 -173 1401 -173 1407 -171.5 c 128,-1,36
 1413 -170 1413 -170 1417 -168.5 c 128,-1,37
 1421 -167 1421 -167 1426 -167 c 0,0,1
540 557 m 1,38,-1
 938 557 l 1,39,-1
 804 956 l 2,40,41
 789 994 789 994 772 1045.5 c 128,-1,42
 755 1097 755 1097 738 1157 c 1,43,44
 722 1096 722 1096 705.5 1044 c 128,-1,45
 689 992 689 992 674 954 c 2,46,-1
 540 557 l 1,38,-1
EndSplineSet
EndChar

StartChar: aogonek
Encoding: 261 261 195
Width: 1078
Flags: W
LayerCount: 2
Fore
SplineSet
996 -167 m 0,0,1
 1017 -167 1017 -167 1024 -186 c 2,2,-1
 1070 -297 l 1,3,4
 1035 -318 1035 -318 983 -332.5 c 128,-1,5
 931 -347 931 -347 872 -347 c 0,6,7
 765 -347 765 -347 709.5 -305 c 128,-1,8
 654 -263 654 -263 654 -198 c 0,9,10
 654 -146 654 -146 689 -94.5 c 128,-1,11
 724 -43 724 -43 800 2 c 1,12,13
 774 6 774 6 758.5 19.5 c 128,-1,14
 743 33 743 33 732 62 c 2,15,-1
 710 119 l 1,16,17
 671 86 671 86 635 61 c 128,-1,18
 599 36 599 36 560.5 18.5 c 128,-1,19
 522 1 522 1 478.5 -7.5 c 128,-1,20
 435 -16 435 -16 382 -16 c 0,21,22
 311 -16 311 -16 253 2.5 c 128,-1,23
 195 21 195 21 154.5 57 c 128,-1,24
 114 93 114 93 92 146.5 c 128,-1,25
 70 200 70 200 70 270 c 0,26,27
 70 325 70 325 98 383 c 128,-1,28
 126 441 126 441 195 488.5 c 128,-1,29
 264 536 264 536 381 568 c 128,-1,30
 498 600 498 600 676 604 c 1,31,-1
 676 648 l 2,32,33
 676 739 676 739 638.5 779.5 c 128,-1,34
 601 820 601 820 532 820 c 0,35,36
 477 820 477 820 442 808 c 128,-1,37
 407 796 407 796 379.5 781 c 128,-1,38
 352 766 352 766 326 754 c 128,-1,39
 300 742 300 742 264 742 c 0,40,41
 232 742 232 742 209.5 757.5 c 128,-1,42
 187 773 187 773 174 796 c 2,43,-1
 118 893 l 1,44,45
 212 976 212 976 326.5 1016.5 c 128,-1,46
 441 1057 441 1057 572 1057 c 0,47,48
 666 1057 666 1057 741.5 1026.5 c 128,-1,49
 817 996 817 996 869.5 941.5 c 128,-1,50
 922 887 922 887 950 812 c 128,-1,51
 978 737 978 737 978 648 c 2,52,-1
 978 0 l 1,53,54
 939 -21 939 -21 911.5 -52.5 c 128,-1,55
 884 -84 884 -84 884 -122 c 0,56,57
 884 -146 884 -146 897.5 -160.5 c 128,-1,58
 911 -175 911 -175 938 -175 c 0,59,60
 953 -175 953 -175 962 -174 c 128,-1,61
 971 -173 971 -173 977 -171.5 c 128,-1,62
 983 -170 983 -170 987 -168.5 c 128,-1,63
 991 -167 991 -167 996 -167 c 0,0,1
480 189 m 0,64,65
 540 189 540 189 585 210 c 128,-1,66
 630 231 630 231 676 278 c 1,67,-1
 676 422 l 1,68,69
 583 418 583 418 523 406 c 128,-1,70
 463 394 463 394 428 376 c 128,-1,71
 393 358 393 358 379.5 335 c 128,-1,72
 366 312 366 312 366 285 c 0,73,74
 366 232 366 232 395 210.5 c 128,-1,75
 424 189 424 189 480 189 c 0,64,65
EndSplineSet
EndChar

StartChar: Eogonek
Encoding: 280 280 198
Width: 1130
Flags: W
LayerCount: 2
Fore
SplineSet
984 -167 m 0,0,1
 1005 -167 1005 -167 1012 -186 c 2,2,-1
 1058 -297 l 1,3,4
 1023 -318 1023 -318 971 -332.5 c 128,-1,5
 919 -347 919 -347 860 -347 c 0,6,7
 753 -347 753 -347 697.5 -305 c 128,-1,8
 642 -263 642 -263 642 -198 c 0,9,10
 642 -147 642 -147 675.5 -96 c 128,-1,11
 709 -45 709 -45 784 0 c 1,12,-1
 120 0 l 1,13,-1
 120 1457 l 1,14,-1
 1058 1457 l 1,15,-1
 1058 1197 l 1,16,-1
 460 1197 l 1,17,-1
 460 857 l 1,18,-1
 918 857 l 1,19,-1
 918 607 l 1,20,-1
 460 607 l 1,21,-1
 460 260 l 1,22,-1
 1058 260 l 1,23,-1
 1058 0 l 1,24,-1
 966 0 l 1,25,26
 927 -21 927 -21 899.5 -52.5 c 128,-1,27
 872 -84 872 -84 872 -122 c 0,28,29
 872 -146 872 -146 885.5 -160.5 c 128,-1,30
 899 -175 899 -175 926 -175 c 0,31,32
 941 -175 941 -175 950 -174 c 128,-1,33
 959 -173 959 -173 965 -171.5 c 128,-1,34
 971 -170 971 -170 975 -168.5 c 128,-1,35
 979 -167 979 -167 984 -167 c 0,0,1
EndSplineSet
EndChar

StartChar: eogonek
Encoding: 281 281 199
Width: 1088
Flags: W
LayerCount: 2
Fore
SplineSet
744 -167 m 0,0,1
 765 -167 765 -167 772 -186 c 2,2,-1
 818 -297 l 1,3,4
 783 -318 783 -318 731 -332.5 c 128,-1,5
 679 -347 679 -347 620 -347 c 0,6,7
 513 -347 513 -347 457.5 -305 c 128,-1,8
 402 -263 402 -263 402 -198 c 0,9,10
 402 -150 402 -150 431 -102.5 c 128,-1,11
 460 -55 460 -55 523 -13 c 1,12,13
 424 -5 424 -5 338 34.5 c 128,-1,14
 252 74 252 74 188.5 143.5 c 128,-1,15
 125 213 125 213 88.5 312.5 c 128,-1,16
 52 412 52 412 52 541 c 0,17,18
 52 645 52 645 87.5 738 c 128,-1,19
 123 831 123 831 189.5 901 c 128,-1,20
 256 971 256 971 350.5 1012 c 128,-1,21
 445 1053 445 1053 564 1053 c 0,22,23
 667 1053 667 1053 752.5 1021 c 128,-1,24
 838 989 838 989 899.5 928 c 128,-1,25
 961 867 961 867 995.5 778.5 c 128,-1,26
 1030 690 1030 690 1030 578 c 0,27,28
 1030 543 1030 543 1027 521 c 128,-1,29
 1024 499 1024 499 1016 486 c 128,-1,30
 1008 473 1008 473 994.5 468 c 128,-1,31
 981 463 981 463 960 463 c 2,32,-1
 362 463 l 1,33,34
 377 333 377 333 441 274.5 c 128,-1,35
 505 216 505 216 606 216 c 0,36,37
 660 216 660 216 699 229 c 128,-1,38
 738 242 738 242 768.5 258 c 128,-1,39
 799 274 799 274 824.5 287 c 128,-1,40
 850 300 850 300 878 300 c 0,41,42
 915 300 915 300 934 273 c 2,43,-1
 1024 162 l 1,44,45
 958 86 958 86 878 48 c 128,-1,46
 798 10 798 10 718 -4 c 1,47,48
 682 -25 682 -25 657 -55 c 128,-1,49
 632 -85 632 -85 632 -122 c 0,50,51
 632 -146 632 -146 645.5 -160.5 c 128,-1,52
 659 -175 659 -175 686 -175 c 0,53,54
 701 -175 701 -175 710 -174 c 128,-1,55
 719 -173 719 -173 725 -171.5 c 128,-1,56
 731 -170 731 -170 735 -168.5 c 128,-1,57
 739 -167 739 -167 744 -167 c 0,0,1
570 839 m 0,58,59
 481 839 481 839 431 788.5 c 128,-1,60
 381 738 381 738 365 643 c 1,61,-1
 752 643 l 1,62,63
 752 680 752 680 742.5 715 c 128,-1,64
 733 750 733 750 711.5 777.5 c 128,-1,65
 690 805 690 805 655 822 c 128,-1,66
 620 839 620 839 570 839 c 0,58,59
EndSplineSet
EndChar

StartChar: dotlessi
Encoding: 305 305 200
Width: 570
Flags: W
LayerCount: 2
Fore
SplineSet
440 1037 m 1,0,-1
 440 0 l 1,1,-1
 130 0 l 1,2,-1
 130 1037 l 1,3,-1
 440 1037 l 1,0,-1
EndSplineSet
EndChar

StartChar: Lslash
Encoding: 321 321 201
Width: 1116
Flags: W
LayerCount: 2
Fore
SplineSet
536 923 m 1,0,-1
 870 1088 l 1,1,-1
 870 867 l 2,2,3
 870 819 870 819 830 805 c 1,4,-1
 536 653 l 1,5,-1
 536 270 l 1,6,-1
 1076 270 l 1,7,-1
 1076 0 l 1,8,-1
 198 0 l 1,9,-1
 198 505 l 1,10,-1
 24 420 l 1,11,-1
 24 648 l 2,12,13
 24 687 24 687 60 702 c 2,14,-1
 198 773 l 1,15,-1
 198 1457 l 1,16,-1
 536 1457 l 1,17,-1
 536 923 l 1,0,-1
EndSplineSet
EndChar

StartChar: lslash
Encoding: 322 322 202
Width: 710
Flags: W
LayerCount: 2
Fore
SplineSet
510 1497 m 1,0,-1
 510 951 l 1,1,-1
 660 1010 l 1,2,-1
 660 836 l 2,3,4
 660 791 660 791 620 774 c 2,5,-1
 510 728 l 1,6,-1
 510 0 l 1,7,-1
 200 0 l 1,8,-1
 200 624 l 1,9,-1
 50 566 l 1,10,-1
 50 746 l 2,11,12
 50 785 50 785 86 800 c 2,13,-1
 200 847 l 1,14,-1
 200 1497 l 1,15,-1
 510 1497 l 1,0,-1
EndSplineSet
EndChar

StartChar: OE
Encoding: 338 338 205
Width: 2136
Flags: W
LayerCount: 2
Fore
SplineSet
2064 1457 m 1,0,-1
 2064 1197 l 1,1,-1
 1466 1197 l 1,2,-1
 1466 857 l 1,3,-1
 1924 857 l 1,4,-1
 1924 607 l 1,5,-1
 1466 607 l 1,6,-1
 1466 260 l 1,7,-1
 2064 260 l 1,8,-1
 2064 0 l 1,9,-1
 1166 0 l 1,10,-1
 1166 148 l 1,11,12
 1080 70 1080 70 969.5 27 c 128,-1,13
 859 -16 859 -16 726 -16 c 0,14,15
 572 -16 572 -16 446.5 41 c 128,-1,16
 321 98 321 98 231.5 198.5 c 128,-1,17
 142 299 142 299 93 435 c 128,-1,18
 44 571 44 571 44 729 c 256,19,20
 44 887 44 887 93 1023 c 128,-1,21
 142 1159 142 1159 231.5 1259 c 128,-1,22
 321 1359 321 1359 446.5 1416 c 128,-1,23
 572 1473 572 1473 726 1473 c 0,24,25
 859 1473 859 1473 969.5 1429.5 c 128,-1,26
 1080 1386 1080 1386 1166 1308 c 1,27,-1
 1166 1457 l 1,28,-1
 2064 1457 l 1,0,-1
1126 729 m 0,29,30
 1126 837 1126 837 1101.5 925 c 128,-1,31
 1077 1013 1077 1013 1030 1074.5 c 128,-1,32
 983 1136 983 1136 915 1169.5 c 128,-1,33
 847 1203 847 1203 760 1203 c 0,34,35
 671 1203 671 1203 602.5 1169.5 c 128,-1,36
 534 1136 534 1136 486.5 1074.5 c 128,-1,37
 439 1013 439 1013 414.5 925 c 128,-1,38
 390 837 390 837 390 729 c 0,39,40
 390 620 390 620 414.5 532 c 128,-1,41
 439 444 439 444 486.5 382.5 c 128,-1,42
 534 321 534 321 602.5 287.5 c 128,-1,43
 671 254 671 254 760 254 c 0,44,45
 847 254 847 254 915 287.5 c 128,-1,46
 983 321 983 321 1030 382.5 c 128,-1,47
 1077 444 1077 444 1101.5 532 c 128,-1,48
 1126 620 1126 620 1126 729 c 0,29,30
EndSplineSet
EndChar

StartChar: oe
Encoding: 339 339 206
Width: 1762
Flags: W
LayerCount: 2
Fore
SplineSet
1274 1053 m 0,0,1
 1366 1053 1366 1053 1445 1018 c 128,-1,2
 1524 983 1524 983 1581.5 918.5 c 128,-1,3
 1639 854 1639 854 1671.5 762.5 c 128,-1,4
 1704 671 1704 671 1704 558 c 0,5,6
 1704 523 1704 523 1701 501 c 128,-1,7
 1698 479 1698 479 1690.5 466 c 128,-1,8
 1683 453 1683 453 1670 448 c 128,-1,9
 1657 443 1657 443 1636 443 c 2,10,-1
 1066 443 l 1,11,12
 1083 324 1083 324 1143.5 270 c 128,-1,13
 1204 216 1204 216 1296 216 c 0,14,15
 1347 216 1347 216 1383.5 229 c 128,-1,16
 1420 242 1420 242 1448.5 258 c 128,-1,17
 1477 274 1477 274 1502 287 c 128,-1,18
 1527 300 1527 300 1556 300 c 0,19,20
 1573 300 1573 300 1586.5 292.5 c 128,-1,21
 1600 285 1600 285 1610 273 c 2,22,-1
 1702 162 l 1,23,24
 1654 107 1654 107 1599.5 72.5 c 128,-1,25
 1545 38 1545 38 1488 18.5 c 128,-1,26
 1431 -1 1431 -1 1374.5 -8.5 c 128,-1,27
 1318 -16 1318 -16 1266 -16 c 0,28,29
 1215 -16 1215 -16 1166 -5.5 c 128,-1,30
 1117 5 1117 5 1071.5 27 c 128,-1,31
 1026 49 1026 49 985.5 82.5 c 128,-1,32
 945 116 945 116 913 162 c 1,33,34
 850 76 850 76 754 30 c 128,-1,35
 658 -16 658 -16 534 -16 c 0,36,37
 431 -16 431 -16 342.5 21.5 c 128,-1,38
 254 59 254 59 189 128.5 c 128,-1,39
 124 198 124 198 87 297.5 c 128,-1,40
 50 397 50 397 50 521 c 0,41,42
 50 644 50 644 87.5 742.5 c 128,-1,43
 125 841 125 841 191 910 c 128,-1,44
 257 979 257 979 348 1016 c 128,-1,45
 439 1053 439 1053 546 1053 c 0,46,47
 664 1053 664 1053 756.5 1008 c 128,-1,48
 849 963 849 963 912 878 c 1,49,50
 970 959 970 959 1060.5 1006 c 128,-1,51
 1151 1053 1151 1053 1274 1053 c 0,0,1
564 214 m 0,52,53
 664 214 664 214 710 289.5 c 128,-1,54
 756 365 756 365 756 519 c 256,55,56
 756 673 756 673 710 748 c 128,-1,57
 664 823 664 823 564 823 c 0,58,59
 463 823 463 823 416.5 748 c 128,-1,60
 370 673 370 673 370 519 c 256,61,62
 370 365 370 365 416.5 289.5 c 128,-1,63
 463 214 463 214 564 214 c 0,52,53
1260 839 m 0,64,65
 1172 839 1172 839 1124.5 783.5 c 128,-1,66
 1077 728 1077 728 1064 623 c 1,67,-1
 1428 623 l 1,68,69
 1428 660 1428 660 1419.5 698.5 c 128,-1,70
 1411 737 1411 737 1391.5 768 c 128,-1,71
 1372 799 1372 799 1339.5 819 c 128,-1,72
 1307 839 1307 839 1260 839 c 0,64,65
EndSplineSet
EndChar

StartChar: florin
Encoding: 402 402 218
Width: 1160
Flags: W
LayerCount: 2
Fore
SplineSet
737 727 m 1,0,-1
 658 72 l 2,1,2
 645 -37 645 -37 605.5 -114.5 c 128,-1,3
 566 -192 566 -192 497 -242 c 128,-1,4
 428 -292 428 -292 327 -315.5 c 128,-1,5
 226 -339 226 -339 90 -339 c 1,6,-1
 90 -182 l 2,7,8
 90 -134 90 -134 113 -112 c 128,-1,9
 136 -90 136 -90 186 -90 c 0,10,11
 222 -90 222 -90 250 -81 c 128,-1,12
 278 -72 278 -72 298 -51.5 c 128,-1,13
 318 -31 318 -31 331 2 c 128,-1,14
 344 35 344 35 350 82 c 2,15,-1
 429 722 l 1,16,-1
 334 742 l 2,17,18
 301 750 301 750 283.5 767.5 c 128,-1,19
 266 785 266 785 266 817 c 2,20,-1
 266 939 l 1,21,-1
 455 939 l 1,22,-1
 472 1073 l 2,23,24
 485 1175 485 1175 524 1252 c 128,-1,25
 563 1329 563 1329 632 1380.5 c 128,-1,26
 701 1432 701 1432 802 1458.5 c 128,-1,27
 903 1485 903 1485 1040 1485 c 1,28,-1
 1040 1320 l 2,29,30
 1040 1272 1040 1272 1017 1254 c 128,-1,31
 994 1236 994 1236 944 1236 c 0,32,33
 872 1236 872 1236 828.5 1197 c 128,-1,34
 785 1158 785 1158 772 1064 c 2,35,-1
 755 939 l 1,36,-1
 1024 939 l 1,37,-1
 1024 727 l 1,38,-1
 737 727 l 1,0,-1
EndSplineSet
EndChar

StartChar: circumflex
Encoding: 710 710 219
Width: 660
Flags: W
LayerCount: 2
Fore
SplineSet
710 1168 m 1,0,-1
 504 1168 l 2,1,2
 486 1168 486 1168 471 1173.5 c 128,-1,3
 456 1179 456 1179 444 1188 c 2,4,-1
 360 1260 l 2,5,6
 353 1265 353 1265 347 1271 c 128,-1,7
 341 1277 341 1277 335 1285 c 1,8,9
 329 1277 329 1277 322.5 1271 c 128,-1,10
 316 1265 316 1265 310 1260 c 2,11,-1
 224 1188 l 2,12,13
 215 1180 215 1180 198.5 1174 c 128,-1,14
 182 1168 182 1168 164 1168 c 2,15,-1
 -50 1168 l 1,16,-1
 184 1457 l 1,17,-1
 476 1457 l 1,18,-1
 710 1168 l 1,0,-1
EndSplineSet
EndChar

StartChar: caron
Encoding: 65537 -1 220
Width: 660
Flags: W
LayerCount: 2
Fore
SplineSet
-50 1457 m 1,0,-1
 164 1457 l 2,1,2
 182 1457 182 1457 198.5 1451.5 c 128,-1,3
 215 1446 215 1446 224 1438 c 2,4,-1
 308 1366 l 2,5,6
 314 1361 314 1361 321 1354 c 128,-1,7
 328 1347 328 1347 334 1339 c 1,8,9
 345 1355 345 1355 360 1366 c 2,10,-1
 444 1438 l 2,11,12
 453 1444 453 1444 469.5 1450.5 c 128,-1,13
 486 1457 486 1457 504 1457 c 2,14,-1
 710 1457 l 1,15,-1
 476 1168 l 1,16,-1
 184 1168 l 1,17,-1
 -50 1457 l 1,0,-1
EndSplineSet
EndChar

StartChar: dotaccent
Encoding: 65538 -1 221
Width: 660
Flags: W
LayerCount: 2
Fore
SplineSet
518 1322 m 256,0,1
 518 1285 518 1285 503 1252 c 128,-1,2
 488 1219 488 1219 462 1194.5 c 128,-1,3
 436 1170 436 1170 401.5 1156 c 128,-1,4
 367 1142 367 1142 328 1142 c 0,5,6
 290 1142 290 1142 257 1156 c 128,-1,7
 224 1170 224 1170 198.5 1194.5 c 128,-1,8
 173 1219 173 1219 158.5 1252 c 128,-1,9
 144 1285 144 1285 144 1322 c 256,10,11
 144 1359 144 1359 158.5 1392.5 c 128,-1,12
 173 1426 173 1426 198.5 1450.5 c 128,-1,13
 224 1475 224 1475 257 1489.5 c 128,-1,14
 290 1504 290 1504 328 1504 c 0,15,16
 367 1504 367 1504 401.5 1489.5 c 128,-1,17
 436 1475 436 1475 462 1450.5 c 128,-1,18
 488 1426 488 1426 503 1392.5 c 128,-1,19
 518 1359 518 1359 518 1322 c 256,0,1
EndSplineSet
EndChar

StartChar: ring
Encoding: 730 730 222
Width: 660
Flags: W
LayerCount: 2
Fore
SplineSet
86 1334 m 0,0,1
 86 1384 86 1384 106 1424.5 c 128,-1,2
 126 1465 126 1465 159 1494 c 128,-1,3
 192 1523 192 1523 236 1538.5 c 128,-1,4
 280 1554 280 1554 328 1554 c 0,5,6
 377 1554 377 1554 422 1538.5 c 128,-1,7
 467 1523 467 1523 501.5 1494 c 128,-1,8
 536 1465 536 1465 556 1424.5 c 128,-1,9
 576 1384 576 1384 576 1334 c 0,10,11
 576 1285 576 1285 556 1245.5 c 128,-1,12
 536 1206 536 1206 501.5 1178 c 128,-1,13
 467 1150 467 1150 422 1134.5 c 128,-1,14
 377 1119 377 1119 328 1119 c 0,15,16
 280 1119 280 1119 236 1134.5 c 128,-1,17
 192 1150 192 1150 159 1178 c 128,-1,18
 126 1206 126 1206 106 1245.5 c 128,-1,19
 86 1285 86 1285 86 1334 c 0,0,1
252 1334 m 0,20,21
 252 1299 252 1299 271.5 1276.5 c 128,-1,22
 291 1254 291 1254 332 1254 c 0,23,24
 368 1254 368 1254 389 1276.5 c 128,-1,25
 410 1299 410 1299 410 1334 c 0,26,27
 410 1372 410 1372 389 1394 c 128,-1,28
 368 1416 368 1416 332 1416 c 0,29,30
 291 1416 291 1416 271.5 1394 c 128,-1,31
 252 1372 252 1372 252 1334 c 0,20,21
EndSplineSet
EndChar

StartChar: tilde
Encoding: 732 732 223
Width: 660
Flags: W
LayerCount: 2
Fore
SplineSet
434 1387 m 0,0,1
 458 1387 458 1387 473 1399.5 c 128,-1,2
 488 1412 488 1412 488 1453 c 1,3,-1
 676 1453 l 1,4,5
 676 1390 676 1390 658.5 1339.5 c 128,-1,6
 641 1289 641 1289 610 1253.5 c 128,-1,7
 579 1218 579 1218 537 1199 c 128,-1,8
 495 1180 495 1180 446 1180 c 0,9,10
 409 1180 409 1180 377 1191.5 c 128,-1,11
 345 1203 345 1203 317.5 1217 c 128,-1,12
 290 1231 290 1231 267.5 1242.5 c 128,-1,13
 245 1254 245 1254 228 1254 c 0,14,15
 204 1254 204 1254 190 1240.5 c 128,-1,16
 176 1227 176 1227 176 1186 c 1,17,-1
 -14 1186 l 1,18,19
 -14 1249 -14 1249 4 1299.5 c 128,-1,20
 22 1350 22 1350 53 1386 c 128,-1,21
 84 1422 84 1422 126 1441.5 c 128,-1,22
 168 1461 168 1461 216 1461 c 0,23,24
 253 1461 253 1461 285.5 1449.5 c 128,-1,25
 318 1438 318 1438 345 1424 c 128,-1,26
 372 1410 372 1410 394.5 1398.5 c 128,-1,27
 417 1387 417 1387 434 1387 c 0,0,1
EndSplineSet
EndChar

StartChar: endash
Encoding: 8211 8211 224
Width: 1160
Flags: W
LayerCount: 2
Fore
SplineSet
170 713 m 1,0,-1
 990 713 l 1,1,-1
 990 501 l 1,2,-1
 170 501 l 1,3,-1
 170 713 l 1,0,-1
EndSplineSet
EndChar

StartChar: emdash
Encoding: 8212 8212 225
Width: 1722
Flags: W
LayerCount: 2
Fore
SplineSet
170 713 m 1,0,-1
 1552 713 l 1,1,-1
 1552 501 l 1,2,-1
 170 501 l 1,3,-1
 170 713 l 1,0,-1
EndSplineSet
EndChar

StartChar: quoteleft
Encoding: 8216 8216 226
Width: 472
Flags: W
LayerCount: 2
Fore
SplineSet
164 949 m 1,0,1
 124 1012 124 1012 104.5 1074.5 c 128,-1,2
 85 1137 85 1137 85 1199 c 0,3,4
 85 1306 85 1306 141 1404.5 c 128,-1,5
 197 1503 197 1503 306 1586 c 1,6,-1
 404 1528 l 2,7,8
 416 1520 416 1520 421.5 1510.5 c 128,-1,9
 427 1501 427 1501 427 1491 c 0,10,11
 427 1480 427 1480 422 1470 c 128,-1,12
 417 1460 417 1460 410 1453 c 0,13,14
 399 1441 399 1441 385.5 1423.5 c 128,-1,15
 372 1406 372 1406 360 1382.5 c 128,-1,16
 348 1359 348 1359 339.5 1330.5 c 128,-1,17
 331 1302 331 1302 331 1269 c 0,18,19
 331 1233 331 1233 343.5 1192 c 128,-1,20
 356 1151 356 1151 385 1104 c 0,21,22
 395 1088 395 1088 395 1072 c 0,23,24
 395 1054 395 1054 383 1040 c 128,-1,25
 371 1026 371 1026 350 1018 c 2,26,-1
 164 949 l 1,0,1
EndSplineSet
EndChar

StartChar: quoteright
Encoding: 8217 8217 227
Width: 472
Flags: W
LayerCount: 2
Fore
SplineSet
338 1551 m 1,0,1
 378 1488 378 1488 397.5 1425 c 128,-1,2
 417 1362 417 1362 417 1300 c 0,3,4
 417 1193 417 1193 361 1095 c 128,-1,5
 305 997 305 997 196 914 c 1,6,-1
 98 972 l 2,7,8
 86 980 86 980 80.5 989.5 c 128,-1,9
 75 999 75 999 75 1009 c 0,10,11
 75 1020 75 1020 80 1030 c 128,-1,12
 85 1040 85 1040 92 1047 c 0,13,14
 103 1059 103 1059 116.5 1076.5 c 128,-1,15
 130 1094 130 1094 142 1117 c 128,-1,16
 154 1140 154 1140 162.5 1169 c 128,-1,17
 171 1198 171 1198 171 1231 c 0,18,19
 171 1267 171 1267 158.5 1308 c 128,-1,20
 146 1349 146 1349 117 1396 c 0,21,22
 107 1412 107 1412 107 1428 c 0,23,24
 107 1446 107 1446 119 1460 c 128,-1,25
 131 1474 131 1474 152 1482 c 2,26,-1
 338 1551 l 1,0,1
EndSplineSet
EndChar

StartChar: quotesinglbase
Encoding: 8218 8218 228
Width: 472
Flags: W
LayerCount: 2
Fore
SplineSet
338 332 m 1,0,1
 378 269 378 269 397.5 206 c 128,-1,2
 417 143 417 143 417 81 c 0,3,4
 417 -26 417 -26 361 -124 c 128,-1,5
 305 -222 305 -222 196 -305 c 1,6,-1
 98 -247 l 2,7,8
 86 -239 86 -239 80.5 -229.5 c 128,-1,9
 75 -220 75 -220 75 -210 c 0,10,11
 75 -199 75 -199 80 -189 c 128,-1,12
 85 -179 85 -179 92 -172 c 0,13,14
 103 -160 103 -160 116.5 -142.5 c 128,-1,15
 130 -125 130 -125 142 -102 c 128,-1,16
 154 -79 154 -79 162.5 -50 c 128,-1,17
 171 -21 171 -21 171 12 c 0,18,19
 171 48 171 48 158.5 89 c 128,-1,20
 146 130 146 130 117 177 c 0,21,22
 107 193 107 193 107 209 c 0,23,24
 107 227 107 227 119 241 c 128,-1,25
 131 255 131 255 152 263 c 2,26,-1
 338 332 l 1,0,1
EndSplineSet
EndChar

StartChar: quotedblleft
Encoding: 8220 8220 229
Width: 830
Flags: W
LayerCount: 2
Fore
SplineSet
164 949 m 1,0,1
 124 1012 124 1012 104.5 1074.5 c 128,-1,2
 85 1137 85 1137 85 1199 c 0,3,4
 85 1306 85 1306 141 1404.5 c 128,-1,5
 197 1503 197 1503 306 1586 c 1,6,-1
 404 1528 l 2,7,8
 416 1520 416 1520 421.5 1510.5 c 128,-1,9
 427 1501 427 1501 427 1491 c 0,10,11
 427 1480 427 1480 422 1470 c 128,-1,12
 417 1460 417 1460 410 1453 c 0,13,14
 399 1441 399 1441 385.5 1423.5 c 128,-1,15
 372 1406 372 1406 360 1382.5 c 128,-1,16
 348 1359 348 1359 339.5 1330.5 c 128,-1,17
 331 1302 331 1302 331 1269 c 0,18,19
 331 1233 331 1233 343.5 1192 c 128,-1,20
 356 1151 356 1151 385 1104 c 0,21,22
 395 1088 395 1088 395 1072 c 0,23,24
 395 1054 395 1054 383 1040 c 128,-1,25
 371 1026 371 1026 350 1018 c 2,26,-1
 164 949 l 1,0,1
522 949 m 1,27,28
 482 1012 482 1012 462.5 1074.5 c 128,-1,29
 443 1137 443 1137 443 1199 c 0,30,31
 443 1306 443 1306 499 1404.5 c 128,-1,32
 555 1503 555 1503 664 1586 c 1,33,-1
 762 1528 l 2,34,35
 774 1520 774 1520 779.5 1510.5 c 128,-1,36
 785 1501 785 1501 785 1491 c 0,37,38
 785 1480 785 1480 780 1470 c 128,-1,39
 775 1460 775 1460 768 1453 c 0,40,41
 757 1441 757 1441 743.5 1423.5 c 128,-1,42
 730 1406 730 1406 718 1382.5 c 128,-1,43
 706 1359 706 1359 697.5 1330.5 c 128,-1,44
 689 1302 689 1302 689 1269 c 0,45,46
 689 1233 689 1233 701.5 1192 c 128,-1,47
 714 1151 714 1151 743 1104 c 0,48,49
 753 1088 753 1088 753 1072 c 0,50,51
 753 1054 753 1054 741 1040 c 128,-1,52
 729 1026 729 1026 708 1018 c 2,53,-1
 522 949 l 1,27,28
EndSplineSet
EndChar

StartChar: quotedblright
Encoding: 8221 8221 230
Width: 830
Flags: W
LayerCount: 2
Fore
SplineSet
338 1551 m 1,0,1
 378 1488 378 1488 397.5 1425 c 128,-1,2
 417 1362 417 1362 417 1300 c 0,3,4
 417 1193 417 1193 361 1095 c 128,-1,5
 305 997 305 997 196 914 c 1,6,-1
 98 972 l 2,7,8
 86 980 86 980 80.5 989.5 c 128,-1,9
 75 999 75 999 75 1009 c 0,10,11
 75 1020 75 1020 80 1030 c 128,-1,12
 85 1040 85 1040 92 1047 c 0,13,14
 103 1059 103 1059 116.5 1076.5 c 128,-1,15
 130 1094 130 1094 142 1117 c 128,-1,16
 154 1140 154 1140 162.5 1169 c 128,-1,17
 171 1198 171 1198 171 1231 c 0,18,19
 171 1267 171 1267 158.5 1308 c 128,-1,20
 146 1349 146 1349 117 1396 c 0,21,22
 107 1412 107 1412 107 1428 c 0,23,24
 107 1446 107 1446 119 1460 c 128,-1,25
 131 1474 131 1474 152 1482 c 2,26,-1
 338 1551 l 1,0,1
696 1551 m 1,27,28
 736 1488 736 1488 755.5 1425 c 128,-1,29
 775 1362 775 1362 775 1300 c 0,30,31
 775 1193 775 1193 719 1095 c 128,-1,32
 663 997 663 997 554 914 c 1,33,-1
 456 972 l 2,34,35
 444 980 444 980 438.5 989.5 c 128,-1,36
 433 999 433 999 433 1009 c 0,37,38
 433 1020 433 1020 438 1030 c 128,-1,39
 443 1040 443 1040 450 1047 c 0,40,41
 461 1059 461 1059 474.5 1076.5 c 128,-1,42
 488 1094 488 1094 500 1117 c 128,-1,43
 512 1140 512 1140 520.5 1169 c 128,-1,44
 529 1198 529 1198 529 1231 c 0,45,46
 529 1267 529 1267 516.5 1308 c 128,-1,47
 504 1349 504 1349 475 1396 c 0,48,49
 465 1412 465 1412 465 1428 c 0,50,51
 465 1446 465 1446 477 1460 c 128,-1,52
 489 1474 489 1474 510 1482 c 2,53,-1
 696 1551 l 1,27,28
EndSplineSet
EndChar

StartChar: quotedblbase
Encoding: 8222 8222 231
Width: 830
Flags: W
LayerCount: 2
Fore
SplineSet
338 332 m 1,0,1
 378 269 378 269 397.5 206 c 128,-1,2
 417 143 417 143 417 81 c 0,3,4
 417 -26 417 -26 361 -124 c 128,-1,5
 305 -222 305 -222 196 -305 c 1,6,-1
 98 -247 l 2,7,8
 86 -239 86 -239 80.5 -229.5 c 128,-1,9
 75 -220 75 -220 75 -210 c 0,10,11
 75 -199 75 -199 80 -189 c 128,-1,12
 85 -179 85 -179 92 -172 c 0,13,14
 103 -160 103 -160 116.5 -142.5 c 128,-1,15
 130 -125 130 -125 142 -102 c 128,-1,16
 154 -79 154 -79 162.5 -50 c 128,-1,17
 171 -21 171 -21 171 12 c 0,18,19
 171 48 171 48 158.5 89 c 128,-1,20
 146 130 146 130 117 177 c 0,21,22
 107 193 107 193 107 209 c 0,23,24
 107 227 107 227 119 241 c 128,-1,25
 131 255 131 255 152 263 c 2,26,-1
 338 332 l 1,0,1
696 332 m 1,27,28
 736 269 736 269 755.5 206 c 128,-1,29
 775 143 775 143 775 81 c 0,30,31
 775 -26 775 -26 719 -124 c 128,-1,32
 663 -222 663 -222 554 -305 c 1,33,-1
 456 -247 l 2,34,35
 444 -239 444 -239 438.5 -229.5 c 128,-1,36
 433 -220 433 -220 433 -210 c 0,37,38
 433 -199 433 -199 438 -189 c 128,-1,39
 443 -179 443 -179 450 -172 c 0,40,41
 461 -160 461 -160 474.5 -142.5 c 128,-1,42
 488 -125 488 -125 500 -102 c 128,-1,43
 512 -79 512 -79 520.5 -50 c 128,-1,44
 529 -21 529 -21 529 12 c 0,45,46
 529 48 529 48 516.5 89 c 128,-1,47
 504 130 504 130 475 177 c 0,48,49
 465 193 465 193 465 209 c 0,50,51
 465 227 465 227 477 241 c 128,-1,52
 489 255 489 255 510 263 c 2,53,-1
 696 332 l 1,27,28
EndSplineSet
EndChar

StartChar: dagger
Encoding: 8224 8224 232
Width: 1160
Flags: W
LayerCount: 2
Fore
SplineSet
52 909 m 2,0,1
 52 934 52 934 60.5 957 c 128,-1,2
 69 980 69 980 86.5 998 c 128,-1,3
 104 1016 104 1016 131 1026.5 c 128,-1,4
 158 1037 158 1037 196 1037 c 0,5,6
 224 1037 224 1037 256.5 1032 c 128,-1,7
 289 1027 289 1027 323 1019.5 c 128,-1,8
 357 1012 357 1012 392.5 1003.5 c 128,-1,9
 428 995 428 995 463 988 c 1,10,-1
 424 1477 l 1,11,12
 457 1496 457 1496 498 1505.5 c 128,-1,13
 539 1515 539 1515 584 1515 c 256,14,15
 629 1515 629 1515 670 1505.5 c 128,-1,16
 711 1496 711 1496 744 1477 c 1,17,-1
 704 988 l 1,18,19
 739 995 739 995 774.5 1003.5 c 128,-1,20
 810 1012 810 1012 844.5 1019.5 c 128,-1,21
 879 1027 879 1027 911 1032 c 128,-1,22
 943 1037 943 1037 972 1037 c 0,23,24
 1009 1037 1009 1037 1036.5 1026.5 c 128,-1,25
 1064 1016 1064 1016 1081.5 998 c 128,-1,26
 1099 980 1099 980 1107.5 957 c 128,-1,27
 1116 934 1116 934 1116 909 c 2,28,-1
 1116 809 l 1,29,-1
 704 809 l 1,30,-1
 704 505 l 1,31,-1
 744 -314 l 1,32,33
 711 -333 711 -333 670 -343 c 128,-1,34
 629 -353 629 -353 584 -353 c 256,35,36
 539 -353 539 -353 498 -343 c 128,-1,37
 457 -333 457 -333 424 -314 c 1,38,-1
 464 505 l 1,39,-1
 464 809 l 1,40,-1
 52 809 l 1,41,-1
 52 909 l 2,0,1
EndSplineSet
EndChar

StartChar: bullet
Encoding: 8226 8226 233
Width: 1160
Flags: W
LayerCount: 2
Fore
SplineSet
84 592 m 0,0,1
 84 692 84 692 123 780 c 128,-1,2
 162 868 162 868 229 934 c 128,-1,3
 296 1000 296 1000 386 1038 c 128,-1,4
 476 1076 476 1076 578 1076 c 0,5,6
 681 1076 681 1076 771 1038 c 128,-1,7
 861 1000 861 1000 928.5 934 c 128,-1,8
 996 868 996 868 1035 780 c 128,-1,9
 1074 692 1074 692 1074 592 c 0,10,11
 1074 493 1074 493 1035 405 c 128,-1,12
 996 317 996 317 928.5 252 c 128,-1,13
 861 187 861 187 771 149 c 128,-1,14
 681 111 681 111 578 111 c 0,15,16
 476 111 476 111 386 149 c 128,-1,17
 296 187 296 187 229 252 c 128,-1,18
 162 317 162 317 123 405 c 128,-1,19
 84 493 84 493 84 592 c 0,0,1
EndSplineSet
EndChar

StartChar: ellipsis
Encoding: 8230 8230 234
Width: 1576
Flags: W
LayerCount: 2
Fore
SplineSet
60 157 m 256,0,1
 60 193 60 193 73.5 224 c 128,-1,2
 87 255 87 255 110.5 278 c 128,-1,3
 134 301 134 301 166 314.5 c 128,-1,4
 198 328 198 328 236 328 c 0,5,6
 273 328 273 328 305 314.5 c 128,-1,7
 337 301 337 301 361 278 c 128,-1,8
 385 255 385 255 398.5 224 c 128,-1,9
 412 193 412 193 412 157 c 256,10,11
 412 121 412 121 398.5 89.5 c 128,-1,12
 385 58 385 58 361 35 c 128,-1,13
 337 12 337 12 305 -1 c 128,-1,14
 273 -14 273 -14 236 -14 c 0,15,16
 198 -14 198 -14 166 -1 c 128,-1,17
 134 12 134 12 110.5 35 c 128,-1,18
 87 58 87 58 73.5 89.5 c 128,-1,19
 60 121 60 121 60 157 c 256,0,1
1164 157 m 256,20,21
 1164 193 1164 193 1177.5 224 c 128,-1,22
 1191 255 1191 255 1214.5 278 c 128,-1,23
 1238 301 1238 301 1270 314.5 c 128,-1,24
 1302 328 1302 328 1340 328 c 0,25,26
 1377 328 1377 328 1409 314.5 c 128,-1,27
 1441 301 1441 301 1465 278 c 128,-1,28
 1489 255 1489 255 1502.5 224 c 128,-1,29
 1516 193 1516 193 1516 157 c 256,30,31
 1516 121 1516 121 1502.5 89.5 c 128,-1,32
 1489 58 1489 58 1465 35 c 128,-1,33
 1441 12 1441 12 1409 -1 c 128,-1,34
 1377 -14 1377 -14 1340 -14 c 0,35,36
 1302 -14 1302 -14 1270 -1 c 128,-1,37
 1238 12 1238 12 1214.5 35 c 128,-1,38
 1191 58 1191 58 1177.5 89.5 c 128,-1,39
 1164 121 1164 121 1164 157 c 256,20,21
612 157 m 256,40,41
 612 193 612 193 625.5 224 c 128,-1,42
 639 255 639 255 662.5 278 c 128,-1,43
 686 301 686 301 718 314.5 c 128,-1,44
 750 328 750 328 788 328 c 0,45,46
 825 328 825 328 857 314.5 c 128,-1,47
 889 301 889 301 913 278 c 128,-1,48
 937 255 937 255 950.5 224 c 128,-1,49
 964 193 964 193 964 157 c 256,50,51
 964 121 964 121 950.5 89.5 c 128,-1,52
 937 58 937 58 913 35 c 128,-1,53
 889 12 889 12 857 -1 c 128,-1,54
 825 -14 825 -14 788 -14 c 0,55,56
 750 -14 750 -14 718 -1 c 128,-1,57
 686 12 686 12 662.5 35 c 128,-1,58
 639 58 639 58 625.5 89.5 c 128,-1,59
 612 121 612 121 612 157 c 256,40,41
EndSplineSet
EndChar

StartChar: guilsinglleft
Encoding: 8249 8249 235
Width: 652
Flags: W
LayerCount: 2
Fore
SplineSet
110 525 m 1,0,-1
 110 564 l 1,1,-1
 372 966 l 1,2,-1
 474 920 l 2,3,4
 498 909 498 909 509.5 893 c 128,-1,5
 521 877 521 877 521 857 c 0,6,7
 521 833 521 833 506 806 c 2,8,-1
 386 591 l 2,9,10
 369 561 369 561 350 544 c 1,11,12
 368 528 368 528 386 498 c 2,13,-1
 506 282 l 2,14,15
 521 256 521 256 521 232 c 0,16,17
 521 212 521 212 509.5 196 c 128,-1,18
 498 180 498 180 474 169 c 2,19,-1
 372 123 l 1,20,-1
 110 525 l 1,0,-1
EndSplineSet
EndChar

StartChar: guilsinglright
Encoding: 8250 8250 236
Width: 652
Flags: W
LayerCount: 2
Fore
SplineSet
280 123 m 1,0,-1
 178 169 l 2,1,2
 154 180 154 180 142.5 196 c 128,-1,3
 131 212 131 212 131 232 c 0,4,5
 131 256 131 256 146 282 c 2,6,-1
 266 498 l 2,7,8
 281 526 281 526 302 544 c 1,9,10
 292 553 292 553 283 565 c 128,-1,11
 274 577 274 577 266 591 c 2,12,-1
 146 806 l 2,13,14
 131 833 131 833 131 857 c 0,15,16
 131 877 131 877 142.5 893 c 128,-1,17
 154 909 154 909 178 920 c 2,18,-1
 280 966 l 1,19,-1
 542 564 l 1,20,-1
 542 525 l 1,21,-1
 280 123 l 1,0,-1
EndSplineSet
EndChar

StartChar: fraction
Encoding: 8260 8260 237
Width: 800
Flags: W
LayerCount: 2
Fore
SplineSet
118 85 m 2,0,1
 102 60 102 60 85.5 43.5 c 128,-1,2
 69 27 69 27 50.5 17.5 c 128,-1,3
 32 8 32 8 11 4 c 128,-1,4
 -10 0 -10 0 -34 0 c 2,5,-1
 -166 0 l 1,6,-1
 682 1359 l 2,7,8
 712 1406 712 1406 750 1431.5 c 128,-1,9
 788 1457 788 1457 842 1457 c 2,10,-1
 974 1457 l 1,11,-1
 118 85 l 2,0,1
EndSplineSet
EndChar

StartChar: Euro
Encoding: 8364 8364 238
Width: 1160
Flags: W
LayerCount: 2
Fore
SplineSet
40 950 m 1,0,-1
 160 950 l 1,1,2
 185 1068 185 1068 237 1164.5 c 128,-1,3
 289 1261 289 1261 362 1329 c 128,-1,4
 435 1397 435 1397 527 1434 c 128,-1,5
 619 1471 619 1471 724 1471 c 0,6,7
 866 1471 866 1471 969.5 1414.5 c 128,-1,8
 1073 1358 1073 1358 1136 1265 c 1,9,-1
 1022 1147 l 2,10,11
 1011 1135 1011 1135 997.5 1125.5 c 128,-1,12
 984 1116 984 1116 962 1116 c 0,13,14
 938 1116 938 1116 921.5 1131 c 128,-1,15
 905 1146 905 1146 883 1164.5 c 128,-1,16
 861 1183 861 1183 828 1198 c 128,-1,17
 795 1213 795 1213 738 1213 c 0,18,19
 644 1213 644 1213 577.5 1146.5 c 128,-1,20
 511 1080 511 1080 480 950 c 1,21,-1
 940 950 l 1,22,-1
 940 858 l 2,23,24
 940 845 940 845 934 832 c 128,-1,25
 928 819 928 819 917 808.5 c 128,-1,26
 906 798 906 798 890.5 791.5 c 128,-1,27
 875 785 875 785 856 785 c 2,28,-1
 459 785 l 1,29,30
 458 771 458 771 458 757 c 128,-1,31
 458 743 458 743 458 729 c 2,32,-1
 458 694 l 1,33,-1
 844 694 l 1,34,-1
 844 602 l 2,35,36
 844 589 844 589 838 576 c 128,-1,37
 832 563 832 563 821 552.5 c 128,-1,38
 810 542 810 542 794.5 535.5 c 128,-1,39
 779 529 779 529 760 529 c 2,40,-1
 474 529 l 1,41,42
 500 384 500 384 565 314 c 128,-1,43
 630 244 630 244 724 244 c 0,44,45
 766 244 766 244 796 252.5 c 128,-1,46
 826 261 826 261 847 273 c 128,-1,47
 868 285 868 285 882.5 300 c 128,-1,48
 897 315 897 315 909.5 327 c 128,-1,49
 922 339 922 339 934.5 347.5 c 128,-1,50
 947 356 947 356 964 356 c 0,51,52
 978 356 978 356 987.5 352 c 128,-1,53
 997 348 997 348 1008 337 c 2,54,-1
 1144 216 l 1,55,56
 1075 103 1075 103 963 44.5 c 128,-1,57
 851 -14 851 -14 708 -14 c 0,58,59
 589 -14 589 -14 494.5 25.5 c 128,-1,60
 400 65 400 65 330.5 136 c 128,-1,61
 261 207 261 207 216.5 307 c 128,-1,62
 172 407 172 407 153 529 c 1,63,-1
 40 529 l 1,64,-1
 40 694 l 1,65,-1
 138 694 l 1,66,-1
 138 729 l 2,67,68
 138 743 138 743 138 757 c 128,-1,69
 138 771 138 771 139 785 c 1,70,-1
 40 785 l 1,71,-1
 40 950 l 1,0,-1
EndSplineSet
EndChar

StartChar: trademark
Encoding: 8482 8482 239
Width: 1462
Flags: W
LayerCount: 2
Fore
SplineSet
956 1209 m 2,0,1
 975 1167 975 1167 989 1125 c 1,2,3
 996 1146 996 1146 1005 1167 c 128,-1,4
 1014 1188 1014 1188 1024 1209 c 2,5,-1
 1124 1426 l 1,6,7
 1141 1446 1141 1446 1153.5 1451.5 c 128,-1,8
 1166 1457 1166 1457 1192 1457 c 2,9,-1
 1376 1457 l 1,10,-1
 1376 844 l 1,11,-1
 1190 844 l 1,12,-1
 1190 1096 l 1,13,-1
 1204 1209 l 1,14,-1
 1078 940 l 2,15,16
 1068 919 1068 919 1049 907.5 c 128,-1,17
 1030 896 1030 896 1006 896 c 2,18,-1
 976 896 l 2,19,20
 952 896 952 896 933 907.5 c 128,-1,21
 914 919 914 919 904 940 c 2,22,-1
 784 1204 l 1,23,-1
 796 1096 l 1,24,-1
 796 844 l 1,25,-1
 610 844 l 1,26,-1
 610 1457 l 1,27,-1
 794 1457 l 2,28,29
 807 1457 807 1457 816.5 1456 c 128,-1,30
 826 1455 826 1455 833.5 1451.5 c 128,-1,31
 841 1448 841 1448 847.5 1442 c 128,-1,32
 854 1436 854 1436 862 1426 c 2,33,-1
 956 1209 l 2,0,1
560 1457 m 1,34,-1
 560 1288 l 1,35,-1
 410 1288 l 1,36,-1
 410 844 l 1,37,-1
 198 844 l 1,38,-1
 198 1288 l 1,39,-1
 50 1288 l 1,40,-1
 50 1457 l 1,41,-1
 560 1457 l 1,34,-1
EndSplineSet
EndChar

StartChar: minus
Encoding: 8722 8722 240
Width: 1160
Flags: W
LayerCount: 2
Fore
SplineSet
124 783 m 1,0,-1
 1034 783 l 1,1,-1
 1034 561 l 1,2,-1
 124 561 l 1,3,-1
 124 783 l 1,0,-1
EndSplineSet
EndChar

StartChar: fi
Encoding: 65539 -1 241
Width: 1258
Flags: W
LayerCount: 2
Fore
SplineSet
166 0 m 1,0,-1
 166 824 l 1,1,-1
 98 838 l 2,2,3
 63 846 63 846 41.5 863 c 128,-1,4
 20 880 20 880 20 913 c 2,5,-1
 20 1035 l 1,6,-1
 166 1035 l 1,7,-1
 166 1050 l 2,8,9
 166 1144 166 1144 198.5 1227.5 c 128,-1,10
 231 1311 231 1311 299 1372.5 c 128,-1,11
 367 1434 367 1434 472.5 1470 c 128,-1,12
 578 1506 578 1506 724 1506 c 0,13,14
 769 1506 769 1506 817 1501.5 c 128,-1,15
 865 1497 865 1497 900 1488 c 1,16,-1
 890 1331 l 2,17,18
 888 1306 888 1306 865 1298 c 128,-1,19
 842 1290 842 1290 816 1290 c 0,20,21
 712 1290 712 1290 644 1274 c 128,-1,22
 576 1258 576 1258 536.5 1226.5 c 128,-1,23
 497 1195 497 1195 481.5 1148 c 128,-1,24
 466 1101 466 1101 466 1040 c 2,25,-1
 466 1035 l 1,26,-1
 1124 1035 l 1,27,-1
 1124 0 l 1,28,-1
 814 0 l 1,29,-1
 814 823 l 1,30,-1
 476 823 l 1,31,-1
 476 0 l 1,32,-1
 166 0 l 1,0,-1
EndSplineSet
Ligature2: "'liga' Standard Ligatures in Latin lookup 0 subtable" f i
EndChar

StartChar: fl
Encoding: 65540 -1 242
Width: 1276
Flags: W
LayerCount: 2
Fore
SplineSet
166 0 m 1,0,-1
 166 824 l 1,1,-1
 98 838 l 2,2,3
 63 846 63 846 41.5 863 c 128,-1,4
 20 880 20 880 20 913 c 2,5,-1
 20 1035 l 1,6,-1
 166 1035 l 1,7,-1
 166 1071 l 2,8,9
 166 1150 166 1150 192 1225.5 c 128,-1,10
 218 1301 218 1301 272 1359.5 c 128,-1,11
 326 1418 326 1418 410 1453.5 c 128,-1,12
 494 1489 494 1489 610 1489 c 0,13,14
 708 1489 708 1489 794.5 1483 c 128,-1,15
 881 1477 881 1477 970 1477 c 2,16,-1
 1144 1477 l 1,17,-1
 1144 0 l 1,18,-1
 836 0 l 1,19,-1
 836 1269 l 1,20,21
 785 1271 785 1271 737.5 1273.5 c 128,-1,22
 690 1276 690 1276 660 1276 c 0,23,24
 565 1276 565 1276 515.5 1223.5 c 128,-1,25
 466 1171 466 1171 466 1071 c 2,26,-1
 466 1035 l 1,27,-1
 690 1035 l 1,28,-1
 690 823 l 1,29,-1
 476 823 l 1,30,-1
 476 0 l 1,31,-1
 166 0 l 1,0,-1
EndSplineSet
Ligature2: "'liga' Standard Ligatures in Latin lookup 0 subtable" f l
EndChar

StartChar: grave.case
Encoding: 65541 -1 243
Width: 660
Flags: W
LayerCount: 2
Fore
SplineSet
224 1798 m 2,0,1
 247 1798 247 1798 264.5 1795.5 c 128,-1,2
 282 1793 282 1793 295.5 1787.5 c 128,-1,3
 309 1782 309 1782 321 1772.5 c 128,-1,4
 333 1763 333 1763 346 1749 c 2,5,-1
 528 1551 l 1,6,-1
 282 1551 l 2,7,8
 264 1551 264 1551 251 1552 c 128,-1,9
 238 1553 238 1553 226.5 1556.5 c 128,-1,10
 215 1560 215 1560 204.5 1565.5 c 128,-1,11
 194 1571 194 1571 182 1580 c 2,12,-1
 -118 1798 l 1,13,-1
 224 1798 l 2,0,1
EndSplineSet
EndChar

